<mxfile host="app.diagrams.net" agent="Mozilla/5.0 (Macintosh; Intel Mac OS X 10.15; rv:133.0) Gecko/20100101 Firefox/133.0" version="25.0.3">
  <diagram name="Page-1" id="rLOyFdFmIQ4bdtBOylwv">
    <mxGraphModel dx="1493" dy="925" grid="1" gridSize="10" guides="1" tooltips="1" connect="1" arrows="1" fold="1" page="1" pageScale="1" pageWidth="827" pageHeight="1169" math="0" shadow="0">
      <root>
        <mxCell id="0" />
        <mxCell id="1" parent="0" />
        <mxCell id="XB9ZX82qE_2Oj1gt79N6-38" value="" style="rounded=0;whiteSpace=wrap;html=1;" parent="1" vertex="1">
          <mxGeometry width="1040" height="570" as="geometry" />
        </mxCell>
        <mxCell id="jJKlzhtBrw8RwIzrtY0X-2" value="" style="rounded=0;whiteSpace=wrap;html=1;fillColor=none;" parent="1" vertex="1">
          <mxGeometry x="40" y="210" width="400" height="200" as="geometry" />
        </mxCell>
        <mxCell id="_G-yfWp5dFgnprR01KAw-9" style="edgeStyle=orthogonalEdgeStyle;rounded=0;orthogonalLoop=1;jettySize=auto;html=1;" edge="1" parent="1" source="XB9ZX82qE_2Oj1gt79N6-4" target="XB9ZX82qE_2Oj1gt79N6-18">
          <mxGeometry relative="1" as="geometry">
            <Array as="points">
              <mxPoint x="460" y="330" />
              <mxPoint x="460" y="310" />
            </Array>
          </mxGeometry>
        </mxCell>
        <mxCell id="XB9ZX82qE_2Oj1gt79N6-4" value="" style="rounded=0;whiteSpace=wrap;html=1;fillColor=#d5e8d4;strokeColor=#82b366;" parent="1" vertex="1">
          <mxGeometry x="55" y="270" width="355" height="120" as="geometry" />
        </mxCell>
        <mxCell id="jJKlzhtBrw8RwIzrtY0X-3" value="" style="sketch=0;outlineConnect=0;fontColor=#232F3E;gradientColor=none;fillColor=#8C4FFF;strokeColor=none;dashed=0;verticalLabelPosition=bottom;verticalAlign=top;align=center;html=1;fontSize=12;fontStyle=0;aspect=fixed;pointerEvents=1;shape=mxgraph.aws4.hosted_zone;" parent="1" vertex="1">
          <mxGeometry x="40" y="210" width="50.65" height="50" as="geometry" />
        </mxCell>
        <mxCell id="jJKlzhtBrw8RwIzrtY0X-4" value="aws.domain.com" style="text;html=1;strokeColor=none;fillColor=none;align=center;verticalAlign=middle;whiteSpace=wrap;rounded=0;" parent="1" vertex="1">
          <mxGeometry x="80" y="220" width="130" height="30" as="geometry" />
        </mxCell>
        <mxCell id="jJKlzhtBrw8RwIzrtY0X-10" style="edgeStyle=orthogonalEdgeStyle;rounded=0;orthogonalLoop=1;jettySize=auto;html=1;entryX=0.5;entryY=0;entryDx=0;entryDy=0;" parent="1" source="jJKlzhtBrw8RwIzrtY0X-5" target="jJKlzhtBrw8RwIzrtY0X-2" edge="1">
          <mxGeometry relative="1" as="geometry" />
        </mxCell>
        <mxCell id="jJKlzhtBrw8RwIzrtY0X-5" value="" style="rounded=0;whiteSpace=wrap;html=1;fillColor=none;" parent="1" vertex="1">
          <mxGeometry x="40" y="100" width="400" height="60" as="geometry" />
        </mxCell>
        <mxCell id="jJKlzhtBrw8RwIzrtY0X-6" value="Your Domain Host for domain.com" style="text;html=1;strokeColor=none;fillColor=none;align=center;verticalAlign=middle;whiteSpace=wrap;rounded=0;" parent="1" vertex="1">
          <mxGeometry x="40" y="100" width="230" height="20" as="geometry" />
        </mxCell>
        <mxCell id="jJKlzhtBrw8RwIzrtY0X-7" value="NS" style="text;html=1;strokeColor=none;fillColor=none;align=center;verticalAlign=middle;whiteSpace=wrap;rounded=0;" parent="1" vertex="1">
          <mxGeometry x="50" y="120" width="60" height="30" as="geometry" />
        </mxCell>
        <mxCell id="jJKlzhtBrw8RwIzrtY0X-8" value="aws.domain.com" style="text;html=1;strokeColor=none;fillColor=none;align=center;verticalAlign=middle;whiteSpace=wrap;rounded=0;" parent="1" vertex="1">
          <mxGeometry x="150" y="120" width="100" height="30" as="geometry" />
        </mxCell>
        <mxCell id="jJKlzhtBrw8RwIzrtY0X-9" value="awsNameserver" style="text;html=1;strokeColor=none;fillColor=none;align=center;verticalAlign=middle;whiteSpace=wrap;rounded=0;" parent="1" vertex="1">
          <mxGeometry x="280" y="120" width="100" height="30" as="geometry" />
        </mxCell>
        <mxCell id="jJKlzhtBrw8RwIzrtY0X-11" value="" style="rounded=0;whiteSpace=wrap;html=1;fillColor=none;" parent="1" vertex="1">
          <mxGeometry x="40" y="210" width="170" height="50" as="geometry" />
        </mxCell>
        <mxCell id="jJKlzhtBrw8RwIzrtY0X-12" value="A" style="text;html=1;strokeColor=none;fillColor=none;align=center;verticalAlign=middle;whiteSpace=wrap;rounded=0;" parent="1" vertex="1">
          <mxGeometry x="55" y="330" width="60" height="30" as="geometry" />
        </mxCell>
        <mxCell id="jJKlzhtBrw8RwIzrtY0X-13" value="pocketbase2" style="text;html=1;strokeColor=none;fillColor=none;align=center;verticalAlign=middle;whiteSpace=wrap;rounded=0;" parent="1" vertex="1">
          <mxGeometry x="160" y="330" width="80" height="30" as="geometry" />
        </mxCell>
        <mxCell id="jJKlzhtBrw8RwIzrtY0X-14" value="alb-public-dns" style="text;html=1;strokeColor=none;fillColor=none;align=center;verticalAlign=middle;whiteSpace=wrap;rounded=0;" parent="1" vertex="1">
          <mxGeometry x="290" y="330" width="90" height="30" as="geometry" />
        </mxCell>
        <mxCell id="XB9ZX82qE_2Oj1gt79N6-1" value="A" style="text;html=1;strokeColor=none;fillColor=none;align=center;verticalAlign=middle;whiteSpace=wrap;rounded=0;" parent="1" vertex="1">
          <mxGeometry x="55" y="360" width="60" height="30" as="geometry" />
        </mxCell>
        <mxCell id="XB9ZX82qE_2Oj1gt79N6-2" value="www.pocketbase2" style="text;html=1;strokeColor=none;fillColor=none;align=center;verticalAlign=middle;whiteSpace=wrap;rounded=0;" parent="1" vertex="1">
          <mxGeometry x="160" y="360" width="80" height="30" as="geometry" />
        </mxCell>
        <mxCell id="XB9ZX82qE_2Oj1gt79N6-3" value="alb-public-dns" style="text;html=1;strokeColor=none;fillColor=none;align=center;verticalAlign=middle;whiteSpace=wrap;rounded=0;" parent="1" vertex="1">
          <mxGeometry x="290" y="360" width="90" height="30" as="geometry" />
        </mxCell>
        <mxCell id="XB9ZX82qE_2Oj1gt79N6-14" value="eu-west-2" style="points=[[0,0],[0.25,0],[0.5,0],[0.75,0],[1,0],[1,0.25],[1,0.5],[1,0.75],[1,1],[0.75,1],[0.5,1],[0.25,1],[0,1],[0,0.75],[0,0.5],[0,0.25]];outlineConnect=0;gradientColor=none;html=1;whiteSpace=wrap;fontSize=12;fontStyle=0;container=1;pointerEvents=0;collapsible=0;recursiveResize=0;shape=mxgraph.aws4.group;grIcon=mxgraph.aws4.group_region;strokeColor=#147EBA;fillColor=none;verticalAlign=top;align=left;spacingLeft=30;fontColor=#147EBA;dashed=1;" parent="1" vertex="1">
          <mxGeometry x="480" y="40" width="520" height="495" as="geometry" />
        </mxCell>
        <mxCell id="XB9ZX82qE_2Oj1gt79N6-16" value="eu-west-2b" style="sketch=0;outlineConnect=0;gradientColor=none;html=1;whiteSpace=wrap;fontSize=12;fontStyle=0;shape=mxgraph.aws4.group;grIcon=mxgraph.aws4.group_availability_zone;strokeColor=#545B64;fillColor=none;verticalAlign=top;align=left;spacingLeft=30;fontColor=#545B64;dashed=1;" parent="XB9ZX82qE_2Oj1gt79N6-14" vertex="1">
          <mxGeometry x="20" y="140" width="480" height="330" as="geometry" />
        </mxCell>
        <mxCell id="XB9ZX82qE_2Oj1gt79N6-17" value="Public Subnet" style="sketch=0;outlineConnect=0;gradientColor=none;html=1;whiteSpace=wrap;fontSize=12;fontStyle=0;shape=mxgraph.aws4.group;grIcon=mxgraph.aws4.group_subnet;strokeColor=#879196;fillColor=none;verticalAlign=top;align=left;spacingLeft=30;fontColor=#879196;dashed=0;" parent="XB9ZX82qE_2Oj1gt79N6-14" vertex="1">
          <mxGeometry x="40" y="180" width="440" height="260" as="geometry" />
        </mxCell>
        <mxCell id="XB9ZX82qE_2Oj1gt79N6-22" value="" style="fillColor=none;strokeColor=#DD3522;verticalAlign=top;fontStyle=0;fontColor=#DD3522;whiteSpace=wrap;html=1;" parent="XB9ZX82qE_2Oj1gt79N6-14" vertex="1">
          <mxGeometry x="80" y="230" width="360" height="185" as="geometry" />
        </mxCell>
        <mxCell id="_G-yfWp5dFgnprR01KAw-15" style="edgeStyle=orthogonalEdgeStyle;rounded=0;orthogonalLoop=1;jettySize=auto;html=1;entryX=0.5;entryY=0;entryDx=0;entryDy=0;" edge="1" parent="XB9ZX82qE_2Oj1gt79N6-14" source="XB9ZX82qE_2Oj1gt79N6-18" target="_G-yfWp5dFgnprR01KAw-14">
          <mxGeometry relative="1" as="geometry" />
        </mxCell>
        <mxCell id="XB9ZX82qE_2Oj1gt79N6-18" value="&lt;div&gt;EC2&lt;/div&gt;" style="outlineConnect=0;dashed=0;verticalLabelPosition=bottom;verticalAlign=top;align=center;html=1;shape=mxgraph.aws3.ec2;fillColor=#F58534;gradientColor=none;" parent="XB9ZX82qE_2Oj1gt79N6-14" vertex="1">
          <mxGeometry x="138.55" y="250" width="32.9" height="40" as="geometry" />
        </mxCell>
        <mxCell id="XB9ZX82qE_2Oj1gt79N6-39" value="&lt;div&gt;OS Volume&lt;br&gt;5GB&lt;br&gt;&lt;/div&gt;" style="outlineConnect=0;dashed=0;verticalLabelPosition=bottom;verticalAlign=top;align=center;html=1;shape=mxgraph.aws3.volume;fillColor=#E05243;gradientColor=none;" parent="XB9ZX82qE_2Oj1gt79N6-14" vertex="1">
          <mxGeometry x="90" y="45" width="28" height="40" as="geometry" />
        </mxCell>
        <mxCell id="XB9ZX82qE_2Oj1gt79N6-43" style="edgeStyle=orthogonalEdgeStyle;rounded=0;orthogonalLoop=1;jettySize=auto;html=1;" parent="XB9ZX82qE_2Oj1gt79N6-14" source="XB9ZX82qE_2Oj1gt79N6-18" target="XB9ZX82qE_2Oj1gt79N6-39" edge="1">
          <mxGeometry relative="1" as="geometry">
            <Array as="points">
              <mxPoint x="155" y="65" />
            </Array>
          </mxGeometry>
        </mxCell>
        <mxCell id="XB9ZX82qE_2Oj1gt79N6-40" value="&lt;div&gt;Pocketbase Volume&lt;br&gt;&lt;/div&gt;&lt;div&gt;5GB&lt;br&gt;&lt;/div&gt;" style="outlineConnect=0;dashed=0;verticalLabelPosition=bottom;verticalAlign=top;align=center;html=1;shape=mxgraph.aws3.volume;fillColor=#E05243;gradientColor=none;" parent="XB9ZX82qE_2Oj1gt79N6-14" vertex="1">
          <mxGeometry x="224" y="45" width="28" height="40" as="geometry" />
        </mxCell>
        <mxCell id="XB9ZX82qE_2Oj1gt79N6-44" style="edgeStyle=orthogonalEdgeStyle;rounded=0;orthogonalLoop=1;jettySize=auto;html=1;entryX=0;entryY=0.5;entryDx=0;entryDy=0;entryPerimeter=0;" parent="XB9ZX82qE_2Oj1gt79N6-14" source="XB9ZX82qE_2Oj1gt79N6-18" target="XB9ZX82qE_2Oj1gt79N6-40" edge="1">
          <mxGeometry relative="1" as="geometry">
            <Array as="points">
              <mxPoint x="155" y="65" />
            </Array>
          </mxGeometry>
        </mxCell>
        <mxCell id="_G-yfWp5dFgnprR01KAw-10" value="Port&#xa;8090" style="shape=image;verticalLabelPosition=bottom;labelBackgroundColor=default;verticalAlign=top;aspect=fixed;imageAspect=0;image=data:image/svg+xml,PHN2ZyB4bWxucz0iaHR0cDovL3d3dy53My5vcmcvMjAwMC9zdmciIGZpbGw9Im5vbmUiIHZpZXdCb3g9IjAgMCA0MCA0MCIgaGVpZ2h0PSI0MCIgd2lkdGg9IjQwIj4mI3hhOzxyZWN0IGZpbGw9IndoaXRlIiB0cmFuc2Zvcm09InJvdGF0ZSg0NS45NzcyIDI1LjUzNiAxMy40ODYxKSIgaGVpZ2h0PSIxNi43MzM4IiB3aWR0aD0iMS43MTQ2NyIgeT0iMTMuNDg2MSIgeD0iMjUuNTM2Ii8+JiN4YTs8cGF0aCBmaWxsPSJ3aGl0ZSIgZD0iTTI2IDE0SDM2LjhDMzcuNDYyOCAxNCAzOCAxNC41MzczIDM4IDE1LjJWMzYuOEMzOCAzNy40NjI4IDM3LjQ2MjggMzggMzYuOCAzOEgxNS4yQzE0LjUzNzMgMzggMTQgMzcuNDYyOCAxNCAzNi44VjI2Ii8+JiN4YTs8cGF0aCBzdHJva2UtbGluZWpvaW49InJvdW5kIiBzdHJva2UtbGluZWNhcD0icm91bmQiIHN0cm9rZS13aWR0aD0iMiIgc3Ryb2tlPSIjMTYxNjFhIiBkPSJNMjYgMTRIMzYuOEMzNy40NjI4IDE0IDM4IDE0LjUzNzMgMzggMTUuMlYzNi44QzM4IDM3LjQ2MjggMzcuNDYyOCAzOCAzNi44IDM4SDE1LjJDMTQuNTM3MyAzOCAxNCAzNy40NjI4IDE0IDM2LjhWMjYiLz4mI3hhOzxwYXRoIGZpbGw9IndoaXRlIiBkPSJNMjYgMTRWMy4yQzI2IDIuNTM3MjYgMjUuNDYyOCAyIDI0LjggMkgzLjJDMi41MzcyNiAyIDIgMi41MzcyNiAyIDMuMlYyNC44QzIgMjUuNDYyOCAyLjUzNzI2IDI2IDMuMiAyNkgxNCIvPiYjeGE7PHBhdGggc3Ryb2tlLWxpbmVqb2luPSJyb3VuZCIgc3Ryb2tlLWxpbmVjYXA9InJvdW5kIiBzdHJva2Utd2lkdGg9IjIiIHN0cm9rZT0iIzE2MTYxYSIgZD0iTTI2IDE0VjMuMkMyNiAyLjUzNzI2IDI1LjQ2MjggMiAyNC44IDJIMy4yQzIuNTM3MjYgMiAyIDIuNTM3MjYgMiAzLjJWMjQuOEMyIDI1LjQ2MjggMi41MzcyNiAyNiAzLjIgMjZIMTQiLz4mI3hhOzxwYXRoIGZpbGw9IiMxNjE2MWEiIGQ9Ik0xMCAyMEM5LjQ0NzcyIDIwIDkgMTkuNTUyMyA5IDE5VjhDOSA3LjQ0NzcyIDkuNDQ3NzIgNyAxMCA3SDEzLjc1MzFDMTQuNDgwMSA3IDE1LjE1OTEgNy4wNzMxMSAxNS43OTAxIDcuMjE5MzJDMTYuNDM0OCA3LjM1MjI1IDE2Ljk5MDQgNy41ODQ4NyAxNy40NTY4IDcuOTE3MThDMTcuOTM2OSA4LjIzNjIgMTguMzE0MSA4LjY2ODIgMTguNTg4NSA5LjIxMzE5QzE4Ljg2MjggOS43NDQ4OSAxOSAxMC40MDI5IDE5IDExLjE4NzFDMTkgMTEuOTQ0OCAxOC44NTYgMTIuNjAyOCAxOC41Njc5IDEzLjE2MUMxOC4yOTM2IDEzLjcxOTMgMTcuOTE2MyAxNC4xNzc5IDE3LjQzNjIgMTQuNTM2OEMxNi45NTYxIDE0Ljg5NTcgMTYuNDAwNSAxNS4xNjE2IDE1Ljc2OTUgMTUuMzM0NEMxNS4xMzg1IDE1LjUwNzIgMTQuNDY2NCAxNS41OTM2IDEzLjc1MzEgMTUuNTkzNkgxMy4wMjQ3QzEyLjQ3MjQgMTUuNTkzNiAxMi4wMjQ3IDE2LjA0MTMgMTIuMDI0NyAxNi41OTM2VjE5QzEyLjAyNDcgMTkuNTUyMyAxMS41NzcgMjAgMTEuMDI0NyAyMEgxMFpNMTIuMDI0NyAxMi4yNjA3QzEyLjAyNDcgMTIuODEzIDEyLjQ3MjQgMTMuMjYwNyAxMy4wMjQ3IDEzLjI2MDdIMTMuNTY3OUMxNS4yMTQgMTMuMjYwNyAxNi4wMzcgMTIuNTY5NSAxNi4wMzcgMTEuMTg3MUMxNi4wMzcgMTAuNTA5MiAxNS44MjQ0IDEwLjAzMDcgMTUuMzk5MiA5Ljc1MTUzQzE0Ljk4NzcgOS40NzIzOSAxNC4zNzcyIDkuMzMyODIgMTMuNTY3OSA5LjMzMjgySDEzLjAyNDdDMTIuNDcyNCA5LjMzMjgyIDEyLjAyNDcgOS43ODA1NCAxMi4wMjQ3IDEwLjMzMjhWMTIuMjYwN1oiLz4mI3hhOzxwYXRoIGZpbGw9IiMxNjE2MWEiIGQ9Ik0yMiAzM0MyMS40NDc3IDMzIDIxIDMyLjU1MjMgMjEgMzJWMjFDMjEgMjAuNDQ3NyAyMS40NDc3IDIwIDIyIDIwSDI1LjQ4NzdDMjYuMTg0NCAyMCAyNi44MjY1IDIwLjA1MzIgMjcuNDEzOSAyMC4xNTk1QzI4LjAxNSAyMC4yNTI2IDI4LjUzNDIgMjAuNDI1NCAyOC45NzEzIDIwLjY3NzlDMjkuNDA4NSAyMC45MzA1IDI5Ljc1IDIxLjI2MjggMjkuOTk1OSAyMS42NzQ4QzMwLjI1NTUgMjIuMDg2OSAzMC4zODUyIDIyLjYwNTMgMzAuMzg1MiAyMy4yMzAxQzMwLjM4NTIgMjMuNTIyNSAzMC4zMzc0IDIzLjgxNDkgMzAuMjQxOCAyNC4xMDc0QzMwLjE1OTggMjQuMzk5OCAzMC4wMjMyIDI0LjY3MjMgMjkuODMyIDI0LjkyNDhDMjkuNjQwNyAyNS4xNzc0IDI5LjQwMTYgMjUuNDAzNCAyOS4xMTQ4IDI1LjYwMjhDMjguODM3IDI1Ljc5NTggMjguNTA4MSAyNS45MzkgMjguMTI3OSAyNi4wMzIzQzI4LjEwNTggMjYuMDM3OCAyOC4wOTAyIDI2LjA1NzUgMjguMDkwMiAyNi4wODAyVjI2LjA4MDJDMjguMDkwMiAyNi4xMDM5IDI4LjEwNzMgMjYuMTI0MiAyOC4xMzA2IDI2LjEyODZDMjkuMDY2OSAyNi4zMDM0IDI5Ljc3NzQgMjYuNjMzMiAzMC4yNjIzIDI3LjExODFDMzAuNzU0MSAyNy42MDk5IDMxIDI4LjI5NDUgMzEgMjkuMTcxOEMzMSAyOS44MzY0IDMwLjg3MDIgMzAuNDA4IDMwLjYxMDcgMzAuODg2NUMzMC4zNTExIDMxLjM2NSAyOS45ODkxIDMxLjc2MzggMjkuNTI0NiAzMi4wODI4QzI5LjA2MDEgMzIuMzg4NSAyOC41MTM3IDMyLjYyMTIgMjcuODg1MiAzMi43ODA3QzI3LjI3MDUgMzIuOTI2OSAyNi42MDExIDMzIDI1Ljg3NzEgMzNIMjJaTTI0LjAxMjMgMjQuMjIzOUMyNC4wMTIzIDI0Ljc3NjIgMjQuNDYgMjUuMjIzOSAyNS4wMTIzIDI1LjIyMzlIMjUuMzQ0M0MyNi4wODIgMjUuMjIzOSAyNi42MTQ4IDI1LjA4NDQgMjYuOTQyNiAyNC44MDUyQzI3LjI3MDUgMjQuNTI2MSAyNy40MzQ0IDI0LjEzMzkgMjcuNDM0NCAyMy42Mjg4QzI3LjQzNDQgMjMuMTUwMyAyNy4yNjM3IDIyLjgxMTMgMjYuOTIyMSAyMi42MTJDMjYuNTk0MyAyMi4zOTkzIDI2LjA3NTEgMjIuMjkyOSAyNS4zNjQ4IDIyLjI5MjlIMjUuMDEyM0MyNC40NiAyMi4yOTI5IDI0LjAxMjMgMjIuNzQwNyAyNC4wMTIzIDIzLjI5MjlWMjQuMjIzOVpNMjQuMDEyMyAyOS43MDcxQzI0LjAxMjMgMzAuMjU5MyAyNC40NiAzMC43MDcxIDI1LjAxMjMgMzAuNzA3MUgyNS42MzExQzI3LjI0MzIgMzAuNzA3MSAyOC4wNDkyIDMwLjEyMjIgMjguMDQ5MiAyOC45NTI1QzI4LjA0OTIgMjguMzgwOSAyNy44NTExIDI3Ljk2ODggMjcuNDU0OSAyNy43MTYzQzI3LjA3MjQgMjcuNDYzNyAyNi40NjQ1IDI3LjMzNzQgMjUuNjMxMSAyNy4zMzc0SDI1LjAxMjNDMjQuNDYgMjcuMzM3NCAyNC4wMTIzIDI3Ljc4NTEgMjQuMDEyMyAyOC4zMzc0VjI5LjcwNzFaIi8+JiN4YTs8L3N2Zz4=;" vertex="1" parent="XB9ZX82qE_2Oj1gt79N6-14">
          <mxGeometry x="218" y="245" width="40" height="40" as="geometry" />
        </mxCell>
        <mxCell id="_G-yfWp5dFgnprR01KAw-11" value="Port&#xa;8091" style="shape=image;verticalLabelPosition=bottom;labelBackgroundColor=default;verticalAlign=top;aspect=fixed;imageAspect=0;image=data:image/svg+xml,PHN2ZyB4bWxucz0iaHR0cDovL3d3dy53My5vcmcvMjAwMC9zdmciIGZpbGw9Im5vbmUiIHZpZXdCb3g9IjAgMCA0MCA0MCIgaGVpZ2h0PSI0MCIgd2lkdGg9IjQwIj4mI3hhOzxyZWN0IGZpbGw9IndoaXRlIiB0cmFuc2Zvcm09InJvdGF0ZSg0NS45NzcyIDI1LjUzNiAxMy40ODYxKSIgaGVpZ2h0PSIxNi43MzM4IiB3aWR0aD0iMS43MTQ2NyIgeT0iMTMuNDg2MSIgeD0iMjUuNTM2Ii8+JiN4YTs8cGF0aCBmaWxsPSJ3aGl0ZSIgZD0iTTI2IDE0SDM2LjhDMzcuNDYyOCAxNCAzOCAxNC41MzczIDM4IDE1LjJWMzYuOEMzOCAzNy40NjI4IDM3LjQ2MjggMzggMzYuOCAzOEgxNS4yQzE0LjUzNzMgMzggMTQgMzcuNDYyOCAxNCAzNi44VjI2Ii8+JiN4YTs8cGF0aCBzdHJva2UtbGluZWpvaW49InJvdW5kIiBzdHJva2UtbGluZWNhcD0icm91bmQiIHN0cm9rZS13aWR0aD0iMiIgc3Ryb2tlPSIjMTYxNjFhIiBkPSJNMjYgMTRIMzYuOEMzNy40NjI4IDE0IDM4IDE0LjUzNzMgMzggMTUuMlYzNi44QzM4IDM3LjQ2MjggMzcuNDYyOCAzOCAzNi44IDM4SDE1LjJDMTQuNTM3MyAzOCAxNCAzNy40NjI4IDE0IDM2LjhWMjYiLz4mI3hhOzxwYXRoIGZpbGw9IndoaXRlIiBkPSJNMjYgMTRWMy4yQzI2IDIuNTM3MjYgMjUuNDYyOCAyIDI0LjggMkgzLjJDMi41MzcyNiAyIDIgMi41MzcyNiAyIDMuMlYyNC44QzIgMjUuNDYyOCAyLjUzNzI2IDI2IDMuMiAyNkgxNCIvPiYjeGE7PHBhdGggc3Ryb2tlLWxpbmVqb2luPSJyb3VuZCIgc3Ryb2tlLWxpbmVjYXA9InJvdW5kIiBzdHJva2Utd2lkdGg9IjIiIHN0cm9rZT0iIzE2MTYxYSIgZD0iTTI2IDE0VjMuMkMyNiAyLjUzNzI2IDI1LjQ2MjggMiAyNC44IDJIMy4yQzIuNTM3MjYgMiAyIDIuNTM3MjYgMiAzLjJWMjQuOEMyIDI1LjQ2MjggMi41MzcyNiAyNiAzLjIgMjZIMTQiLz4mI3hhOzxwYXRoIGZpbGw9IiMxNjE2MWEiIGQ9Ik0xMCAyMEM5LjQ0NzcyIDIwIDkgMTkuNTUyMyA5IDE5VjhDOSA3LjQ0NzcyIDkuNDQ3NzIgNyAxMCA3SDEzLjc1MzFDMTQuNDgwMSA3IDE1LjE1OTEgNy4wNzMxMSAxNS43OTAxIDcuMjE5MzJDMTYuNDM0OCA3LjM1MjI1IDE2Ljk5MDQgNy41ODQ4NyAxNy40NTY4IDcuOTE3MThDMTcuOTM2OSA4LjIzNjIgMTguMzE0MSA4LjY2ODIgMTguNTg4NSA5LjIxMzE5QzE4Ljg2MjggOS43NDQ4OSAxOSAxMC40MDI5IDE5IDExLjE4NzFDMTkgMTEuOTQ0OCAxOC44NTYgMTIuNjAyOCAxOC41Njc5IDEzLjE2MUMxOC4yOTM2IDEzLjcxOTMgMTcuOTE2MyAxNC4xNzc5IDE3LjQzNjIgMTQuNTM2OEMxNi45NTYxIDE0Ljg5NTcgMTYuNDAwNSAxNS4xNjE2IDE1Ljc2OTUgMTUuMzM0NEMxNS4xMzg1IDE1LjUwNzIgMTQuNDY2NCAxNS41OTM2IDEzLjc1MzEgMTUuNTkzNkgxMy4wMjQ3QzEyLjQ3MjQgMTUuNTkzNiAxMi4wMjQ3IDE2LjA0MTMgMTIuMDI0NyAxNi41OTM2VjE5QzEyLjAyNDcgMTkuNTUyMyAxMS41NzcgMjAgMTEuMDI0NyAyMEgxMFpNMTIuMDI0NyAxMi4yNjA3QzEyLjAyNDcgMTIuODEzIDEyLjQ3MjQgMTMuMjYwNyAxMy4wMjQ3IDEzLjI2MDdIMTMuNTY3OUMxNS4yMTQgMTMuMjYwNyAxNi4wMzcgMTIuNTY5NSAxNi4wMzcgMTEuMTg3MUMxNi4wMzcgMTAuNTA5MiAxNS44MjQ0IDEwLjAzMDcgMTUuMzk5MiA5Ljc1MTUzQzE0Ljk4NzcgOS40NzIzOSAxNC4zNzcyIDkuMzMyODIgMTMuNTY3OSA5LjMzMjgySDEzLjAyNDdDMTIuNDcyNCA5LjMzMjgyIDEyLjAyNDcgOS43ODA1NCAxMi4wMjQ3IDEwLjMzMjhWMTIuMjYwN1oiLz4mI3hhOzxwYXRoIGZpbGw9IiMxNjE2MWEiIGQ9Ik0yMiAzM0MyMS40NDc3IDMzIDIxIDMyLjU1MjMgMjEgMzJWMjFDMjEgMjAuNDQ3NyAyMS40NDc3IDIwIDIyIDIwSDI1LjQ4NzdDMjYuMTg0NCAyMCAyNi44MjY1IDIwLjA1MzIgMjcuNDEzOSAyMC4xNTk1QzI4LjAxNSAyMC4yNTI2IDI4LjUzNDIgMjAuNDI1NCAyOC45NzEzIDIwLjY3NzlDMjkuNDA4NSAyMC45MzA1IDI5Ljc1IDIxLjI2MjggMjkuOTk1OSAyMS42NzQ4QzMwLjI1NTUgMjIuMDg2OSAzMC4zODUyIDIyLjYwNTMgMzAuMzg1MiAyMy4yMzAxQzMwLjM4NTIgMjMuNTIyNSAzMC4zMzc0IDIzLjgxNDkgMzAuMjQxOCAyNC4xMDc0QzMwLjE1OTggMjQuMzk5OCAzMC4wMjMyIDI0LjY3MjMgMjkuODMyIDI0LjkyNDhDMjkuNjQwNyAyNS4xNzc0IDI5LjQwMTYgMjUuNDAzNCAyOS4xMTQ4IDI1LjYwMjhDMjguODM3IDI1Ljc5NTggMjguNTA4MSAyNS45MzkgMjguMTI3OSAyNi4wMzIzQzI4LjEwNTggMjYuMDM3OCAyOC4wOTAyIDI2LjA1NzUgMjguMDkwMiAyNi4wODAyVjI2LjA4MDJDMjguMDkwMiAyNi4xMDM5IDI4LjEwNzMgMjYuMTI0MiAyOC4xMzA2IDI2LjEyODZDMjkuMDY2OSAyNi4zMDM0IDI5Ljc3NzQgMjYuNjMzMiAzMC4yNjIzIDI3LjExODFDMzAuNzU0MSAyNy42MDk5IDMxIDI4LjI5NDUgMzEgMjkuMTcxOEMzMSAyOS44MzY0IDMwLjg3MDIgMzAuNDA4IDMwLjYxMDcgMzAuODg2NUMzMC4zNTExIDMxLjM2NSAyOS45ODkxIDMxLjc2MzggMjkuNTI0NiAzMi4wODI4QzI5LjA2MDEgMzIuMzg4NSAyOC41MTM3IDMyLjYyMTIgMjcuODg1MiAzMi43ODA3QzI3LjI3MDUgMzIuOTI2OSAyNi42MDExIDMzIDI1Ljg3NzEgMzNIMjJaTTI0LjAxMjMgMjQuMjIzOUMyNC4wMTIzIDI0Ljc3NjIgMjQuNDYgMjUuMjIzOSAyNS4wMTIzIDI1LjIyMzlIMjUuMzQ0M0MyNi4wODIgMjUuMjIzOSAyNi42MTQ4IDI1LjA4NDQgMjYuOTQyNiAyNC44MDUyQzI3LjI3MDUgMjQuNTI2MSAyNy40MzQ0IDI0LjEzMzkgMjcuNDM0NCAyMy42Mjg4QzI3LjQzNDQgMjMuMTUwMyAyNy4yNjM3IDIyLjgxMTMgMjYuOTIyMSAyMi42MTJDMjYuNTk0MyAyMi4zOTkzIDI2LjA3NTEgMjIuMjkyOSAyNS4zNjQ4IDIyLjI5MjlIMjUuMDEyM0MyNC40NiAyMi4yOTI5IDI0LjAxMjMgMjIuNzQwNyAyNC4wMTIzIDIzLjI5MjlWMjQuMjIzOVpNMjQuMDEyMyAyOS43MDcxQzI0LjAxMjMgMzAuMjU5MyAyNC40NiAzMC43MDcxIDI1LjAxMjMgMzAuNzA3MUgyNS42MzExQzI3LjI0MzIgMzAuNzA3MSAyOC4wNDkyIDMwLjEyMjIgMjguMDQ5MiAyOC45NTI1QzI4LjA0OTIgMjguMzgwOSAyNy44NTExIDI3Ljk2ODggMjcuNDU0OSAyNy43MTYzQzI3LjA3MjQgMjcuNDYzNyAyNi40NjQ1IDI3LjMzNzQgMjUuNjMxMSAyNy4zMzc0SDI1LjAxMjNDMjQuNDYgMjcuMzM3NCAyNC4wMTIzIDI3Ljc4NTEgMjQuMDEyMyAyOC4zMzc0VjI5LjcwNzFaIi8+JiN4YTs8L3N2Zz4=;" vertex="1" parent="XB9ZX82qE_2Oj1gt79N6-14">
          <mxGeometry x="218" y="335" width="40" height="40" as="geometry" />
        </mxCell>
        <mxCell id="_G-yfWp5dFgnprR01KAw-12" value="pocketbase1.aws.domain.com" style="text;html=1;align=center;verticalAlign=middle;whiteSpace=wrap;rounded=0;" vertex="1" parent="XB9ZX82qE_2Oj1gt79N6-14">
          <mxGeometry x="270" y="255" width="160" height="30" as="geometry" />
        </mxCell>
        <mxCell id="_G-yfWp5dFgnprR01KAw-13" value="pocketbase2.aws.domain.com" style="text;html=1;align=center;verticalAlign=middle;whiteSpace=wrap;rounded=0;" vertex="1" parent="XB9ZX82qE_2Oj1gt79N6-14">
          <mxGeometry x="270" y="345" width="160" height="30" as="geometry" />
        </mxCell>
        <mxCell id="_G-yfWp5dFgnprR01KAw-16" style="edgeStyle=orthogonalEdgeStyle;rounded=0;orthogonalLoop=1;jettySize=auto;html=1;entryX=0;entryY=0.5;entryDx=0;entryDy=0;" edge="1" parent="XB9ZX82qE_2Oj1gt79N6-14" source="_G-yfWp5dFgnprR01KAw-14" target="_G-yfWp5dFgnprR01KAw-10">
          <mxGeometry relative="1" as="geometry" />
        </mxCell>
        <mxCell id="_G-yfWp5dFgnprR01KAw-17" style="edgeStyle=orthogonalEdgeStyle;rounded=0;orthogonalLoop=1;jettySize=auto;html=1;entryX=0;entryY=0.75;entryDx=0;entryDy=0;" edge="1" parent="XB9ZX82qE_2Oj1gt79N6-14" source="_G-yfWp5dFgnprR01KAw-14" target="_G-yfWp5dFgnprR01KAw-11">
          <mxGeometry relative="1" as="geometry" />
        </mxCell>
        <mxCell id="_G-yfWp5dFgnprR01KAw-14" value="nginx" style="shape=image;verticalLabelPosition=bottom;labelBackgroundColor=default;verticalAlign=top;aspect=fixed;imageAspect=0;image=data:image/png,iVBORw0KGgoAAAANSUhEUgAAAwAAAANxCAYAAABT/97qAAAgAElEQVR4nOy9fZRcVZ3v/dnVL+k0nVeSEEIIGEKMISBvAiJG3vQymPEisiLjoMsXSHd4Uy6Xi1kxhgw3NxNZyKBCuiMyyDBeHoZnhoeHUZbj8LgYL+M4yEVWROTyMNw8CJkYYowhNE2n9vNHdXWf2rX3qVPdVV3nVH0/a/XqXXt/9q5TL2ef32/XqVMGIYQQzct2cli6sZwBnAecDiwF5mHoBoaw7AFewvAzLP8A/BTLQdaSb+CWCyGEqBOm0RsghBCiDvTTiWE58AXgUmABAJbymb9YZ0duG3ZieQDDt4Gd9CoREEKIZkIJgBBCNBPbacdyMpabMHwMS5d3pvclAuX1e7DcAWwH9tBXly0WQggxySgBEEKIZmGAhcCNwOeB6SVtY6v7Y7cN8YkAo84LwCYMj9LLwRpvtRBCiElGCYAQQmSdfqZjuBzLOuDYkpk9GuD7ym4CEPIhD/wIy2baeIqrGK754xBCCDEpKAEQQoisMkAnlnOB9cA5GHKTcK/7gQeB25nFi6yehHsUQghRU5QACCFE1ugHYAVwE3AZ0F3yJd4ipV/sLWA9bdX6hfJO4C7gXvrYM85HIoQQogEoARBCiCyxnXlYrgHWYJmfIFAPnwI0cT+P5VkMWzE8yhoGJ/z4hBBC1B0lAEIIkQUG6AJWAzcDy7Ajp/uEAnT3P5H2WvswCPwQy2YsT+v3A4QQIt0oARBCiDRzNznaOAvYBKwEOoHw6rzbhqeuXj7sw/AAli308VqFRyaEEKJBKAEQQoi0so355NgEXAF0V7yij0sj/ML/17Bs5RD9XMNQ7GMUQggx6SgBEEKINDEAGDrJczWwAcPsqvqHgvXJ9/NYdmC4EcuP9CNiQgiRHpQACCFEWhigHctHMNxO4Tz/MXxX7YlrS4+fBx7BsB7Li/Tp+wFCCNFolAAIIUSjGSCHZTmGzcDFQHtJe3pW9Sfi78dyN3Anbeziqir6CyGEqClKAIQQolFsBywLgeuAPmB67HX4o7eLdVnz4WUsm4GHmc1+/ZCYEEJMPkoAhBBisrkFmM90DJdTuKznYiD+y7Z42rLr54GfAJvI8xPW6ovCQggxmSgBEEKIyaSfTgqX81wPrMSQ81xXvxS3vnn8QQwPYbkN2KEvCgshxOSgBEAIISaLfpYDN2O4DEv3aH3o1Jm4H+dqJt+yG0M/lrvoYzdCCCHqihIAIYSoN/3MAa4G1mKY7w2GK/3ibrP7BXYAWzH8Lb0cRAghRF1QAiCEEPViO11YLsNyM4blWHJlgbHv1Bj3dmv5Q8CPgc208xO+oMuGCiFErVECIIQQteZ+crzFWcAG4HygEwifJhOiVf1Cn/3AQ1i20sdLMb2EEEJUiRIAIYSoJdtYhGE9hsuxTK8Y8IYvlym/4LwG3Imln7Xsj7GFEEIkRAmAEELUgrvpJkcfcCOwIDi7VloFl+/z81iex7ABeIxehqsYUQghhIMSACGEGC/3AHly5LkQuA1YAeTKPPeLsJWQH/KGgR8BN5PnOdZWcR9CCCFGUQIghBDjoZ8csBTDViwf817dxnclnNCXYuVX4w9huQfDJnLs5iqEEEJUgRIAIYSohvuBQeaR5wYM10Pkev6+gDUO+RP1dwGbsdxHHwcqjCaEEGIEJQBCCJGUAXqwXI5hHbC40ZsjAMgDT2PZiOHH9DLY6A0SQoi0owRACCEq8W06yXMOhct6riR6nn/cSravTX69/CHgESxbgOfo0+8HCCFECCUAQggRYoAclmUYbgJWY0dO9/F9adV3eUtfWX69/T3AdmCAIXZyPUIIIRyUAAghhMstwHzmA1diWAssGG1L7wq4/NIvFL8A3I7lIf1+gBBClKIEQAghotxNFzkuBW7GsAI7crpP6Eo1eMry0+HDMJanMGzmHX7EtTotSAghQAmAEEKMMcBZI18mPR/ojA0yVc5OGQ5geRTDJnp5ESGEaHGUAAghxACLgJuBK4DpDd4aUT92AdvI8y3WsrfRGyOEEI1CCYAQonXppwfD54GbgIVl7clWl+VnybfkgReBzeR5iKsZ8owkhBBNjRIAIUTrcRc52vkIls3AyZjIZT2jxH3hVH62fcsw8BMM65jFT1ldxf0IIUTGUQIghGgdBgDLcuBWDKuwdAKlXzCN4rsCjfxm8wexfA/LRnK8Sq/HE0KIJkMJgBCi+RkAYB5wI5arMfSUOdEAMcnMKL/Z/L3AFizbsexnbYIxhRAioygBEEI0L98EOujGsBrYCBzb2A0SqceyA9iA4XF6GWz05gghRD1QAiCEaE62047lbCybMJw7en64e554pS+Uym9FPw98H8tG4Fn69PsBQojmQgmAEKK5+EtyDLGEwmU9PwV0NXiLRHbZj+Ve4A6G2Mn1jd4cIYSoDUoAhBDNQz/zgCsxXAfMB8q//JnkUpLy5Zf2eRnDHcAD9LIvYAkhRGZQAiCEyD79dGP4GIVV/5Ow5LyndxSJXh0GwqeDyJc/5ueBnwJbMPyQNfr9ACFEdlECIITILtvIYTgLWAdciBk53ScauKmscm3LB4FHsWyljee4St8PEEJkDyUAQojsUbis57FYbgSuAGYG3SSngciXX72/B8O9WO5kF69xS8wYQgiRMpQACCGyRT89FM7zvwFYBMSfv+1Dvvxa+JY88DKG24D7ddlQIURWUAIghMgGtwDzuRjYBJyMob2xGyTECJZhDE9jWU8fTzR6c4QQohJKAIQQ6aefpcAWYBWGTqDyFztx2uTLr78/iOFhLBvp4+WAJYQQDUcJgBAinWwH8swEbgKux9ADlAdglU7fkC9/sn3Yh+F24BsY9rMmxhdCiAagBEAIkS5uAY6kC1gN3IplUVkABvFf5pQvPx3+S8AG4BFmMchqzxhCCNEAlAAIIdLDdtrJczawCcNKLLnRNvdUDB/Rq7nIl58G35LH8ASWDRieppfhwGhCCDFpKAEQQjSefnIYllD4Ia/Lge6Sc67Bv8oarZcvP93+QQwPAFuxvEKffj9ACNE4lAAIIRrHd4Bh5gGfxXIDMN97vrX1dR5Bvvws+fAacAdwL33sjekphBB1QwmAEKIx9NOFYRWwActJJSurMBZY+VZZrVOWLz97/jMYNmP5Pn36/QAhxOSiBEAIMbncQ45DnI5lPYaLQdfzFy2KZQh4HMMW8vyMtTotSAgxOSgBEEJMHgMci+UGDFdgmT1aH1o5dWeoSiut8uVn0Ye9wAMY7qCXVxBCiDqjBEAIUX8GmI7lsxi+CCwG/MFS8bYvcJIvv7n9PPAKcCeW+1jLfoQQok4oARBC1I8B2oGPULgW+um4p/uEVkh9q6Xy5beGPww8A2wixw+5SpcNFULUHiUAQoja83WgmxUYNgEXA10V+4SCJPnyW9MfxPJ9DBsZZgfXVDGWEEJUQAmAEKK2bGM2hpuBNRhmAvEroBA+TUK+fPn7sfQDW+hjn2cUIYSoGiUAQojaUDjd5zNYNmFY6D3X2QZ7lzvy5cuP8hqwnjYe0GlBQoiJogRACDExttNOnrMw3Aacleg8aJVVVnm85Z8CN2H4Kb1KBIQQ40MJgBBifGwjh2Exhg3A5UBnozdJiKan8KnAEIYHgS1YXqRPvx8ghKgOJQBCiOoYACzzgCuBGzDMGW0LnfbjnuMsX778ifmF/3sw3Ancw9vs4nqEECIRSgCEEMkZoAdYBawHVozW+4KVOOTLl18737IDw1YMj7CGA1WMLIRoUZQACCEqcw/tHOIsCoH/hSS9nn8I+fLlT8wv/9RgGMsTwGbgKfr0/QAhRBglAEKIMIXTfZZguJHCef6ll/X0na6QpE6+fPkT94uUJgT7sTxIjttYw0sIIYQHJQBCCD/9zMRwJZbrMCwCkgUmUeTLl187v0hpwB8a7zUsdwD30sdehBAighIAIUQp22jHsArYAJwM5Era3QDFrXeRL19+bfwibrAfSiYgDzwLbMHwKL0Mee5RCNGCKAEQQhS4BZjP6RQC/48AXcEgw1eOC0rky5dfG7+YFLhjxJVhEMOPgE28ztPcghCixVECIISAAeZjuRn4LDCzLNCAcFCCpyxfvvza+6VBffIj+Ji/D8v9wBb62JWwtxCiCVECIEQr008XhaB/HYaFWHKJZoXQKqZ8+fLr58clDaFxXL9wWtAuYDOGe+llMMEWCSGaDCUAQrQaA0DhMp4rsdwGnIxxzvO35d1G8c0a8uXLnxw/9EmC2zf0acOYn8fwLJZ15HiCdxjmmpjtEkI0FUoAhGgltpEjxxLgVuAyil/w9Z1yUMQXYMiXL78xPo5Tqa6ynwcexbIOeJE+8oERhBBNhBIAIVqBW4D5zAFuwHAtMB2IDzCKRAMH+fLlN94vOm5QH5dgVPYPAn8B3Mnb7Ob6mG0QQmQeJQBCNDsD9ACXYVmPYclovRt4VJoN5MuX31g/yThFr0g1fiFJeJnCrwk/RB8HEvQWQmQQJQBCNCv9dGI4m8JlPc/FvZ6/ECJ7xK3o18o35LE8iWEzlifp0+8HCNFsKAEQotkonOe/DMuNwOUYukfb3HOLo8StOMqXLz89fqjOd4rPxPwDWB4GbifP81yt7wcI0SwoARCimehnHnAlcA2GBWXtSU8hkC9ffvr8RtxnITl5jcL1w7azi136ITEhso8SACGagW10YbgUuBnDCuzI6T7uSp/7n0i7fPny0+0TuO1SD9+SB54HtpLjYdbo9wOEyDJKAITIMtsBy9nARmAl0BU82FcKMuTLl59+v5Ln61dbfwh4Essm+vhJwlGFEClDCYAQWWU7C7FsAC7HMj24WuhSqV2+fPnp9Rt1v+UJywEM3wO20MsrVYwkhEgBSgCEyBoDdGNZg+EmYMHoih1U3qPTFszIly+/OkIr9NH66Lj19mEXljsw3E2vLhsqRFZQAiBEVhggh+ViYDPF8/x9pwT4EoLQ6QOqV73qs1Xv28+jLk775Ph5LM8DGzA8Sq+uFiRE2lECIETa2U6OPMsxbAYuxtIO+Ffsyj+m9+/lcat/8uXLT7cfamu8Pwz8CFhHnudYq0RAiLSiBECItNIP5JhP4Xr+fUBP2SpdEV8AkeTgXm2wIV++/Mb67r4exTjtjfMPAvcAW7G8xlrP4xBCNBQlAEKkjW8DeaZjWU3hV3wXxR5sfeW4YCLJaqN8+fLT6VeiGrf+/qtYNgPfA/bTV8X9CCHqihIAIdLEAJ0ULue5CTi7rD3JqqCv3m2TL19+9vyQ5/OjNN7/GYaNWJ6gj6GALYSYRJQACJEG7gLaWI5hPZbLMHSOtrkrhNFyKBmI27PTtUIoX7788R6J3YQglGCkwx8GHsayBcsOfT9AiMaiBECIRtPPAmAtsAaYVxLog/9gWqy3kf+uX2Q8nxrIly8/vX4WtjHkW/YA2zFso5dXPb2EEJOAEgAhGsUAPcBlwM3AspKDaGjVP9rmq4v7ZICI6+snX778dPtJEv4s+JAHXgRuBx7U7wcIMfkoARBisvk27eRZCazDshJDZ9kB1BfQ+5KCkO/2LeIGG25Zvnz52fRDpNmHIQxPAVswPMEahmN6CiFqiBIAISaLAQCWUljxvwyYHhu4T6TsBg+hOjyOfPny0+tHCQXcPjfNPhzA8rcYttLO83zB4wohaooSACEmgwFmYrkWw1pgQfAA6a72hUji+wKJ0G358uVn1zee/9n0d2Ppx3AnvexFCFE3lAAIUU/+ghxdXAZsxLAMyI22xa3wVTpwVvJD7XHIly8/G350P/f5vv7Z8fMYXsayiSl8j8/pakFC1AMlAELUiwFOAu7AshJoL2v3Be3R+on4oT3bPQBXQr58+enxff2r6ZstfxjLUxhuoJdnqhhVCJEAJQBC1JJtgGE+hg3AlVg6Y/cyXxBfCz/uEwCVVVY52+UkNINfcIew3I9hE/AqvQn7CyFiUQIgRC34OtDNdOCzwHoM8xKthrkr+rX2hRDNRWgOaP7ybmArcC+wT4mAEBND4YMQE6WfLuB8YBOG00dXumBs5c49mFn81MqvplztOPLly2+c7yM6TyT5tCDb/rPAJiyP08dgYEQhRAWUAAgxXgbIYTkJ2ACsgpHTfdyDdehg5h706uW7dT5Xvnz56fej9TZS5wuem7t+GMtjGDZjeFa/HyBE9SgBEKJa7gbaWARcQ+E8/9mAPygv4q7w1duvZtXNHVO+fPnp9n3zgg2Um9vfh+U+4A5gJ30IIRKiBECIatjGdHJcDtyEZUlZeyjwdgP2yfbjDrKhFTf58uWny/fhC5ZbzYdXgNsxPEAv+2J6CyFGUAIgRBLuop02zgc2YDib4vX8o8F46EDmHuQny8fTFjeOfPny0++7Zd/tVvQhD/wMy2ba+CFXMVRmCCFGUQIgRCUGWI5lPfAxDD0lK3Q+oqt40fJk+0mShUoHWPny5afPj2snUG4d/yDwfSybmc2zrEYI4UEJgBAhBpgHXIflSgzzvQekaPDtO6A3yvcdLN1yCPny5afTj9529/XQWK3r7wbuA+6kj9c8phAtjRIAIVz66cKwGrgZWIYlV7anhIJv32pVo3y33Q0iisQdROXLl59eP24eUD0Y8lhexrAVw/dYw0GEEIASACHGuIcchzgL2ILlLAydgH/FLnTgSaMf8pLch3z58tPjh+qi47l18gGGsfwU2IDlSdaSR4gWRwmAEAADLARuBS7H0gVUXm2qFHw30k+yZyf15MuXnw7fVmgXlRjC8DCWdfSxs9EbI0QjUQIgWpeHgN/TQ55rsdwMzGz0JtWU0Eqiry0UfMiXLz89vqgNlgPAbVi+zhAH+GKjN0iIyUdTjGhN+umk8Ou9WzGR6/n7VtWLt30H67T7vvr4j8rly5efZt9XT6DdRb7b/iKFX3J/lD4GK4wmRFOhBEC0FgO0Aydj2QhcDCNf8E1yYPEF32n3Q4GGdfrJly8/O36U6L7vjudDvvvc54EfYdgIPE0vw4GRhGgqlACI1uA75HiHRcANGD4PVVzP3z0YZ9EPuW7QIV++/PT7oWQhNDfIT+IfBO4Hbgdepk9fFBbNjRIA0fwMMBu4ArgBy7Fl73rfgcF3AMma7yNuhVG+fPnZ8OOISzDkJ/FfBe7EcD+z2K0fEhPNihIA0bxsowvDRcDNGM7Akkvct/EHoYn5xT5QniCorLLK2Sz7bvuI6y+/sm/JY3gG2Eqex1ir7weI5kMJgGg+tpPDciqwDsvFGLrKgufyCb/8IJtl323z9VO96lWfrfpim3U8G6n3JQvyx+sPYXgcyxbgZzotSDQTSgBEczHAAuBG4DNY5pRM+u6B1Ecz+UWSrizKly8/O34ST36t/H0Y7sdyG328GughRKZQAiCagwG6sVyB4WZgcWwQ7KtrNj8Od7VLvnz52fTdcmgBQH5tfMsrwO0Y7qOXAwiRYZQAiGxzPzkOciGwkcJ5/u3eyds6/UIrQc3k+xwqlOXLl59eP7RvqzyZ5WHgGQyb6OBxPq/TgkQ2MZUVIVLKAEux3IphFZbukneze0CNC6Kb0U+KfPnys+VXSh6iQav8+vgFBoHHgI308jxCZAwlACJ73M1MctyI4VpgZsUVsiKhyb0Z/dCebZ0297Z8+fLT67t9fbhzgvz6+YW2fUA/lq2sZV9gFCFShxIAkQ2+CXTQBawGNgHHVly5aeVyNXu2fPnys+1TRR/59fJfBTZgeZB2BrkyYX8hGkTy66IL0SgGaKeTc4AfAN+lGPyHqGZFvFl9X9l6yu448uXLT6/vutH5ITSG/MnyFwJ/CfwjhziXfto9IwiRGvQJgEgvdwM5lmBYR+EKP51YSle54yZs12sl34fb5o4tX778dPsuvjki5MqfPB+GgQeBTeR4mav0RWGRPtoavQFCeOlnDobrge8AH8DQVhL8Rv9Hiba1ul/Exni+PvLly0+nH8U3hlsvvzG+JYfhJOBTWDpZxQs8xpsIkSJ804oQjWOAbuBjwHpgRYO3pjkJBRTy5ctvDt9dvZbfOL/ADgq/Jvwoffr9AJEOlACIdLCNdgxnYVgHXAh0AvGTra9Nvr+tWI6rky9ffrp9kWWGgCdGEoGn6GO40RskWhtNKaKxDACWJcANwKcwzGzwFgkhRPoJJQWqT3d94bKhDwJ3MMSLXO9xhZgElACIxjHAbCyfBa7DcGysW+0KmHwhhBBpxbITuAu4hz72NnpzROuhkEFMPgO0UzzP33ISRpdLqwtJkoJqTzOQL19+unwoP2VIflb8PPAcsJl3eIRrdVqQmDyUAIjJpZ+Tgc0YzsfSlapV8VbzhRDNSdrmGvmVGMTyYwzr6OXZqnoKMU4ULojJYRtzyLEeuBLoafTmtDS+LxnKly8//b7rRFeUfXXys+XDAeBeLFvoYxdC1BElAKJ+3AW00Ql8HtiAYUGig13UQf6EfbdfUuTLl58+P9QvWh8qy8+GD68Bm7Hci2GQPk9/ISaIEgBRHwqX9Twf2ILh1Iq+jZSTrprJHx9pDWzky5dfne/r664yy8+uD88CNwNP0KvvB4jaogRA1JYBcsAyYBNwCST4gm+aD7Dy5cuXn2bf1y/JGPKz4VuGgUeAjVheYC35CiMLkQglAKI29AOFU3yuAa6meD1/3yQXP9nJr6Xv66d61as+m/VxK8hFjNMmv1n8fRSOtHdi2cVahJgQSgDExPg/gN8zHctlwDpgyWhb2lbKWsmv1kW+fPmZ8BudhKi+0UngSxi2AA/RywGPKUQilACI8fNt2jnESgwbgJVArtGbJCL4Pi1wy/Lly8+O70sO3LrobfnN6ucxPInlVixPslbfDxDVowRAVM8AAMuBm7CsxtAdPIiFkF9fP66/jZQrBSHy5ctPnx+3r/sCRvnN6VsOAg8Bt/E2z/NFhEiMEgBRHf3Mx7AGWAvMB9IfDLeqH1pBTBJYyJcvP71+9H8l5LeC/xqGbcB2etmdoJcQSgBEQrbRRY7VFFb9lwO5igewKEkOePLr47sHk6SBh3z58tPlu07SMeS3gp8Hngduw/AQaxisMLpocZQAiHjuIkcbZwMbgZUYOhu9SaJGJE025MuXnx4/6oX6hBz5reAPAT/Gcit5nuJqXTZU+FECIMIMcCywnsJ5/tMbvTmiStISsMiXL78+frYCU/mT6+/H8BCWzeziFW7x+KKlUQIgytlOD5ZrgS9iR87zj34EGf1Y0oeV33Afj+seNHwHFPny5afbD/Wr1C6/9fwCuzDcAXyLXg4ixAimsiJahn6g8Ou9W4ClmJHLeroTjA/fwUt+Y/20bpd8+fLH79tI2ZckRNvkyy+QB14EbsLwGL0IoQRAAAPksKwAbgcuBMonm2JdlNDEIz89fiigcMvy5cvPji/E+MgDj2NZh2EHvfp+QCuj6aSVuZscbSwAbgLWAF1A+YEmekDyIT99ftLbvqBCvnz56fWj9UVM4LZvHpEv33IQw3bgdgyvsUaJQCuiBKAVuQWYz0wMVwA3AwtL2uNWmqo5QMlPlx8KPEKOfPny0+fHjeFDvvyQDzspnPL7ILPYx+oKfUVToQSg1dhOF5aPYFmP4XQYOc8/SpqDWPnJ/KT1SQ4e8uXLT5eP4+m2bo//dh7DT7HciuHH9Or3A1oFJQCtQj85DCcD64BVFE/38ZFkFUF+dv3Juh/58uXXzxeillgGMTwCbOUQz+n3A5ofTTfNzjbAsAi4BrgSw+zEfdN2wJNfne/rb/Fj5MuXnyk/tK+7Zfnyq/FhD3APcBe9vIpoWpQANDP9dANXUPiS7xLvhBAiNIHIz4aPp0+lg4J8+fLT78f1880T8uWPz38J2ILlIfo44BlJZBwlAM1I4bKeFwIbgLOBXNmBIwnys+0nCSpC/eXLl58+P0RonFA/+fKT+cPATzBsJs8TrNVpQc2EEoBmo58VGNYBH8PSk/gVTnswK786P7RaiHPbLcuXLz+9vuZz+Y3wLQeARzBsppcXqhhJpBglAM3CAHOAG7CswTCn0ZsjUkqSlUf58uWn0/f1j0sg5MuvlV94r+4CtmH4Br3s84woMoQSgKzTTydwOYYNwGLsyOk+UarN/kVzkrZgRr58+dWv6mchWJTfzH6ewvcDNmJ5mD6GPaOJDKCwMIvcAswjR44zgK3AORjnev7W0y/0akcPLETK8rPtuwGG+55wJ3j58uVnz/f1IXBbvvxa+YVE4EkMN2F4Rr8mnD1CIYZIK9uBPIuATRiuwNIOxB8wogGijWmP4h6M5GfTj9vDfe8X+fLlp9evtH+H5gv58uvnD2O5D9jEIV7lGkRGUAKQJQaYCVyN5UZgdsWgz83q3QQgrq+vXX62fF/C4JajfeTLl59uP4qpwpUvv/7+HmALhnvoZX9gFJEi3PBBpJEBuoGLgU1YlnuDPijdQaNtca+yL2CEcB/52fJDfZMgX7789Pm+fr55H/nyG+I/C2zE8EN6GUSkFiUAaWYb7eQ4HViP5SIYOd2nSDQQ9AWFLm4GX03QKD97fhHf+wTC7xX58uWn24+b50N95cufLB+Ggcco/JDYM/qicDpRApBGvg3kWYLli8BnMEwvc9xAr1KQGPV848SNKz97vhssuEmB6/r6ypcvP32+b//39XPb5cuffH8fcB9wJ/AKfYgU4YYXotEUrud/BfBF4NiSnWyiZb3arUMogQg58uXLT78fShpC7S7y5TfGfxm4A8MDrNHvB6QFhYRp4dt0kudjWG4GTsW9rGeUuBWhSn41r7j87PqhviFHvnz52fVDfeTLT4sPw1h+BmwBHtdpQY1HCUCj2QYYzgDWYbgIS9doWzTId/G1VfIhfie28pvGjwss5MuXn13fxHhE6nFuy5efDv8glu+T41bW8ByiYZjKiqgbA8ynsOL/WQwzR+srTf4u1fq+fqpvvvoQvslZvnz52fLdchJHvvz0+HuxbAfuoI/dHkvUGSUAjaCfLgpB/zpgEVC+o0QPClD+So3H99XHMd7AUn76/HQeAOTLl1+Nb5360HFBvkvvgIcAACAASURBVPws+JDH8jKF3w94gF6GEJOGEoDJ5Ovk6OZCDLdiOZXoZT3d4N13UIjuXOPxK5GlgFZ+8oA/rr58QpYvX35afbePyio3QxmGMfwUWM/rPMktiEmgmnBDjJfCef7LgFuBj2HoLGm3I//diT90MKiH72tHfqb9UF1oIpYvX372fCidC2zE9c358uWn1YdBLA8DG7C8wlpEHXGnGlFLtgOWOVhuxHAtlp5YP7Tz1MoP9XF3SteTnz3frfP1jZuk5cuXn17frYtDvvzs+fuw3EGOb2HYy1UVxhDjotJLI8bDXUAbPcBlGDZgWTza5k7gLnGBXS38pFQ7hvz0+aGJWGWVVc5m2d3Pi/O/iZTx9JMvP4u+4QUsmzA8yjAHuQZRQ8LXmhfjo59O2liJ4f/G8JfAYgyM/hWxkf+W0jd+vfxovzjcvvKbx48GEkmQL19+enzjuR1NDKK35cvPug/LMPw18H/Rxll8O/K9STFh3KdfjJf7gbdYCqzDcjnQ5X2jh24X6+rtF+tCvtsuP7u+2883RpwjX778dPnuvh4ayzeefPnZ9geB+4DbeJuXuR4xQdynXoyHAeZh6cOwFpgf9EKT+2T6adgG+ZPjh9qiAUeSseTLl58uP25OcOvky28Wv7CvvArcgeF+etmDGDdKACbCNroxXIrhJiwrMOSCk3oa6vVqCyFE81Dt/C5ffnP4eeAZYCuWx+hjMMHowkEh4XgYoB3L2cA64HwMnSWBd9KstxF+mrJ5+fX1hRDNjW9+iJsD5MtvJh8GgcexbMHwNL3kg6YoQ6FCNfQDhiVYbgQ+hWF68M3pBuDRcqN8vdoiSrXvCfny5afDt5FyksUd+fKb2bfsBR4Abmc2O1mNSIBCwqT0Mx1DH3AdsDD45kwSgKfBD7XJbx5fCCGEaA3ywE7gdgz3soaDjd6gtKPQoRJ3kmMKlwIbMSyHkfP8oXz1PYobhKfJF61NmlYy5cuXX1vft1oqX36r+DAMPIdlA318P9ZscRQSxjHASVhuw3A+0J66N3r1O4YQQohmIW2fLMuXnxYfhjA8Bqyjlxc9vVsehYsuA0CeeeRYD6wBukZX1WFslT3Jinxa/Upe3E4nPzt+XLvvPSFfvvxs+DiO2zeEfPmt5x/A8i3gNix7WVthzBZCCUCRAQB6gM9g2YCJXM/fnYij+Nqy5lfzLpCfLV8IIYRodSw7KZzK/RCvc5BbGr1BjUehBMAAncCFWDZhOD0YRIeeraz7onmJWzU0nnb58uWn23f7+Nri7kO+/Nb188BPsGzE8hRrGfKM0DK0dkh4DzkOcRKwHvgYjFzPv/isxE2+PicrfiXStootv7a+EEII0apYBoEHKfyQ2Iusbc3fD2jNsGEAsCzEcB1wJTA7Ub+0BXLy5U/EL/ahin7y5ctPjy+EGD+W3cCdGO6hjd1c2egNmlxab5opXM//cuBGYGnqVucbvfovmoNqXv+0BTXy5csP+0n27WqPBfLlt7IPO7BsBh6lr3V+P6B1QsR+2jGci2UjcDaGHDA22ULh2bBOv2Jd9M2UZV+0Ju57oNJ7Qr58+en03QSh2Bb977bLly+/kj+M5UcYNpPjKa5q/tOCmj8svAU4khXAOiyXAN1lb4RWLCdBfnP47oTnuqFgRL58+en0hRD1Yj+W7wG308dLjd6YetLc08kA84AvYvk80ct6uvgm3CJxAVVWfR9ZCWblj8/39akUWMiXLz+dvs8pzvtJ7ku+fPmV/J3AN7HcSx97PVbmac4EYIAuYDWwjsJ5/oXTfXxBsokpF704J0t+klc7bYGr/Nr6Qojs45vX4xIE+fLlV+/DMPAcsBnDY6xprsuGNlfo8B1yDHM2llspnOffGXRDgZMbTIfeIFn0IdkrPt6kQX42fF9f+fLlZ8dP25wiX35z+4NYfgRspINn+EKCMTJA8yQA/SzCsBG4HOgGwsEwzu0kgXIz+XF1ccjPli+EaD6qmePly5dfG7/AASz3YriVXvZ4jQyR7XBiAMjTTY4vYbkJw8xgYBzClyTYSLubPGTd9/UJlUP3IT/9vtvu4muTL19++v3QMU5llVWenDLsBjaR4x6uyu5pQb6pKBsM0AlcDNyOZXGVL16yICnqFp1m8d0+cc+b/Gz77ns/1Ee+fPnZ8IUQjcfyLIYbsTxJH8ON3pxqyd60so12cpwM3IrlIxSv518JX8BkHcd4PLcty360Li5Jiksw5GfXjxKXQMiXLz+dftJEYTxzv3z58sfjD2P5W2AThhfozc7vB/imonRyFznaOBa4Afgshp6yAAgqB0eVXtxmrs/Oqy2EEMKl0nFNvnz5jfENe4G7gW3Aa/QG+qSIbISEA8zG8hkKwf+iqrY6yYvXKr7b7kucfI78bPpue+i94dbLly8//X7aji/y5be6D2B4AbgNeJhe9gfsVBB6KOmgny4MFwE3A2dgycUGRm5b0sAoKVn3hRBCZJvQsS9u4UC+fPmT6Q9jeRLDFuBJetP5ReF0ho/95IBTgXUYLga6gHDAW219tX3cBCPLfpI3cWg8+dnyhRDNR5rnHPny5UfLB4GHsWwlx/Os8fRvIOkLFfpZCNwIfAaYDYwFrkV82Zl7u5JfqRylWfwkr3a1AaT8bPjVJgyqV73q01fvO66F+rvHAvny5TfK30XhuwF3p+n3A9KTAGynG8tnsNwMHFvXoCmuX3SiDbU1kx+H/Oby494b8uXLz56fJJGQL19+WvznsWwmx8OsafxpQeMJm2vL3eRo4yPARuB0LO3BJxDKn+i4JzzOT/ICRsdoJt9H0oOQ/Oz4lSYmGyknCSzky5ffWD8N84p8+fIn4g8BT2LZyCye4pNV9K8xjU0ABliOZROF8/y7Y91QQD8e351oo+1xiUPW630HHF+fEPKz4/vcSvuEfPny0+2H5nAX1ate9emut+zH8CCWzfSx09Or7lQKOerDdmZSONWnD5jpdUJPZIjx+FA+sVqPGzcRZ8lP+vxMxnMvv3F+tE/SvvLly2+8H5c0hMaTL19+Ov1C2y4Mt2HoZw0HPb3rRrVhw/jZBkAXhtXArRgWTdp9V8L/opTia2smX/XNVR+ahIokDUrky5efHt9NElRWWeVmKe8A1pHjcdoY5gvUnSTTzsTppx04C9gCnFPxXkMBTC198E+mrVavssoqq6xyNsrR/6issspNVs5j+D6W9cAO+shTR0xlZQIMkMOyGFiP4VNYOmPvMTrhJWG8ftzEWmncrPvjaZffXL4QIruMN3lQWWWVs1GGg1i2A1uZwi4+R12oX5jQzxwMa7DciBm5nn8003Fv20hfN6Clzn4oYIoG1+52Z9V3H3d0HB/ys+lX2tfc9458+fKz5btulOgcIV++/Kz6r2LZguEBetnvMSeEqaxUyQA9wCoKH2GsiL0X38TnluvtuxNrtNyMvtsnCfKz5yfZN4r4Jif58uWn1/f1TdP8I1++/Fr5eeCnwGbgCXoZTDhyRWqXABTP8zesw/IRGLmev5vl+ILTara0lr67fb5sLLTtWfWL+A4scQcb+dnzCbSHEkL58uWn2w8dT91yFPny5TeDPwg8AmwFnqvF9wNC4UNy7gLaWArcAHwKmB6c5Gpzj2KiVBs4ys+eX6xzy5X2Tfny5afXJ3K76MaV3flBvnz52fZhN3APhm3M4lVWM258009yBpiD5fPANTByWU/fg8FTF5oI45xa+VFCrjvZVho7C36l16PSu0F+tvy4Mdz3h3z58rPjF8shPzqufPnym83PAy8Ct5PnQdZywDNKRcYTQsAAncAlwM3AyUCupD1poBLyJqvsTr5xL4TbL8t+UuRn2/f1T/pekS9ffvp8n5Om7ZMvX/7k+ZZhDE9huRV4otrTgnKVFYcBTgf+Dst3gVNLxoh7MD7iHrSNjFcvP9RuHdctZ9UPeW69D/nZ80OvvXz58rPt++bz4n/58uW3hg/tWFYCf4fhu/Sz2NM7SPL1xQHmA+uAzwM9oxsRF0y7Dgn8ySC6LUncarY5zT5On0pjuO3ys+P73Lh9UL58+en3k44ROsbJly+/eX3Yg+FOLH9BX+XTgtzhy9lGJ4YrgQ0Y5o/eWfSO40aJm9is47peqK7Wvuu59aFy1nzf62QrtMvPpl/Jc9vly5efDb/SsU6+fPmt7Ocx7ACuoZefEEM4hOgHDEuBbVjOxZAr2RC3XBwpruz6ldons55Ieyv4qm/+eiGEEEK0HpaDGDZi+QZ9DPmUNm/HfnLAHwH/J4aTMCPhRDGoME6ZCmU89cUxLOGx3LZ6+KFtdLe/GXyfl7Rdfvb8aL0vUYx7/8iXLz+dfvS45luUC/WXL19+K/kdWC7EMJ+P8mP+vjwJKE8AttOO5dPAvcDhZQNH/4fqirdNoBz6705y7gOule/bVl/Z3fZm8ENl33MpP7t+aD+J1hnnT758+en3ibT7brtzgHz58lvVN8Bp5FjAH/P/8BhvR4cpTQAKK/9/guEuDD1lk1F0yGgwHdo4X7ZiIrej/33jm0ny3e2OexxZ932POzqWWy8/m77rRvu4yYOLfPny0+mH6n1jyJcvX37h/0lAF3/Mj3mMQ64C9wNvcQ6WvwPmlLT6Vs7jAmxfeyXf7eeWa+lD+WMJ1RHTllXf10d+8/mhMVzf9/6RL19++vzQ8c1tq+Y4K1++/Ob3YQi4ijYe4KrC7wWMdRlgHvADCtf2DwcQoaA+OlrcxGacdvCPFRqvHr6PNL6AE/UJ9IkLFuWX+N3t3cyeMpsZnTOY1jGNuV1zmTt1LtM6ptHT0UNPew/tufbRrkOHhvjDO3/g4KGD7B/az2/f+i1vvP0GB945wP539vP7od+zf2g/1n3T1mL7KwUYqle96rNVHzrmun1cJyN+R66Dno4epnVMo6utiyltU+jMddJm2kaGswwdGmIoP8TgoUEOvHOAP7zzBwYPDaZi++XLT7UPr2L5EH28PNa8jRyGjRi+WnFg987jgtCoExfQxI1Vz/ponVv2bWvWfVEVs6fM5uieozl++vGcMucU3jPzPSw8bCGHdx3OzM6ZTOuYRptpw5ixJ9paW3LbrbPWcsge4sDwAX7/9u/53dDveGPwDV7a/xLP/+55frXvV7z25mu8+uar7H9n//g3vtL73a1Hvnz5mfBD836ItPnArM5ZLOxZyMLDFrJ0xlKO7TmWRT2LmDd1HtM7pzO9YzpT26cypW0KU9qmjCUA1vJ2/m2GDg3x1qG3+MPQH9j/zn5eP/g6v973a57f9zwv7HuBnQd2svut3VhrG/945ctPk2/pB66jj+FCUz/HAv+KGTn1J+mg1QadcRufcOKome8mOJWe4GbwlRDE0tPew/JZyzl97umct+A8Tph1AkdMPYKZnTNLAnggGPS7CUC1/nB+mN+9/Tv+/a1/58Xfv8jTe57m57/9OS/se4HfvPkb8tX90rcQQjScGZ0zWDFrBe8/4v2cM/8cls5YyryuecyYMmM0uA9RnCN9iys+983hN9l1cBcv/v5FnnjtCf753/+Z5/Y+x5vDb9byIQmRVQ5geR99vGDYBhi+imFTbCDpC/CTBJtJyqH+9fJ97aEEB8/YzeC7+J7DOJrEn9YxjffPez8XHX0RFx51IYt6FjGtY1rwQOML8OMOSrXwh/JD7Bncw8v7X+bJXU/yT6//E8/seYY9b+8Zf2KXJGGXL19++vwk83pocW4S/ekd01l55EpWLVrFuQvO5ajuozis47CSRZHQYohbnoh/YPgA/7b/33j81cd59H8/yr/+9l9559A7DX9+5MtvoP81DOvMyC/9/gLDsuCAcdQ60Pb1h9IHM1HfRnx3W3zb7I6bVX88gWITYjC89/D38ifH/QmfeNcnWNC9gK72rthg3bcK1Sh/cHiQN95+g2f2PMPf7/x7ntz1JL/e92u83yMIvebVvkfky5efXt/Z9SuOVSffYFg+azmfOf4zXHLsJSzqWURnrrMsOAe8c5v7iWktfYA3h99kx94d/NX/+iseevkh3nj7jQk9XvnyM+q/DJxg6OdkDP+TSsRNUG7QnaRcTdIwnm1L4ifZDiJO1n1fvc8JvXky7h/WcRgfP/bj9C3v48TZJ9LT3lN2EPEdQOJO62m0n7d5DrxzgF/t+xV/v/Pv+eGrP+SZPc8wnB8uf59EnxffcyRfvvz0+3Fu8TYJx66RnzM5PjD/A/ynE/8T5y04j2kd04gSWp2Ptofmunr4efK8fvB17v31vfQ/38+ut3ZV9XjT9vzLl1+VX5hHTjMMcD1wJ9Xgm5DiNsDdyEob6N4HdfIrbY/rZN13n4MWYU7XHK5cdiVXvfsqFvUsoi039oUy3wo84A220+4DDOWHeOUPr/DIK4/wvf/3e+zYuwOLTbbPEdMuX778dPju/I6n7yT675/3fjadvomV81fSkeso6BUuhBAK4Cfbt9aye3A33/rlt/jmjm+yf2h/xcebtudfvvxx+XCDYYC/Aq6gEtUE1u6GhPzQpBcao1Z+kv5JH0fW/SRk1J/VOYve5b18acWXmNs1t+QUm+jBAfC2Zd3Pk+cXb/yC7774Xb730vfY+/Zeyk4TquL5lC9fvvwix/Qcw9fO/BqXvutSciaHwT8vAamvB3jlD6+w4ekNPPxvDzOUHyprD5KR10u+fKf+AcMA/wKcUcVw5UGmLznAU58kM3E32N1Pa+H7+vvcuIQjy36o3Zc8ZNDvbu/miiVXsO7kdSzqWVSXL5al3Xc/Odg/tJ+/eflv+NYvv8Uvf/dLhu1w/HNZqU2+fPnp8H23idTV2O9u76bvPX185ZSvMHPKzMSfYkKy+a2Rft7m+eGrP+TGn97IC/teYPTT0zo+n/LlN8j/maGf3wALYgfEafPdUZIgLemkNpFxkwaL0bqkY2Xdd6nUnjE/Z3KcMfcM/vyMP2flkSsrnks/Okxgpb2Z/OLtd+w7PPa/H+Obv/wm/7L7Xwo/oAP+91Ic8uXLT48f7ZOUKn2D4aTDT+KOs+5g5ZEryZlcYZiYVXZ3rsqK/9u3fstXnv4Kf/W//mpsjqxEyo+P8uU7/qttrGIzhvaSRuMZ2Dr1vjsPTVhJJ7Ko525PPf1oH18dTei77UlIsT9ryixuOfUW7vrAXRw3/bhCs2eyb9X64l+baWPZzGX86fF/ymlzTuP1g6/z+sHXOWQPjcjeIcLIly9/8n13oafoJl0wq9LvbOvk08d/mvs+dB8rZq8odHfmm+IcA6WLEu4qexb87vZu/ujoP+KYnmP4l9/+CwfeOVDT51O+/BT47YYBDgE5zxDxA8bdeZIxqmmrt+9ri3uSs+ynPyutyjcYzph3BnecdQdnzjszeJ58pY+Em9FPcvrQW8Nv8djOx7j9udv5+Z6fjyUCQojsUsN5eFbnLDacuoG1y9fSmessaXPnnWg9UNaWRf/pPU/T9099/M83Kl8scZSUHzfly8eQb2MVmyBBZ18AmeQOkyYL1Wx8rf1QcBx6nFn2q00EUuxPaZ9C3/I++s/pZ+mMpYXmkYk7uuodmuSb2Xfbo7ejTkeugxNmncCl77qUeVPn8eK+F9k3tK8gp3PSki+/tf1JnIuPPuxoBlYOcMXxV9Bu2kvmjkqfRBYXHbLuH3XYUfzxoj/mV/t+xUv7X0rlsVC+/HH4po0/5hbv6nFoAF+97+OGqOv+j05k7tjW47ptE/V9bXHjNYvvSwTwtPlImT+raxZb3reFL5/8ZaZ3Ti8M4flo1/0ybLTczH60vVj2fQJQpKuti7PmncWqRat4c/hNXtj3QvkXhaO4r1Gl10y+fPkT9935Hacu7nhYpb90xlK+e+53ufCoC0fP9wf/XFKsD5Wz7k/rnMZHj/4ov3nzNzz3u+cooU7Pv3z59fbbWMUtJY3GKUcHCU1Abl8TaXf/u3U+33Vr7buubwwbqM+678Ot973GKfLfNe1dfGfld/jk4k/SnhtblQpdAadYdlfLm9n39Yn7clzx9uyu2Vy08CJOm3saO363g91v7R57DUKTTHRucOvky5dfWz+6m/uO2b5jRJX+shnL+Ovz/5oz5p7hDYyjq+lxnzo2kz+1fSofXvhh3hgs/Ap7Nc/nKPLlp8gv/QTAHQjP7egA1ql37zSujOP77tc3UdbCD912H39pvJR93/fcQ/nz5b6JUuQvm7GMB857gJVHrvQGvO7HvMV6IHj+ZzP67m33kwD304Oo35Zr4/jpx/OJd32CN4ff5Bdv/II8+ZL79s4PSeYP+fLlj9/3zY3ucTjumJvAXzx9MQ9d+BCnzDmlbI6F8vnFbWtmv7Otk3MXnMsbg2/w8z0/r8vzL1/+ZPmFTwDc97wvoPQF17479W2AWw45oUmw1vXufRunrVl993mJjhFKzlLknzj7RP77Bf+dUw4/paAFJmvf7dAl4JrVL+I779X9xCDaJ+p3t3fzkYUf4b2Hv5d/3v3P/H7o9yN34m5E2WaFFwfky5c/ft9t8/WbgD9v6jwe/vDDnDb3tILuzDu++ShUbla/I9fByiNXsvPATnbs3VHT51++/Mn0/Vf/MZ6Bom3FBMF66qJlAmUTue2220C51r4J1PvGaUbfJa49Bf67Z7ybhy98mBWzVoxVBwLZ6Eq5tXb0div5cWNEPwFwn0vXbzft/Mdj/iP/+NF/5KNHf3REoBR3P4PwPi5fvvzx+245dLwdh9+Z6+T+8+7nfXPfV6hyTjEs1pVsmtPWKv6MzhncefadXHDUBTV7/uXLn2w/5w3o3bJLKDmI3mlS3OyluD3RJCSU4YzXL25n3Pb4JuFm8Su9Pm57g/2jDjuKv7nwb1gyY0nseZvRANl3ykur+b7+vtWtaNnnG2NYPG0xD17wIBtO3UBnW+mlACsuGPheb/ny5Vfv+45t0Tk/bm6t4H/9/V/nw0d9eEw3/ksMlwzvmZNaxT98yuFs/+B2ls1cVqiY4PMvX/5k+4b+kdAw2uAb2M0mQn60PZQMVJsk1Br3/n2PqRn9tG5XjD9ryix+cNEPRlelRGOxWB555RGu/snV7B7cXXlf9r3G8uXLn7jvi1ErjR3wP7f0cwx8cIA201ao9pwq6AbHceVW8v/Hv/8PLvnhJewd3Dvu51++/Eb4hU8AjEe2kbpom/G0u3fgZh5xfiOIPl436HS30/Wy7FebdDXYbzftfGfldzhj3hkFPWYl29fWyn7xdrRPqG81fs7kuPRdl/KDP/oBJ84+0b8vRcvFdve2fPnyx+dH29w/HxX8k2afxG1n3jZ6RTWg7LtDUXzzRCv7HzjiA/zZ6X9GR1tHWd+CXOzs+ZMvv4F+rqRDsVwUjXObSL1b55vUkuCbBJM6tfBNpM0Npl2nGXzXc9tcGuQbDP/lvf+FS469pOT89ej56dGJ2XeufCv7xRUq3wEtynj9U+acwmP/4TE+fNSH/X2i78vi7bi5Qb58+cn8uAN/KKkI+D0dPXzj7G8wu2t2zMZFukTmC/kFjDF84d1f4BPv+oTTuSiEBqfq10u+/Fr6uZIOlnDQHxok7g5DG+WWK214PfxQUuOr9z0fWfV9TtT11TXA/+iij/KVU75SUDyTr/tRbGglu9X9uProgW08/sLDFvLgBQ/y6eM/PXrqQBm+fS5uvpAvX35lP3TgDx3vAv51J1zHB474gHf/dxcg3Db5Y/6Utilsft9mjpt+XFXPf7Wvl3z5tfQLvwMQ7ewGZHHl4m13A4p3EhrLespxSUeUWvhuXZJxmsGPkvT5a4B/VPdRPHjBg8ybOq/Q5KzAxJ2yIr/UjzuPtXh7In5XWxcXHX0Rbw6/ydO/fbrwewG+fU1llVWuTRnK53/3mJbAf+/h7+UbZ39j9JfUR1VTfsphdD5wFxzkF/yZnTOZ2TmT7/9/3+dQ/lDNXy/58mvtl14GtNhQ/CviG9ztZ5y26MTl4hsrWmcj/93+tfCjddG+IZrFr1QXxyT57aad//q+/8riaYvLVl1C52IWkV/6pIdW9YuuG9yP15/aPpUtZ2zhq6d+lY5cR3iuUFlllSdeDrW7x+kYv7Otky+f/GWOmHpEWYIfLfvmFPlh/5PHfZKLjr6o5q+XfPn18Mt/B8BE/tzO7qC+ZCEO6/mD8jGM8991Juq7faNPTMhrFr8S1fapsX/puy5l9eLVZQGvG5yGVmjk4/WKdcX/0fFq4XeYDtadvI7/9r7/xpTcFLxUM1fIly9/fHM4lB6zPVxw1AWsWrRqdD8OzSujwzn7vXy/P6VtCl899avM6JxR3WtX4fWSL78efmkCEBc8RgPMaDJQ/PMF9u7YxvMXHTt039H7qoXv9vMlOJbyJzXrfhxu/wb4R0w9gg2nbmBq+9Sy89xdfAmC/FLcU4Oi9fXw23JtfHHFF/namV+jq63L8yBI/n6RL19+5WNXpf4ev7u9my+t+BLd7d1jzZHz2X2LCr4FCfl+/5TDT+HTx386+PwHkS9/kv3yU4B85eiAleqNp9566hu5euJuE5Q/ee7tZvDjqObAVCf/mhOu4T0z31PeNUFgLN9fXzxguav4bkJRK789187a5Wv52plfY0pb5JMA6/x3y6E2+fLlj5XdubzSGB7//AXn88EjP4hLdD8vlt1P/uRX9o0x/OeT/jOzpsyqyeslX369/PAnAC6hAM4XhEaDfRtwQmO6fqVtGI/va4tOuO42+lZisu6HiHsP1NFfOmMpn1v6OQyll6N0V1x8K+Hywz6UH8yifXy3J+q3mTZ639PLn5/x52OnA1VKuqOOfPnyK8/l7lzqzvMef0r7FHrf00tXW1fsp4dQOoeAPyiW7/ePPuxornz3lRN+veTLr6df/h0A6/lz20N3EK3z7TtRP7Rv+SbFevnRx+f2i7bZJvEJ3I5S6XWrhw/0vaePBd0LygJbd9XFDYDl+/2iM/qSeA5Wvo+5a+V35Dq4evnVbDp9E+2mfWzeqJQwFh358uWHffdgX4kR99TDT+W8I88rO6XFt39D+XwjP7l/cArGMgAAIABJREFU/Yrrx06FHOfrJV9+Pf1cWVDu+4u7E1+W4Su7fijBINBea9/dpqhXnHxNpNwsPp7bUXzPV539JdOXsPq41WVBrm81O1rv3pYfbo8mCiGv1n5HroMbTryBL5/8ZXK5kbWGShNY9L0rX7788vYkZVtebzB8+vhP091ROPc/us/GBbmj/eVX5S/oXsCnjvvUmFDl6yVffr39nFeIUmnAShOUmyT4JjZ3431j19p3t8k4TjP6vv6h1zd0f3Xw/3TJn3Lk1CPHqiMr3kDJxOuucsv3+9G2qJskuail35Hr4CunfIVrl19LzvOBY6FTdEC/Il++fMqPp9ZT7yYQI/ULDlvAqmNWFaqdOcN7V4F5RX4y3xjDNSdcg4m+qFW8XvLl19vPlUi+snHK1d6RO0ZSfAF8Lf1oHzegbnbfLRfHKNYXx5sEf97UeXzyuE+WBbRQHkyWPBT5FX3fKTruwSyUONTS72zrZPP7Nhde5+Ibw910S3l9qCxffqv60f+hZME6fyN15x15Hkd1HxXoVCAU7Mofn79i9grOPuLscb1e8uXX2/d/CdideHyDuROYL8iPm/CifUzkr3jbOm219PGUXTc0VrP4UPq6hvrV2f/Q/A+xdMbSslVuqBx8yg/7PioF9fX0D+s4jG9+4Jt8eOGHRzae8n3WnWfc95F8+a3um8gfAd+dZw10tHXw8Xd93LuQUMS3/8qfmN9u2vnUkk9V/XrJlz8Zfi44AE7ZJdRWrI9OZraCHxq/2Nd66ifq+2OY0iQoOkE3o+97bnxJYJ38jlwHly+5nJwZeRt6zrGMfqmqeHt0ePkVfZe4RKLe/uwps9n+we2cNPukkYZiJ8ZuR7u69fLlyx+b231zvVse+T+3ay7nHHEOSSjuv3GfMMpP5htjWLVoFdM6plX1elX7+sqXPx5/7BOAUJBonbZKA0fromO7fnT8ULl43/XwQ48pOtm62VPWfYh//qPeJPhHH3Y05xxxTsmEGg1k3XPdR4eUn9gvUjxX300Uov0nw1/Us4h7Vt5T+M6Hb74pezCBsnz58v2uZ+HlzHlnMnfq3JK5odInitEFB/nj94+YegTnzPckXzGvlxf58mvsB76VF8EdPHRnbiDou+MQbiJRqW8t/Er9LfH9suiH+rjtvrHq4H/wyA8yp2sOMBZAVjq9pIj8eN+tjx6gooG623cy/NPnns63zvkWh3UcNvLg3I1mrN43n8iX38q+67qeMxUYY7jwqAvL6qpB/vj9jlwHFy28qHAjwetVgnz5dfTLrwIUChyNp0yFehzHLRdvm5iyu/G18n233fpm9Yt11tOO01Ynv920c9HCi8oCxejpJb4VF/nJ/WJd3EfVvkRjMvxLjrmETadvouxLwXHv6ZKB5ctvUd913L7OPDy1fSpnzjtzTI8k627Zh/yJ+xccdQEdbR0jHUYqA69Xta+vfPnj9XNlneIGK5bdrCLuzkOOm2S4/0OJSC1849x2iUuGsuy7+F6ncCxXU39G5wzOmHfGaLN7Oot7eolbJz/ej+KenuO2Ncq/7oTruHLZld5t9lI+lHz5recX53Tjqfcwa8osTph1wtgwkX3VLXvvVv6E/QXdC3j3jHePdBipjDt+V/H6ypc/Xj8XHCQJoSDbOo7Pj+LuV77AsZZ+3BitUu/iJkd19o+bfhzH9BwzGtiGVpKLKypRR35lH0oPQHGn7TTK78h18LUzv8YFR13gn6TiyvLlt6Ifag/1sXDi7BPpzHUG5w/f7ehKtvyJ+9M6p3Hy4SeX+bHxUcLXV7788fq5sonH1ymOUMDpjmOd9mK5uNGV+tXDj26L73EbmstPwiT5Z807i+gPpLgr3EXigkz5yYLwoucenKJJQ6P86R3T+c7K77Bs5rKRTtEBAmUSOPLlN6MfavcdX0dun3r4qYk/ofOtZMufuN9m2jh97uljDTGvl7csX34d/FxJQ5LAOuqEMJHxfBsTvW0qlN2Jr1Z+km1zn5us+3EZoe/1r5OfM7nRyTC6ah0NFKMBpa8sP5k/+jLErGS5Y0ymb4zh6MOO5r4P3Tf6hfDSgZxy8T0XSjzly29mHyof5xirM5jR5Dq6iBDad11Hfu380+acVvH1KmuTL7+OfukvAZvSxlGs579blzQQ9E1oceOG6ibihybVVqgvtvkORHjcOvhTclNKDkrR/8Wyr15+ch8oO3UolCi4q1qN8N83931sO2cbXW1dkQdD+P0bKsuX38y+jfyFiDjtuXaWTF9SpoRWsKF8TpFfG3/BYQuY2TnTIwT+QsiXXyPffwqQW/a/r/31vkzDBuoN/vGt49Ta9znWU/aRZT/6fEQPLKHXpk5+V1uX96AUwjfhyo/33browcl3oGq0b4zh48d+nD877c9oM22lnX0LE6H9Qb78ZvZdrKcc8XMmxzHTjilZMHD/Rrt7yvJr50/rmMaC7gWMVY78n8DrK1/+hOYH7yChCcpXjg7syz7cYNDdqGi/pEzUt85/9/G42+v2y6qfhLg3U438uVPnMnPK2EqIu3pS6dxK+ZV9oOSAFFcu0mjfYLh2xbV8/t2fp+TyoKF9N7RPyJffrL7bFnWMUwY6c53M7Zpb0i10nnoI+bXx20wbnW2dsa9XCQleX/nyJ+K3j3Ysyu7t6OTjC/pd3+dFk4DQvhTXHqqrhR99YkLj+B5PVn2fYwPlOvmLpy0u3HTOC487z11+db57nmrxf5RoAJ4Wf0puClvO2MIrf3iFf/jNP5S/v9392Aba5MtvRp+I68Npmzd1Hu259nItsu/59k/5dfRNoBxXJ19+Hfz4y4Aap0OlAN5tc/smwXr+6ulHJ1nfY3D7ZNnHaY97o/icGvkLDhv7GNQNaisOLz+RD+UHH3c1vtgWOlg1yp89ZTbbztnGibNPLA9+RjtEHzRj7zX58pvdDx3zPHWzp8yu+Omcu5Agv35+oSLy3xe3VPH6ypc/Eb/8h8CI3MZp89VFsYxNWDbihXy33lf2JRUT9aN/lnJ8dc3gV2pzy3Xyj5h6xOik+P+zd+7xllTVnf/Vufd2N91085I3GaQFURFRQUCa5hFMzGfmM5o4PuKDCWr4SFTQgAEF8RGjiAgx2iDvKD7GcXQmo+N89JNMouIrKkp0IjphRPHFCBIFbJDuvjV/3LvvWfWrtXbtfU7VvXVOr/X5nE/tWvu799mn1q6119p17rkcFIavu2jBo/N5vEwemAtlfmrQF37jho24atNV1e/MWv5Dm3POOz+NvLWWlYquWPiHi8Dw3pP3XaVrqne+fX5YCdNeufZ13vlx+AGksOPhrCJWljo5EBaN57LWtk1eS1A0VhvvNPFsM1nukN9j9R4LKgpkrZ0VyTifxkvREoiY9IU/Yb8TcPnxl2PXuV3r8y0I3//S0Tnv/LTy2hqorHnyV7VkUMr3HG80ON8+P6yEaa+FjpU6553vgK9/BYgDRq1Oc17spFLaWgPW2rXJxxxwQfV8Pum8FcRbiULbPID1c+vVnRN2pNaOsfPNPO9IaXrZVx/5AgWefcizccETL1j4ZSDNyWn39lInzjs/pTwURvrgxfKqwaoazk/kuOx8t3zMXs47v5z8oNJQCxy1jqTEEgZmZDnFsUmuC14be8rnmFQeaL4uMZu3wBcolhYl6SBDIGs6TeezeHkuFyXtkbSVPPSBHxQDnPeE83D6YafXd9Rk0ATU7wNtbjrv/KTzpWDlGlCi1q/8SV0OTtlfcNDqfLt8RQx7LdUl2td558fh438ELMUK7JoCxPCGWmAu+8gJ3Nvipa5U6rV+Jpm32qe2a4kPv0rR9HUV1jmfx3OA3ZRA9JVfPViNv3zqX2LzfpsVKKHsvPPTxEu/z2WjX/mUEKj7DG3zwPl2+YrE7JVrX+edH5Gv/yOwFNHaWA4tiMxGpM56byuzaZO3ypw1TROfYmer75b4QfgH1MbXP/i86esiztd5rkuVvvK7rdoNHzj1A3jkro/Mau/iMpWSs6YJ0TYQYuJ8u3xFYvbKta/zzo/AV/8RmNZhKV7auZRYYtCUqWh1/B5d8QXptXbTwHM7S6z3aYsHlnZQtMekWuDrfB4vj7KNtmBNCn/QuoPwkdM+svTLJsMG3IGhd975aeBLxNdTLodm4muE1tdVeGPB+fb4mlj2yrWv886PyA+WGlgdFuKlncs31STF2TVlK13wLLmJ/KTycnJwYreMPH8FRB456JWBrfNpPF9reZSMtkj1mX/K3k/BtZuvxWyx+M+NeL4BVV/F4rzz08Y3lTH0EVxewum+c759viYRezUyzjvfAj9Qg/lUsTKQlLLWjwwWY+Mal9f01gXUxj+pvNY+trh0zGsOlI/Oj8aHo7bTLgNvZvrOF0WBZx3yLPz5MX+OIua4Upyj885PIj/qeu0yGZJrX+edH5FP+yPglOzC0sldjKbspSC2K57Hx8lD7JpMOt8z4d1sALWdb97tdj6NlwE177JrTwomhR9ggFc//tX4o0f/UTURim02aPeE885PMl8aDOk5wbb0nGw73y5fE8NeS7pE+zrv/Kh89Y+AS6UcE21ec6BvDVIG71Y/XfKxpEDWh/K08KnSMd8UtFo7wc6n8VKY1/qdNH71zGpcdtxlOPWAU2t8bS5KHxDzBc47Pwm8bJeo1xJuLUCVfsb5bviaZNjR9a5vUz/QlGowzQFlOGp6S3IC0S4DUI2Vn8lKJqaJb5LcNqO8B1BzmryLwoGf82m8ZOW5bMcyafxea/bCVZuuwuN2fxw1rHU1FM0HOe/8JPGloot1SfdYKMc2Cpxvn0+WTPs67/yo/KByFmukBZRWoKn1U6DOW8lD12VNYmOfJj7lmuRewxGuecwhag7T+Tyed5xiSQInEZPEP3r3R2PLpi3Yb5f9UG0AXdgHOe/8JPFycU/c9JKbBpUulXtK+hbn2+WTJNe+zjs/Bl9NAHIDvNggUkRLHkJZC2jb5C1JHfs08FYyZl2ftnjYAV1wmPKRqvP5vMXw4hWYSeZP2v8kXHLsJVg3u26JRYH8e8F55/vOp65jQuR9xIFpOJe72c53xzdKrn2dd34M3n4CYAV4kaCu8Y2tRKKP5TKBmTQeSAvWl0Evd0Ws3Wt+xOp8Hm89gubH16yfNL5AgRcc+gKc94Tzhj8Pqkmfkm/nnR+Xz5CYjwBQC1Cdb593cembDMya5ZivTcEsj6EtPrCFqOMkh3dcpoG3pEcLmxXsOj8aL9vI3Sj54j4nkZ8bzOH8o87HHx76h1j6eVDerGjyac47P0m8JqV4hWaZwafzy8gr9lrSO+98x/zwZ0BTO5CS6pDC0boPCqPOGlsbfEn1sWRh2ngW2T7V7qPyoZny9RVtF0XbUXG+meev1ATRFqNp4dfOrsUVx1+BE/c7scYk+SrnnZ8U3mIL8ZJY6ldQnF9e3rDXsKHzznfHx/8GQAZ5Wp0W3Gus1p816KCXfcY+5Ci8JdrFSvk8k8RrNo0laW3zYWjKTjZ/r1KWnc/jNUkJpied32v1Xrj+pOuxcf3GxUaoHoF4Auu8833mJSOPEYkFq9J/aP7F+W55UzLs67zzo/KDCigdjwygtWCa6zW9ViePHCRqTi/GjMvzUY61VPSTzsuyZl/utyse1WDOCvzk7rbzeXzlO/JGWeqmiT9st8Nw06k3Yde5XW1H6HrXT6I+iLX2KWXLf/ATxBC0Or88vGk7eZ5gX+edH5UfVAJFwHY4WucpogWhlhRUbmo7Ki/rS3FuBbJ84SaVb5oU3LYrXjYtqr+coO1uOz8azyzvoGvMtPBP3eepuHbztShQ5PkrwHnn+81L0dbAkvSoJgExv8EJtvPt80MIpr0qjPPOd8RX/xOwJlpQF845ebAGIPvgIFULVAuqL1vmZR231S5YMUU8FIZFu65t8sDSrm1wkk27Jc7n8dGdp0WR7DTyz9v4PFz85Iur+r4Fc847PwqfsuCHLmlDgO8Tef/IJNv5dnlVMuzoete3rR8sKWUiIAN2DqBL4gtqw8LZCQfiFhcZdCt8rqOdFt669pwcdckDqmPUAj4Z2Dqfx/NCJfvQ6qaRv+hJF+H5hz4fFeH5aM1Z552fBL5BtCeHnDA3PWl0vj0+STJx550fhR/UQGunuKQ6EKcF11rf3C/Xae00GZePbS42jW+SeU7ANLsuAy8fjbIzDUFtOJfO1fk8Xl7rwDfJNPGzxSze/dR3Y/N+mxcrMTyWqOrUzpx3voe83NiRLwi9xIvq38kAqPkVWed8+/ywEo32yrWv886Pwjd/BYg7lMId8ptwG34Pa3BWf13wO1M5SGGULemIV53joshAlznnm3ltUbIYqZ9Gfo/Ve+C6zdfh8N0OX7gP5OXUfAOo3nnn+8Jra1pBbbjLyJM0WQ6bB853ww8B2PbKta/zzo/BDyqQ1pnsVOpCG82Zsb409HJw2vtr+jZ5ybDEnPSk8z0Vy6E6PxqvteO2HEhPK3/Ybofhms3XYN+1+6JaCduXaOK88yvJF4Y+0oe1kaAlzdqGgvPt8DWJzYNU+zrv/Bj8oKLk3YYC9R0JKIx8w8LQxwat9d3EjcPzWKUUygtTwmtJnBTWd8zzTkpwltoOi/N5vPxaELe1XtPMA8CJ+52Iy4+/HOtm1w39AG9UsL4Qdc47v9K8ZLgsdQnrIe9Oq7vVznfGL0ksRkqxr/POj8gPahUarB2BasCnOTaL0RyfbK+No03eYq3xTgvPNrTql4mXwSwwdJjWjq7z6bzcpdJ2quRrZ+EHxQDP2fgcXPDECzA3M7dYKUHU5zDo3HnnV5JvEmON0AJR7R7SdrGd74ZfqNDVpjjvfIv8oAakOBnNWaU6NllfRjhOKLrkC3Eu20n9NPGynVWnSYu8dIgc6Gp65/P4oNN2oTip2Jn42WIW5x55Lk4/7HQU0imw/9DEYpx3fjl5eV5SWVlvtU2DoJdH55eJb7BXjXHe+Y74+q8AWaJxOTsSnCSEwZT0kn2zA2yTl2PTHO008pak2HGZeP7ahuZonW/mrR0nyXMgvbPwa2fX4pJjL8FvH/DbAkS9zF1au7HOO7+cfJCwxvFml+H3U+4R57vjhwCS7JVrX+edz+UHSwoOkmOdQmG1IBTiTbltIer5xW2LDngus3DdNPBAs90sXVt8GA4FZnIXV3ts6nwer+l4d1z7qszOwj9i9SPw3hPfi8fs/hh9HgPxe8Z551eSt9Y+LmM472OBqeZfnG+XrwJGWeoS7eu886Pyg2iAzB3yUWNDcK8FgcyXdIRxzvo2eCMwNWVa+KaJodW3yYfhUGCmBbZNX4lx3uZlXTjn/rjvnY1/1IZH4caTbsRea/aqzlstMAs+TfOVzju/XHzK2qclF4pIf2LtZjvfHb8knPBxnfPOd8QPkoNh+Qbam3BwL51VofBSApvqzMblC+Kbxsv9TzIvha9L0zxokweiuylSn7L74nyVl4wVGGt97Wz8cfsch6tOvAqrB6sFgDyH6rzzy8VzEqAlBTK5kF0Zu9HyPpH1zrfLDxtyA+hxk3buvPMt8tWfAY2JfINQ5uCuJJ0Uqy7o5Di0D9EmzyLbc3ka+SDhukjbQil3wHNwlhK0OZ/Op+i5752Vf87G5+ANR78BM8WMaEDHUI7dg8473zUffKq1CRPZcCmK+q+KyWNtSM63ytdEs1eufZ13fgx+UAMLpaFsDKov6CX7gKJjTmtXKro2eRBTKpx1D08yr00Ui+mKD4h4TBpzmJJxPo+PLU4xZmfkzz/qfJx+2OkYVoqj5kxZnHd+OfjYeirPyf+yD5H3QwhkYz7H+Rb5mL1y7eu882PwAxWCcs462ZHGkANaqpM8Ozuu43KbvByLNi75OaaFtyaFFLZx23xA6GsrcjdFc67O5/HaNZYiz50vMVPM4D0nvAen7H9K3Xc1zGXnnV82Prb+xdZe1O8L9it8zzjfLl9tDN1eufZ13vkx+MFS8FiNKaodsV7qeI6XpOf2zIf3jwWoXB6Xt4JowL6Y08D3TGJBmuZEnc/jA8eBMScQzi/wa2fX4v2nvB+P3eOxQyAWmGndOu98l3xszSuJkdWF/ofxcoMh6J3vhq8aBLq9cu3rvPNj8APVYcjAUXEmFY4zjkKca/1pfRdKXZe8Ni5rzIWim1Q+6Pllte2KF8JBrbZ763w+Lx8/h/OwSGlJg/ML3EHrDsL7Tnkf9t1l38UK1OdyTJx3vks+5mu1flhN817eD+pwnG+VX6iEba9c+zrv/Bj88D8BazEFZw3hyFmGNtelXuP5/ThjYV2bvFanMVacNQ28dS00Xdu8EHaU2i6386PzVl0oO1/nj37E0diyaQvWza4bzmU5p7kLqXfe+S75gsrs7xX/r8197UlZKDvfDV8Ry1659nXe+TH4YQLAToYbQhw5q5Bvquk1XstOmspt8+GzaVkTUB/vpPOaHlS2rlVbfEAijpQ55/N5fkoQHkvLr8QEzvkqX6DAMw9+Jt549BsxN5iz5zXfA9o94bzzbfKav7X0QuSc5+BU3iPOd8cvScxeufZ13vkx+NmaM0oVGVRy5sGcHFwJqA6wVNp0pZfjKZRyCjOJfIqNZXKRIrm8bEq72fz41Dp3Pp/nwFcuUlznPDA7mMUrHvcK3HH/Hbj6O1ejRJl3T8ij8853wRdKWVkPpF/goFXt1vnO+KGSjtoammhf550flR/+DGiqcICd6tQ03kogrDG1xbsMr418Bb12rdriGaOgzNqddT6fl+eyD23nyvk6v8vsLvjzo/8cv/dbv4eopPgi551vi2efW9Ix0pec77xLDdSDVefb5RdAOmr6HPs67/yI/IAVS8dY4FaQ3uJies5IQlk7LzrgQ7kkTmZIrJ90XtqU+4HQa/OgLT6oxY6sDFq1YJYfqzrfzIeXZLk/1jlf5/dcvSe2bNqCJ+z5hEUQQ2H/Ju8Hzek67/y4PK95EG1iayPqfoLLLM63yy9JzF659nXe+TH42ZoSqHfAnTFj8TE9Ozhm5YDZCY7LS1Y6XP5Msh/WTyKvTQyrzP21yaPqPKXjZNGCXOebeUtSOeeH/CN3fSSuO+k6PPMzz8RdD961CKLux/g+0MrOOz8ur61z2jkJz2ur7Hw3/JJw7MOSa1/nnR+RHywFjyxaY/kCHblsvbjvIjJgTdcWz47XajttfCg32ZfbtsVLlbKDEhPn03lrR1tr43ycB4BjHnEMrtx05cIvA2n+Lzb/nXe+bZ7bBLFiTprb8pwDV+e755dEs1eufZ13fkR+UINKAfKcLcSrSQqjzIzm7LQdkC556zNbbSeVh+DYJgVs+7bJh1P6OgvrZZ2mc76ZD+d8DOWwUFmc81X+9w/5fbzp6DdhbmZuOJfDvNZ8JTC8R513vg1e1mu+3Yozxdw2g1HBOd8dXxGraaZ9nXd+FH5WreCGsaBzVAl9sKOT9Vxuk+c2gYmVJ50P5cI4l7a1rlsbPKpOM7azLXfAnc/j+TG0thslg1znm/lXPf5VS78MNI/5ePIN5dx558fhrXWO64S+ydeyv3C+O74K0rkV08Ts67zzY/CzamAsO5RBHr+RMa/NHQ2Nt96f3yMWyOfyMVYT60JOGi/FYi1pmdccYzjXgjLn83h+DG3tXGmM8zY/W8zi7ce+Hd+/7/v49I8/vQii7meafKPzzo/Cx/xqpI4DVS2I5SdgznfHLzSqq7Lt67zzY/DxXwEq0OyUchKDpj5K1PsDjaFNPrCaA7Zk0nnZTh5LRdcVrwh/3QLA0rnmPJ2P86GNtcutnTufxu86tytuOPkGHLnnkUNQznN5zvXOO98mzzpeszEMPsP81RJeLYB1vl2+Joa9luqcd75jfqBgeqdSVyj68NIcWEn6wHFbUJ3sp01e1kuOk55iynhQ2fBLNemAj+3GhiOXnc/juY2WQDg/Gr//2v3xoVM/hH122ac+z9nXQZwDzjs/Hi8ZqS/puKi3glRro8H5bvglabBXRee88x3yg1qDUryglLU34ACf35gdWUnnkufAlvtqi+e2so322aeJB3Ew9F3x0J0mO1UtGHM+ja8tOoYuVud8vO6IPY7AdZuvq/4y0FIDcWzypc47n8rzmqqtsbzeIj04zQ1mnR+Rj9lO6prs67zzY/ADtUF4lQ1lUFvLibEENub8+P5qk2edNna+gNPAF8TLa8aLTFd8ONV2RqgulJ3P50OCoC1Ush0nFM7n8f/u3/w7vPUpb8XsYPh7ClmO2nnnc/ggcn1Ds17zGQCi89/5dnm9All2dL3r29QPzCBdBnAczFmBXQH9TSXH9TKADHV8D5Ut89rY5GfV+pkmPlavBe9t8qFZZPea65p2u53Xea19UTT/ypDz6fygGOBlj30ZXnnEKxcrofs469x553P5glj5kgmDbCJ8hDWfne+WX5Ime+Xa13nnR+Tr/weAO+EyM9qbF5GyNVjJyGDdcn7j8NbYNV5rO6k8c6ls23xQUeCq7aSwzvk0np8MSB33yYzzefzqmdV4w5PfgGcc/IxFQ6Aq2jkHfc47n8pLHa9poL5Qnc/SP2hl57vlFxR05JiFGeed74jX/xMw63LKWn8aLwcGpRycYkGvNniWFIc7Lbxl29ixTZ6HQwFsLBhzPo+3ytyX8+Pzu6/eHVs2bcGT9nqS7k/lEagGfc47n8szE1nrZBLL85aFWefb4yvSFJtk2Nd550flB7VAOQDcIAR20lHJN+MAXBsED66kMhT9cvKyromZVF6zNwxdxzzvmvDOibb76nwaDwyTA+1Jgkwg+FG286PxB649EDecdAMOXHcghpUYzn0rUZd6551P5TVfbyQRPGdlgstl57vhlyTBXhXOeec74gdmYxYZ2DUd0XCuJQsFcRxItsnL81IpcxuNmVSeJWURapMPQxJBK++sxnZjnU/nYzqtP+fH54/a6yhcvflqbJjbsKCw7gtLnHe+idf8vFxTtSY0Z728/OUlabJXrn2dd35EfrAELLfwe5YN5Tb5Yicu90R4Z9XaZbUPswJPAAAgAElEQVQY59N4Zrmd8+3z//a3/i0uOfYSrB6sRqNYfsx55y1+DJ+vzVnLbzjfPl9t7GUvr2xZ/0dgQUrxsupzJMbHBqrdQ+PwOeOaNr5PYwlNynoja4fV+XTeWny43vl2eQA48zFn4hVHvAIzxYzaZkkKVDctmu4f550fQWLBaFkufHVQ+hLn2+ddXPom8QSgEC+rHojvWmg77y05tZEl9v6xhGcaeMuWKbtNHfDBkQanGXSyXnO8zsd5lljC4Hz7/OxgFm86+k14xsHPQIHC9pEl9HvGeectXquTfp9Y9hHhqynSpwTO+e75JnvVxHnnO+LjCUCqWLvxPIgYYzlES8bhYxJLeKaRl+2WkZffj5Q6S5zP461day1BkG2db4/fdW5XbNm0BcfsfUz8fmnyjc47rzGlYKTfN9rwPNY2FJzvjl+SFHvl2td550fgB7UGpXIu9ZJPkQanVONS2K741M80LfxyvhfxcmfbCq7YuTqfx8uEQNaxnvtzvj1+/7X744aTbsDBux6MIQS9DEPvvPOsLxRdg2gBqrZp4Hw3fJbk2td550fghwmAliXwK0iZ0DknEilsan0bvLbLEksMpoGPXTcri+ySD1UieGW986Px4agFqKGeEwvnu+GP2OOI6i8DsazEvef8dPAJMWZZVr+aIvUa4/zy8EnSt01D56eKT/8KUFMQzWVtV8PiC3Ee67MrPhYcy88y6XyqDwp9dcUDS4EUB08c5MpdVufT+SDyXEsiYkmF8+3xv3vg7+Ky4y+r/1FwzGdp4rzz0t9ra6t2jnogKpNXdSjOt8pXG0fOc+3rvPMj8ukJgDavWacFoVoiIPlY8No1r4nkU9pNOs9cieZAfhx+UVJ3r7XHrM438zI41YLW0Jb7c74bvigKvOTRL8GfHvmnuoOOifPOs3BCIPsxfDL7CGtTwflu+CEojpa9cu3rvPMj8HoCIEGtEy2rKITecmIaL9tZbZltiy/EmOTYg75QmEnmAd2u2jXkSdMyHwImbac7vILIYNf5NF5eZ16YZF/y6Hy3/KAY4I1PfiOedcizFitRlXCvanrnnWe9PLfWu9B1ZN7KsmScb5cfViovKbn2dd75EXk9AdA6LugYE3ZYTRzzy6UHhp+T2YLK08YHVps8fGyTF6I5Tnlu7bA4n8aHnWd+WiDrnF9efu3sWlx14lU4eu+j644aqN/Prnc960uh0xIE1HUyIOXgNMxP57vnF0DUZRz7Ou/8iPwgOVi33iycW/1og2j6ENLhpXzoUXh2qoU4av1OE19SG0s65GXAJB2n5jyDk3U+j+f6VHG+O74oCuy9Zm984NQP4LfW/ZZ9j0i9dp87v/PyhaKTYqzFKXOWk1rn2+NNYXvl2td550fkB41BnSb8BgWqb8blgpimc61d2zyPM0gp9CXszzXJfKrNO+TDI1QZuAY9gKVANzDO5/PWjlRT2flueQA4fLfD8den/DV2X7X7UGkEbhXhjRTndz5ebrQUEZ0iHMDyvHS+W35JYvbKta/zzo/I158AJM7fLMntc7n5vo+vTb5EdTI09dcFD1R2s4PTlAFsrOx8Gh/acJIg9aHs/PLyAHDq/qfi8uMvx+qZ1QsKy5EXkbLzOx8PqufNrohwgNq0Q+18u/wChDR75drXeecz+foTAM4YYJzn6Kw+LR3Xc4DZNp/CTQvPk6GpXYe8DFwBVHZQeBfb+Xw+CCcJQSdfzq8M/6LDXoTzjjxv4edB2XcVDWXndz4+x883iPQdmj9xvlu+IrEYyXnnO+KHTwByAk5ttyLUWY4n1Mn3k7qYYyw64K1dFkumhWfR2qdklePwGAarvIMqHae2y+18Gg8Mg0x5zTU7yKTC+eXlZ4tZvPaJr8VzNz53gdUcOZflve/8zsXL9Y15KaTX5h7PTfYvznfEx+yVa1/nnR+DHz4BaAokJccBtyxrb6b1wzqpt5xjm3xB5abAdpp4KGVLOuK1XVJN5/xofBBeiCTLeudXhl83uw6XH385Nu23CY1i3evO7zy89KvWWmj0oQWpQa/5EOfb5RcqRVmzV659nXd+RL76BIADtpKOlo47TgkCY44u6GWg3gWvjVdrw/WTzMtznhiWrTrm5e6IVXY+j+fFSGunPWFwfmX4fXfZF+898b04bMNhCxD7qKXG0O8j53ceXmvT1C/q/iIapDrfOj9sKBsllJ13viN+UKmwnIw2p2MOSROu5yShVPSFqGuTZ6ZAvT95LKaED2xKYiR1HfLSaUqHyjsrzufxvBilPF1wfmX5I/Y4AleeeCUeseYRiEpCjOH8FPOhPqwB2tpKSUSYYymbDM53ww9PGIYepKXa13nnR+TtnwFN0etz326rDTKUZbLBwS0HlePysTGH/mTQPI28NWmWkZe7pNquqLZz6nwar4mVNDjfH/60A07DpcdeOvxloKUGDZ1zvfPTyfNapzGJCYc2B2Pz2Pl2edVeufZ13vkx+IEKcJkl9gbyJZlSGajWxnrfNvlYMhDqtc846byUFd7FkkHsUpPFsqZzPp/X6lk4iXB+5fnTDzsdr3nCa1CgqPssS6SfdX56+YLYmH9XplzsSZSmc75d3pRgr1z7Ou/8GPxsLWCUIuuKiI71sTfmgWl9rQSvtQsSS4YmjZf2idlUs2ebPFDbzQbqgZJ81Op8Hq+1lXruy/l+8LODWVz0pItw+69ux3/+/n9erFyEYr4XqN5zzk8fr4m15opzzW9IvfQhznfMJ9irIs473xFf/xUgLYDjwE4GdJbjKunIvDzK/i1pk4+11bgU5zsJfLgW1sQpSNclj2FAxAGSfAW98/m8tjslFyXJOt8vfs3MGlyz+Rocu/exi5Uw7yPVHzg/vTyvX7Ktsc7F/ILrl0c/PEHcXrn2dd75EfnqfwKWIEuhlAMfe0NZr/HhXHNyJfS+2+B5HFZwzQnMJPMp0pRYjcsvihW8LnVLu6TO5/NStOSgLKv/pdb5fvEbVm3AR077CA5ad5CogC6W83d+Onle67R25PN5Rzq8LHG+Xb7aWNHJNT3Vvs47PwZf/xuAxPlb6VQL9rV6eR7YkspWuzZ5TVID5Gnhg7C9tISuTV5DRNAqA1oObp1P50M9Jw3WAuV8P/mDdz0YHz3to9ht1W71RlrwGLsfnZ98Pohc62Q/rOcuaP41BbDOt8svVKLZXrn2dd75EfhhAiArpU4raxLqY31owgOzmDZ5TWc4zEr9NPAao9muYz55pwSwHanzjTwnDVLHiYPz/eSP2+c4XLXpKqwerNb9mDxf6kjROT/5fCEYPsb6QnX+pYjz7fLDhnQu7ZVrX+edH4Ov/h8AFk3XJKV4hcFYwWkhOO19Oahsi+exMM9Od9p42U5OGNlGs31bfGgmvg7BX41wfjxeBpHhxTrJOt9v/jkbn4PXPel1mClmhvez9G2WTwyc89PDa/UgXcTnyvkn9fLofDd8TTR75drXeedH5Ae1RtZ8LYhraid5bXAp5aIjXvuMsm3MOU8LL/VaPKnpWuQ1BymDnrBDypzzaXw4ymSBA0spzvebnx3M4jVPeA1edOiL6kGFdu9VOqdz5yebD76e1zurO/Ibla7JnzjfLZ8kmfZ13vlR+UEFZinp1SRWIB502kD5nPsoOuK1cXCiYgWwk8xriwtfF9m2Cx5QHWjMSTqfx8sFSOq0svOTwe8yswsuPe5SnHLAKQuN2NFLXwhxrvlI5yeTL0mnrauyD1TnVkzCfHN+BXhp+xz7Ou/8GPxAdUigshZIhnZakA1Fn8oXhq5NPhz5ovG42ElPOg/Bh6M2QTTbtckzLgIh7ZEqO0/nm/nYgiP7CH07Pxn83mv2xpYTtuCxuz92CMj7jP0ARJ3zk89r6x3idbGnTnKXWpuXznfHm7FLjn2dd34MvvoEoFBg7liey0CvSZgvlXOtjARmFL4pO5KBczElPISOReo4oWibl2oj2LV2vp1P49UFh+q1XWfn+88/ZvfHYMumLdh3l311Hw3Ek3XnJ5fnNY6PyjSS80wGo/yEyfnu+QWFOLK9cu3rvPNj8MMnAE2ir09Vx8VBYYxXspHo4NvmmWWRbbS+J5GPiWTkteuCRzWw4Z1QDobkzorzaTzvRMlrLvXOTyZ/8v4n49JjL8Xa2bUwJfXed36y+MDx+pbih1GfV6xzvlu+0V659nXe+RH54RMAS7Q6Dv5YF2ujBaachGjlNnnJ8sWy+psGnsW6bl3yQqxdT2a0XRXn47y1K2XtTDk/WXyBAi849AU478jzMFvMoiLBH0iH3+TjnZ8cPpXT3krMp2iQ6nwnfJLk2td550fkq/8JmMvBMckAU8ssrEEww+VYhsLZSpu8xfEYm8Y9iXzKQsTJU5t8KCrBj9zh1Bjn0/nAynZW2fnJ5GeKGbz2ia/FczY+BwuGXzio97vmF5yfPL4QjMUZIoPVcM7JJieczrfHJ0mufZ13fgx+UIGaAmgWfqNSKWs6bhvOSyrzq02+aTyxzzSpvDxqbZaDD0X6yoMMdKzgx/l0XitLkYGktInzk8XvMrsL3nPCe3DcPsfV/bTm52Li/GTxsX6UNZDnFOvk/HO+fd4UK2Zx3vmO+UETW5NUByUDQovnQQc2lnC0wWsct4ld0Enng2jXrTD0bfFCeIdEBrua43Q+jw86Fm4rz52fPH7PNXviQ6d+CAeuO3AISb8Y/J7mD52fLL4UPNeXghtRcnesnR+D1+yVa1/nnR+DH1Rg7kAKd6a9YYxlzhp0YTBt8pw4FEpZc8aTzstrAdTtZDFt88DSbqa106k9bnU+necdY61cFEWtP+cnkz9k/SH42NM+tvBHwdI3sG9kPfsS5/vNS9HWOIW1Ngs0Jra54Hx7fMxew06cd75bfmBCllhBtww6IZhS0VuD1HRav+PyVnJi9ct9TDov6zWbSfu2zYei5hQxdJjScZpO1HmT50TAKss+nJ9s/ti9j8XVJ16N2cGs7vDZJ1uLiPP950FMKHMdqnMknANYSiiZcb5bvsleNZ3zznfED38GlIPFcCyrDSpBnyZlAiP7Za4Eas6wbJnnsuWMtb4mnY/ZRGvfBR9wdoxC1+RUnW/mOVGwdM5PD//8Q5+PC554AQYD8e1O2ZR9vbVoON9PXgqvzbwWGhLmDPuWpk0H59vhFyrRbK9c+zrvfCY/UCu4Uw4ouVOQzhoA87EkI9Z3WzzXhXOZwLDznWRe80exBKELPhTL+ldWlrpRHKrzeXzQyURB6yvUOT8d/EwxgwufeCGet/F5qEligOh8z3leY60kQrSNBaPBd1SaO98d32SvXPs67/yIfPVnQDmIlkEkv2Q9B3hyIFwvg1NtUIHTgva2eI2TR8tJTzof68OySce8DGDkkYMe5/N4bqfxnCw4Px38mpk1uOKpV+DEfU/UfZ4m7Eec7ydfUFk7p77kvOEybxo43y1frUDdXrn2dd75Mfjqz4DKsgzW+QVxBJ3L4D/wRYTnQVmDbZtvGn8op37eSeA5UeKkictd8aHa+HoLixUUOW/zmk4rb5/fjm3z25L5WODpfH/4fdbsg/dufi8O23DYkq7mh9lXszjfP559bIJIv6Eduex8d3yj5NrXeefH4Ie/AmRlDoXyknyp8IiUmdcGrjm+NnnrKEUJWCeeZ70s8+LSZM9ReVmt7JSwTjpP50fnrV2o2++7Hdfddh12zO9I4oui+r8HnO8v/7jdH4f3bHoP9lq91/D+i/mRUJYv5/vHW2zKurYoYR6FOSTLznfMp9or177OO5/JDyqB+ShiBXwpPA/I2glpm09NVmTSM228JpyYdcGHonCSAGo7mRzcOJ/HB87aqQrc1u1b8aZvvAm33HNLEs9jcr6/fFEUOO3A0/D2Y9+OXWZ3QUXYDzbdx873i5di+V3F3y5111B2vn1+SZrslWtf550fkR9+BagpeIu94ah6zQFqH0Kra4PXEgkeY8icpoGPSa79W+B5d0QGNGoXzmfxsl2o13al7n3oXlz/3evxm/nfNPK88Dnfb36mmMHph52Ocx5/DmYGM8NGE7RIOa/otXqpE1NEbhRIneYveGPB+fb4agV0e+Xa13nnx+CrfwRcimNJOmYsnRWfpDDLJXyxSirLo+QmnW+67im2bpGXu5ZakKPtaDufxnOQKNtozE3/chOuue0azGM+yvNOc1P/zq88PzeYw4VPuhDPOuRZC7DmI0rlPOZTnF9ZHqgv6g364C94jlhBqvPt8qZk2tH1rm9LP1sBtOxByySCBCdVoBpUc4At9Sk8O7+2ee2iaH1odZPMN/kkbt8VH04jTpIDmian6nx9p1hrY9U/vONhXPz1i3HI+kPw7//Nv2/krTE5309+/dx6/NVT/wo/vP+H+OrdX12EoPvkWsdwvi98qihrBO9c8+YBzxnn2+Wjoq3pzjvfMT9Y2nmwnI/VWNuNsM6t/i3HFpyh9R7j8qmfV0sippkP0jXPzYUDlTsq4TzmeJ3P+Nk5IbyDDAAPbHsAZ918Fr5177eS+Nz+nV9Zfr+1++F9p7wPB607aKiU927KAuL8yvKlcbR0QGWjQM4L62mS893x1Qo6arom+zrv/Bj8oBYkaw24HHYsZF2J6o4GRFkLwGMJg3yPWNA/Kq85WtlOK08b3yS57TJ5zXGGcghgmxyt8zavLTisrzCL9rvrwbvwgr9/AX629Wcmn9u/8/3hD9/tcNx0yk1YP7d+2JATeM0/S3F+5Xhe37R1jfx+ytNEPnd+GXhrzdaOzjvfAT+oBezyCHHO87cpIeA3lxJzhtx3fZ0bn5djaHLOzEwDr9Vb513wQV1Wv8ceyiFYkXrn8/jAcYIg21ty2y9vwxmfPQNbt2+t8dxPU//O94sHgFMOOAWXH3855gZzS1yWP3F+5fkMCfOk6b5n1vl2eReXvsmg4mwK8YJyBLFSZNBfLJ5zkhAT6/6w2o3LW0mKFswWmF5e02lZY5s8hsFrEOkgObB1fjzeCghru1Linv3bH/8tzv/H87F9fnuNt4JMq3/n+8e/9PCX4tWPfzUKvjl5I6cUZU2cX1leE4Xl+70s6z8xLHXOt8+bkpsbOO98S/wguaPUOk4EYnyqE2waQy5vtSlJb5Unne+ZyKBF6qxHp84386FO1stzdUdKJu8A3nvbe3Hld65EifpXS3L6d76f/FuOeQueefAz435Vbh4sdej8ivOlom8Q3jBgv8K+xPl2+WTJta/zzo/ID/8TcJOEuVwquoLKTX1orNUuN6AdJQBuGjtfn0nneyIcvMhHpU0O1fk4H1gOBLVkYgiEN8PSXLroaxfhk3d+0hxLSv/O95OfG8zh6s1X45i9j9F9hDIfls6dX1kepINSH06FrwBQmSNhTrA/cb47viZsx0z7Ou/8qPygoogFyaXC5AaWzJf00thyGfgSevtwXkwR3xORjlJzkKFOss6n8yzaDnCKbN2+Fa/4wivw9bu/HuVy+3e+H/zea/bGX5/y1zh4/cFJ7YYd5OHOLwNvrQFAZW5Iv7HUVPgT57vhaxKxV659nXd+FH6gYLo0OSgOQmOD436571LotOxmXF5rx/pp5HskHNhKZ8rBrgxunM/nraAwuisl5Kdbf4o//vwf44f3/7Dynjn9O99PvigKPG73x+Gazddg91W7q/3UO07DnO+It0SugaLPMA94ZxqoB6byKZHz7fI1MexlivPOt8wPWnNWhVFuGpBMFkL/Ul92wOeM3/osk84DK76wSUcqy8xwnfPNPFBfjLT2FbGSyRL41r3fwsu/+HL88uFfDvHM/p3vL3/agafhbU95G1YNVokGSifcPftb57vlrXYRfQhS5ZHrZdn5bnhVMuzoete3ra8/AdACadkwFlxqdU3BaNHQTnuPtngtcwr1mn7SeRh1aKhrkw9IaT8i1Zym83l80PErMDXeSpLF/fOZH38GF33tIjy0/aGs/jmRcb5//AADvPjwF+Ocx5+DAkXSfFg6Z8b57vgYJ/WsFve6tD1vIGibB863y1cNo6tz7eu886Pwg1oHhXhZDUtxLEnXVGZeSyyC3nrPNngIPQfSsq+UwHuSeIg67ZrEdG3woYoCWukoOTgJAa/zeXxOAtGYqAOYL+dxw/duwLv/+d2YL+eT+rcSDuf7x68arMJFT7oIf/DIP0iaDxVxfvn5hI2WCi58iOY72I843y6fLZn2dd75XD79bwCszrRgT5vzWiAeAlWZGHAfWmDbBt9G8jJpfI9E7o6wXgYtknU+ndeSBskGfbXz2tvV9Nvmt+EvvvkX+G8/+G9J/Yfxpo7H+ZXlN8xtwF+d8Fc4+hFHJ80H16+APtTxOqutBxjamO93OQeYdb59viaGvZZ0ifZ13vlR+UG0E6nnAD/Gyz61BCGcy344MQivogOexaorjLpJ56XEFpkO+djOiOYsnc/jeRFitnFRqjRA5Z5+YNsDOPuLZ+OWe25J6p/fy/l+8wesPQA3nnwjDtr1IKhC86EiCfPH+TF5WcdrnFK2NgykTpad74YfViweLdtJLsG+zjs/Kj/8ChAH1LIDTWLBZSzoT+mnMPRt8ZqeE4dp5IHqJLHsy0zbfBiS8rg09gjV+XQ+nHNdLLHIuafvevAu/MfP/kfc+cCd0f5zx+N8P/jH7/F4XLf5Ouy2ajeoovn43DXB+fH4pjZCz/4j9nK+G75m6xHs6HrXt6nX/xGY1lCT2O6ExqXwpcI17YLk8syUpNfaTwvPk0ETi2mLR3WnhHXWDqXz6bzUcZAXdJreFCXJ++4vv4szbz6z8stAVv+543F+5fnfPeh3cclTLsGamTU13kz6LXG+XT61L65SdqjNp4HOt87rnaSjzjvfJj9o2qWNvkmh1Gl9FajuBsecncxQUsYxCi+PLNOutyaLZZMueKnOdJbOp/Flaf9TsGzhe1d0+Xc/+Ttc+LULl34ZSJMQfKaOx/n+8Gc+9ky88ohXYqaYGQKR+aCK8+3yWvtYdWl/BczaaHC+O77PAaHzOxc/WwvOLdEcVCjzeUltIPSFUobSRjvvkreSk4J0k86z8HWS+g55bUdSBh6VLsrS+RF4WRfKjWL5AitIKYFrb7sWG9dvxLlPOBcD43cF5BhSxuN8P/gBBnjz0W/GHfffgY/f8fEhEJkPufPH+Qxea99Qz092WCx/4Xz7/AIgyuPa13nnx+AHS0CJevCoHS0nJesKZRBWW1lXGOdaf+PyUM5ZP4281QcnFUWHPIaOMQSuMniVu9hS53w6z6IlB6pY9611bxVAiRJvvOWN+Jsf/E2tf+v9rPE43z9+l9ldcNWmq/CUvZ+yCCE6H2rifHt8w+2r1Ws71uwjpM75bvmKjGtf550fgx9YFVE9B/AWExuElmwsd9kSK+mZVj6VaZHnXRTeodR0zqfztcuv9NeYDGTIQzsewlk3n4Vb7r6l0r+6AxYZj/P95PfeZW988NQP4qB1xi8DuSyvWOsYb+QtiuVPWBf0znfHV8SwV659nXd+FL76vL4pqG+q411h401VnsulUW6DD+OzAmRrl2bSeZZRE6OueJfORNuhqkO5nVZPf/GbX+D0fzgddz5wZ+MTB2s8zveXP3TDoXjfye/DhrkNKjPu/HE+g49tzPEGW6wbsYng/DLzMXvl2td550fgB42OQgsycx1ZeNMmndRzfZu8JvJzhiQilgRNOg/Ur1eTtMzLr7JYAYj2qNX5Zp5F7vBq/Swo66ravS7PFf67v/ouXvq5l+K+bffVxpcyHuf7zZ9ywCm44qlXYG4wt1DRMB9y54/zDXysbaK/TRXn2+Vr0rSeZtrXeedzef0v9kIAaXVsOaaUQVjtYn2mJg85fCmOWlmrmwZeK6cwLfPa11Y44JVfd3E+j5eLE/NqomDZlBN/mWBqPIC//+nf4zVfeQ0e3vGw+n6x8Tjfb35QDHD6Yafj/KPOR4GieT7kzh/n03wsYK+BjImvoVg+hcvOt89nS24z553P5If/CEw6l1iALSUn+eXgVLbX6iyubZ6zoqbPPel8rI2VUXbBA0sBhtyJDOdSLwMR59N4Fl6oalwIPNh27BcCE+FLlLjpX27C5d++vDLulPE4339+bjCHC466AM9/1POT5kPt3PnxeU4M+EXCdpV+Y6l72kBwviM+Zq9c+zrv/Bj88CtAudlFrmj9y8BQ1vPgOYAcl4+NSdZxu0nneyTsHHk3xfn2eC3AU4O9lLmSOP+2zW/DJd+8BP/l+/9l6f1SxqPtrjnfP37XuV1xxVOvwKb9Ng2N3uL8cd7ged0L6x2vdXRrA9Ugle2sbR443y6/JDF75drXeefH4AcVUDaMifVm3LYkRhtcznu2yfN9WQguXKByCvmca7gcPIZOUj46lY6TnajzaTyLtbtrCuPaPR7hH9j2AM750jn46t1fVd87dzzO94vfe83euOHkG7Bx/UajgXGeOH+cj9TLRb1BUjYQnO+eT5ZM+zrv/Kj88P8ApHSuBf6jSixz0cpt8tpYrPbTxlvXzZKOeN551IJbGXA4n8cH3SiJwhBAnv0V/ucP/Rwv/uyLccf9dySNhz+T8/3mD9twGG44+QbstXov1KSF+eO8Us9tmtbERZF+wUr+NJ/ifDv8ULl4bIphQtl55zvijX/bqejKiJ53JvjNeVeYdbJOk+Xgd6bzHoj2qJSDW8k4n8ezcBKhLlop80Te44n8d3/1XZz1hbNw72/uzRtP7vidXxH+pP1OwjuPfyfWzq412w87Qvb8cX5EMdrHdq81vfPt8qbk2tt558fkh18B4g64M+mUStLzTgYnBJyFWBkKDU4N5NvkJaPpQ3/cx6TzlqzABI05Ty0ocT6N550qThwCW20M2weUCpPB/91P/g4Xfu1CbN2+NToeqU8Zv/P94F906Itw3hPOw2wxi2FD1Msjzh/noa9vgUuQWDCq2d35dvlhpdks377OOz8GP6gE5ByYW2LVcT8p/ZVUpyUXXfDSuWpJjdbHpPOAPkG4nbVItcVL3O/XBJAAACAASURBVNh1DMEFO1nn03kO9CVvLl7WPdtC+cbv3Yh3fftd2FHuMMeTO37n+8EPigEuOOoC/OGj/hBFMHiHc2mnLjclEVxOkGDHWFDrfMt8rh297OWWy9WvADGgvTQ2prPEShKWS8+JgXWfhjbTwLPkLhgt8ilfOXB+fD7o+GsbNbYUx47KO8odeOs334qP3fExzJfz6ng4qWkav/P94dfOrsUVT70CJ+9/8mJjLMu82qnKcg1DQ1mca/5B2lnbSHC+Xb4mmr1y7eu882Pw1QSgqUMOPuWc5nJp6EeR3HapfOBin2Wa+MCudBmoBRpBFwsynE/nOYjTziuLkryv+X63yiPwD+54EOd86Rx8+f99WR2PtnMWG7/z/eL3Wr0XrjvpOhy+2+GdzJ+dngea1wPlXPoH9h+azvn2+ZpY9sq1r/POj8jrfwSsiTJ/o4wsawOSg9UGXirnbfI8PssRTyMfE76ObfNaF8JZ8tcMtJ0W59P4IJLX9EMFdNHuqzH4ex66By/+3Ivxgwd+oI4nd/zO94t/1IZH4fqTrh/+MlDL82en5oOv5/VN6skna8GnTOosezvfER+zV659nXd+DH5QAyHOoZxLfQG7jcZpfAF9wIU474Lnz6PVN3GTyDdJaqIwKr8oIXANAS3vMjo/Pg/oQZuVOJjSwZy4/b7bccZnz8D92+5Xx5M7fuf7xW/abxOuPPFKzA3muvcpOxsfRLt9C/GSKNlL2lUrO98+r4phr4VGzjvfLT+IOh/OHmQnpSg36XkAciDawJjRPuQ4POuCcNKijX2S+cBoyZ3Uc59t86gHEjJo5R1v5/P5UM9lM/DXEkVOIIMfsBLLTP7mn92Ms790NrbNb1vSycUzZfzO95d/9iHPxhuf/MbFSrQ+f3ZKPrbW8W1Na0DwERzESj/ifHf8sCFse+Xa13nnx+AHlcZaZwXVhY5kh0o8oYrFsxPsmi8MLnLPTgUfmJitY5OqDX5RrCBCnmtBr/NpvFyYNF1tgSroGO6TjvUfvv3DuOTWS2pzJnf8zvePHxQDnPuEc3HGo89Y9nk1tfpQhlIudL30DZafsBjn2+UrYtgr177OOz8qPzABllhH7LC0fixHFs5LwWnlNnlrbJpMIy9luZOU0ExxkqwLnPOj8bKe9Y2iOZfUeZbB7yh34NJbL8VHbv/I0vjkZ2kav/P95lcPVuOK4xd/GaiD+bNT8qFN2VCWzRXfERPn2+eXJMFeufZ13vlR+Po/ArM61HYfrDcDlbnPcC6dGicRkila5ks6B7Xh9tPChzKoHUQd17fNR0QLcmOPU51v5rWyKU22ZH1L/IPbH8TZXzobX/75l6vVmeN3vp/8bqt2w/tOfh8evdujFytRPcI4Z73zQ512y/O6EDFZWda/zsXnznfHLwCo2yvXvs47PwY/qFVy47KhXKDaKQvXx3jZvxawt8XLhEHTW+VJ51m09rHFow0+qIxgQStrjtX5dJ6TBCthqM2rgvShzPoW+HsfuhdnfPYMfP/+71eGlDV+53vLH7z+YHzglA9gn1326WT+7DS8tZbymqqsscEm0j/EbOl8u/wQgm2vXPs67/wY/KACsshAmrOHgjgOADn447rw4kFxu5LatMXLz6B9dk0mnZcSrg3bmPvuiJffl5RfY4mVnc/jZZ1MEsxdKXmPc4Kp2bxl/vb7bseZnz8Tdz9492jjd77X/DF7H4Mtm7Zg19ldF+AVnm8Ty0Ocay/UeQ5S2U/IOue75VPslWtf550fha9/BYgD/iBFtWFFtMTASiqY4UFpR7TMs1h6q24a+JzkoUNe7hgGJ8kBrLWj7XycD+eS5bZRWYEE9rM/+yzO/8fzsXX7VgBp48/9vM6vHP8Hj/wDXPzkixd+HpRlBebbRPIlnac0Ve51TuSafIPz7fKm5NrXeedH5PX/BBwCOM4utI6bMg0elFZnSSyJaIMPY9ESBc6mpoEH0hIz1nXJY+gcZTArdxDZeTqfzkuxeFOaEucu+BL40O0fwuXfvhzby+1VvKXP6/zK8YNigFce8Uq85PCXYDCg/0O5EvNt0vjg7wtRDtJwW8tEDaj6Eyugdb49viYakmtf550fgx9UAjYOKMMxJrJ9oej4zfn9mhipb4u3xl5EdNPAx8RKGLrgg4p2TKRDlbuH1lcPnE/jeYeWuZpIx6GhrGuZ3z6/HZf902X4yP/9CErUn2jwLrP8/E2f1/mV59fMrMFbn/JWPP2gpy8oV3i+TRSv+fLYeguoGwiyLtiIg1fn2+WHEOLxEYvzznfE138GVHYkswkrmCwVPiaSl8cSVcdXkq5NnpMbLZgtSD8NfKjna8W8tGEXPKrBrBaQxoJf59N5GZQBymJkiWVbq3nL/K+3/xqv+cprcPNdNy9URcYvdSmf1/mV5/dcvSe2nLAFR+151GLDUCnAZZxvE8OzX9V0dK4laJpP4Trn2+WXJGavXPs67/wY/KDmgKSkxApWIMh9SCYMQAbp8sV1aJlnloNlHit/lknlpZ6TuXKZeJKwk63tpGjifBofY0yx7gtrnnXM3/3Q3Tjr5rPwL/f9iznk6E6b873mD9lwCK7efDUOWHfAQuUKz7eJ4JkL7a21LmAUtFpJGm8iON8uv6BE3F659nXe+RH5vH8ExglCrF1JR+at97LG0wUf002jXl53rU4eu+IjIp2ldLDOj8ZrbU1Jsa+sWyb+e7/6Hl5288tw72/uVUBbcpMf51eGP3bvY7Fl0xasm1u32FDrDL2dn8vOA/XNlNJ4yeZFEbUJ1znfPr8kTfbKta/zzo/ID2oAN4I4cmYB4q0B5IrmANvkNZYD2VLRTxtv2dC6Pm3x0B2k3EEJ59ZutvNxXor1iLr6BgFGml2Xkf/czz6HV3/51dg2vy3+GUKTlM/rfG/4Zxz8DPzFU/4Cg2JQr1yB+dZrvqAy+33uJ+Bl/W9ptCeLcmPB+Xb5mmj2yrWv886PwQ//CFiDC6Mh6ywmxnPCwXWFwrbFF1RfKGW+HtPAs2g25GvZNh+GQ46UzwFUglzn8/jKZRfJgVy0VAnzxrIr65eDB/Cfbv9PeNutb2sePzI/r/Mrzg+KAV7+uJfjrMeeVa9cifnWd75pYSde263mjQPeXHC+Q75l+zrv/Kh8dcslFjQzlyqxIFzWx4L7rnjJcFm7FpPOp0jRjIzFh2bKjrYsyzrn83ntest+aokCzxfZhTaXlpmfxzze+s234iP/9yOV8WuLMWB/Xuf7yc8N5vDO49+J3znwd3ox33rLW369MPSA6Re0XWneYHC+Pb4ilr1y7eu882Pw1X8ExplDUwBpBX+W4+K+5fvxkdu0yfNYtLLMlKaN74lwgCAdaiyocL6ZZ04uQmogxvd+rXPluMz8jnIHXnbzy/Clu760gBjXAEj4vM73jl8zswYfPPWDOGLPI3ox33rJp/TBauW6s543GJzvnm/Fvs47PwY/fAIgg3aZEDSVWbgf2aZpoNx/kzMcl+fxWuy08NZOk9VPhzx/tYV1rh9PH9NxuWoY1G1W0Ll1jy8D/8D2B/CCf3gBvn//92ufMeXzOt9v/hFrHoGPnPYRHLD2gF7Mt97yTb6W1j/tftd8ifPd8XWlOEp75drXeedH5AdLDWLBPr9JSYwUGXxzEK7x3FYrd8lbF8tKWCaZ1xIjy1ayTQe8/IqAdI7aY1XJOp/GW08CQtncmYrdv5p+Bfg7H7gTp//D6bjnoXsqO22VrozP63z/+cft/jjcePKN2LBqw2KlBMV5T+fnsvAZvlb6CA5QNb3z3fA1WaG113nng+hPACTEiYD1hlJkXzks62J14/Csl591Z+B7JjIoCE6TA1/n83l5LttFJXeerBD/lZ9/Ba/68qvw622/zvq8VnLkfH/4oijwtAOfhrcf+3asGqxCtQPkyTTzct2LrYEk8vqn+AXn2+WT7ZVrX+edz+SH/weA56sVTEp9QXp+A+7DylQsXVe81IcxxvqYJl62gaGL1bXBS/XiTokV3HKg63waL3epkkXOI+v+7xH/se9/DJf+06XYNr8t+/M6329+UAzw4sNfjFc9/lWYKWYWG2Gi5mfnvPT52vqdIdZmgvMd8Kn2yrWv885n8tX/BFxUK83HCMzJTmU9t0/JVmS5K14Kf/6m+3zS+cDF7Bqra4NfFN4N5IBA7nw7n8dzYsBt+dH1sCI0gH7vavf8CvHby+24/FuX46b/cxNK6I/il3Dlkbzz/eZXDVbh9U96PZ59yLNRBONP0PzslGeRnDxauLJTHUvenG+Xz7WX8853wetfAcp1NlzWgtAS9T7lrob2fl3zsXZaeVr4HogMAsLR2jXhXXDn03hrATJ3p2L3vXQcKUHJMvEP7ngQF37tQvyvn/wvA6x+Xiu5cr6f/PpV6/HO49+JE/Y9oRfzrRe8XNe4vSF8z/O153Pnu+Ub46sc+zrv/Ij8oAmodBpjrZ2LWH/BwfGArUC+LZ7Hp9XLMU4b30Ph3T+rzvk0XpPYjmsVbDiPJZwrwN/90N0450vn4Dv/+p0qZnze1EDV+X7wB647EFduuhKHbjh0EeSGdN6z+dk6n3a7D3HjXtd0ITFzvnvelEz7Ou/8qHz9H4GFIweYKYFkYZSbzq2dDqu+DT4kBlxvfc5p4GNS0rFJRuXDcBICWrnr7Xwez08N5DHUJYm896WuZ/z3fvU9/MkX/wR3bb1rQRX5vLnXx/mV54/c80hcuelK7LV6L1RkQuZna3yQVH8eToWfkNear7/0Lc63z5sy6nrtvPNj8NUEQAaRVjAvA0/rDVMzEK2fmK5NXh5LhQ3XYNp4SziBaJJRea1K7AwGJxrbNXE+nQfqi5HsS+8Aw/miBSdNyfQK8V+46ws49yvnYuv2rQuo8nnlZ065Ps73gy+KAqcdeBouO+4yrJld04v5tiJ8SWxJdcotzUlVbDda+hfn2+WHSnFke+Xa13nnx+CrCUCqhLmsOJuoxHgeeDhabcbhg3Cio/XLic0k8znSpm01nHb4ODjQzp1P54NwMhBduKQNC0XP86mH/Ee//1Fccusl2FHuWGhGn5cTp6br43x/+EExwIsOexHOe8J5GAzE0jVB83NsPpY8FKJe8fta0s8+oGmTwPnR+Zpo9sq1r/POj8EveNFY4JwjWh8p/WqBbTgWqH+QcXkWq05ezGniUyR2vdrggcpONr8ALJWDk3U+nbeud2inSmweafU95OfLeVx666X48O0fNj8vL9qsd76//OxgFq9/0uvxnEOeMwQmaH62wluMtfCj+d63rrnz7fJVZYDVLup1zjvfMl/9I+BRg8WQQGgD0XQ8EC2Y16QrnjOonYHPsXUHvHSQKbvZzo/Gx4Itq64Oo2rPpmYrzG8vt+PlX3w5vvj/vjhEjGuYen2c7w+/arAK12y+BsfufexiJSZqfo7NN60BjC/6BnkNw2YB+4qgd759PtVeufZ13vlR+frfAFjOR3NQ1gBKcZTllB2NlRJrzNPK59qiZT628AOo7Gxrj1qdj/NWvVygagtTLAgphL5QmJ7xW7dtxXP/7rm44747ateBn5zEro/z/eTXz63Hx3/n4zh414OT5kPf5ufYPOsja3fT9ZSM893xFUndcE2wr/POj8oPliohwCZhB1VAd2CSLYiX7XnAluNri5fjCeNtSmamgYdSjrXpiscw+NR2SDRn6nwezwtTqOcnBdWOjXIK00P+rgfvwnP/13Pxr7/5VwD1RTnn+jjfP/6AtQfgo6d9FHus3mOJm6T5ORKvrW/aGsvdRnxGuK7Od8sPT8SR7ZVrX+edH4PX/wg4JbOQHZfixU5LBugxJ8aBPL9HVzzX8fg1Rz1NvCbaNWyTN0QGr8DQkbIzdb6ZlwmBVWe9T81+0nFodu0xf8s9t+CsL5yFh3Y8pAacTdfH+X7zx+x9DN67+b1YM7NmQTFh8zObL6gs11hef0nkNdSuqxW0Ot8OvyQxe+Xa13nnx+AHtWC8VMqhM5CO36igeqttIY5cljqtnzZ4rtf0sf4mled2gG6vZeDljh5QXezDubUD6HwzL0WyZVn/GbuFCtkAumMJR8039Jj/rz/4r3jLN96CbfPboEnS9XG+lzwAPOuRz8LFT7oYs8VsL+Zb57zWNrL+xoJS9ifShzjfLr8kqfGS8853zA9qgVpBr1yxBpUj3L6pv1yeGa19rM9J5q3EzpIO+bDYy8U8tuvn/Gi8bMdJxRBk40AX6ScmhJ8v5/Gu//0uvP//vB/z5XwFa7o+HIQ63z9+djCLVx/5apzx6DNQhIkwQfMzm2cfK8+V9VcmVYAdnEp/4nz7/NAgiNor177OOz8qX30CEAvuYm+ovanVXuO5rI2jTZ7HFEtapokPbOpitAy8dJoykK3tmjifzbPIRcjaXR12FEBDP2H8QzsewoVfuxB/++O/NRro18e6ls73i18zswaXHHsJnn7Q03W45/MzmWfR1lVNH9S0Q81657vl6x3Q0ap33vkO+OrPgMakMMpSV0TYWP9WW+v92uStCxSC6mnjLTZFWua1HT7e2ebdbOfzeT5PXpwAfb413cs95e956B6c/aWz8e17vz1s3nB9ONlyvr/8Xmv2wrtPeDeO2usomNLj+ZnEa+15fVM2YWKJlNqt893xCfaqsc473wFf/SPgkl6sgziGznKkMMraGGJtx+VDfXhJp6vppoUPn1+7XiulR31RlzrN0TqfzvPTA/nYulG05LJQ9BPE337f7fiTL/wJfvLrnwBovj6cVDnfb/5RGx6Fq068CgeuPRA1mYD5mcxnrr18vdinaE8ZnW+fT5ZxYivnnU/kB2qQGMkYoqIlCSmsfBVUL5k2edmGnW6s30nmAytty/qu+XBaVL83KR0q662y83Y5iJYocFA1hFG9d4DqfcSJ5YTyX/n5V3DuV87F/dvub7w+2o6z8/3lAeC4fY7Du054F9bPre/FfOuMZ4Z1QqzEaanbhgDW+Xb4hUrY9sq1r/POj8HXnwBYgX5oLIO+kuq1gJAZTWRwWFIZqI9pXJ7baW1YPw08i6aLJXpt8KGqjH+PvSzr/13R+dF4K4iqdww7aZPHcrL5sizx8Ts+jrd9823YNr8ten20a+p8v/kCBX7/kb+PNzz5DZibmRuCEzI/o7xVDi9tPcwQy4c43yKfYq9c+zrv/Ah8+n8C1uZ94GXwz07L4mWfVuBujaFtXsuguDxNfJA8X9Yqr+2gsLPkXT7n0/lQ5qcDWtthg1CJ+DzS7qsJ4+fLeVzx7Stw07/chBL1BEpeTy7Hrqfz/eBnihmc8/hz8MeP+eOFugmbn1Fea8frsIaTb9DKznfHVxuj0V659nXe+Vx+UAElUCodaJ1ypmE5M+blkftYLr0cEycwpcJMAy9F2ji2ILXNW3iK43Q+WZoCqmrnqN6/2j0jbTkF/Lb5bTj3y+fi73/690toLFFKuZ7O94efG8zhHce+A7930O/1Yr61wmvtrDLd5inX1fnu+GpjpVwYeued74ivPwHQOrLqmpwSUA38mOfgUItvYknIOHzMEWvlaeFB+hQbts1jGMymLvbO5/OamPVhjshqLdm3kswJ5R/Y/gDO+OwZ+O4vvxv9GpUlzvebXze3DjeefCOO3PPIasWEzM8aL7nYxgv5/Bx/4nx3vCps0xz7Ou/8GPzABICq8+G6UJZvFHtTjZeD0Tirj3F5WSePWlmrm1Se6y29VW6Lx9BBhu+vh5fULTWlrwE438y3IoVRnjL+p1t/ihf+wwtxz0P3JHTqMmmy79p98eHf/jD2X7v/UDlB8zPKx/pYPC8K/X+DSH9Saeb8svCWvSrlBPs67/yo/EANImOBv/amIeMolPrQtiTeGnQsYG+L1+pKYvh8GviYcL9NbcbhUQ1U2UHKYNb50XhZn5wQ8H2kNYs5lAnmb/3FrTjz5jPx0PaHql3QNWYdi/P95I/Y4wi8/+T3Y+3M2mqDCZmfNT6se9r6Hc7J3zYdY9fa+Xb4oQL18zHs67zzo/ALTwAKgrTOWG/74DqjJQalogusrCs64IG4o9XGPC08JwjyqF27LngMg9rw9ZWos3Q+m2dJTgIqnRp6q6sJ5z/xw0/gDbe8Advnt1fxzOvpfD/5px30NFx2/GWYG8xRpdFRz+ZnxadbR8kt6spy+IRQO7LO+e74JbHslWtf550fg9f/E3BhN1gK8DSmpHKoL+lcMqlJR5t8qbS3ROtrUvkgsYnC5S74MLTFhVo6TdVZOp/Ny50o64lAdFcqVi4SmAnl3/Xtd+H6711fSbpyr6fz/eXPfMyZOOeIc1CESTBh87Oydmn+P1KvbSLENhecb5dXhe2Va1/nnR+D1/8GIFWsN2CRiYPGaWUOHNvk9fipXt9w704cn2IvOXG64LnacJDWbrbzeXxgJK8+JeC3sRI8a25NCb+93I4Lv3ohPv3jTy+oKdlqup7O95ufKWbwhqPfgP9wyH9YBBbBCZmfS2VtTTVE7kjL6yQ3Fpzvnk+WTPs67/yovP6fgDWRHcU4DsSb5n5hvMJ7csDeBg9qw+OR/Uwbz8L6QtG1ycsq4Rh5AZcBqnS4zqfxcjFivZpUNNlRm2dTyv/y4V/iFV94Bb5177eGeOb1dL6//K6zu+JdT30Xjt/neNEAkzE/pX/ntU62E3p+QsJ663o63y6vihaX5NjXeefH4Id/BCwlNNYkllEUVG+V5UBi/fMHa5MvBQditbbTwDddD7ZXh7x8VMo7eqwPOufTeb7OzJgi7aTZeCfhf/DAD/Cym1+Gn/76p1nXk3XO95Pff+3+uHbztdi4fiOqHaDf8xOIJxJSFrlYEMp+Q/oU57vnK6Kt5c473yE/UGEreI6J5pxkNqIFpOwIY86wbV6OlfthhzstfKyPYHO2Y9u8rKIdOhnoyoCXOeebeW3B4bZyp6pix2DXWEI97TyAr939NZzzpXPwwLYHkq+ntIvz/eaP2OMIXHXiVdhj1R4rP99SeSh6TWi9q93vik6eO98+HxWOTzLt67zzo/D6EwBNpKOygv2UtrF61llja4MHqp+DHa7W5zTwDX6otgi1zYdmIni1du00zvk0nhceuQCpu1FsNy0Y2cn4EiX+5od/gzd/483YXi78MlDq9cy9/s4vP18UBZ524NNwybGXYPXsaupAlPs0PzX/r50rfpivk7wOGuN8u3xNNHvl2td558fgB5UgMTUZsN5gFN7ShWAy9iFG5QHbAZfQr8c08ZYss/15N0UGr9ounvPpPKAvSFFJuT9jDmYK+fn5eWz55y24/rvXZ19P5/vPD4oBXnL4S/Dqx78ahRo1R85XYn7Khd7afJFrgGyq7FgD1SCVd7Cdb4+viGWvXPs67/wY/KzqgAo6BtHOm6RIKMf6Koz6tni+MMwWCjOpvNZWMhD6LvlQHdm5k7vYzo/Gc5KQ0n/j3GpippB/eMfDeN1XX4dD1h+Cpx/09CW9dj3lNU+5/s6vPD9TzODiJ1+MO+6/Ax/9/kcFgP7OT2190/y/7FbZvQ6bCVKvBbLOj89XpMleufZ13vkR+OHPgJbVilrgqHVcGi+u19hcpm0eBsMXTomRJp6XIhcUa3Fpmw+qyG4KUHWwzo/O8xMD7elBvXPowQmg23vK+fu23Yczbz4T37732wuqhuuZe/2dX1l+7exavOeE9wx/Gajv89Na85Q+tSTI2gywkibn2+GHQOiAzkM5w77OOz8qX/0/AOxkmhwRIowlVrZitdH0bfDhc1jj1y7YpPPhnOu0dhBMm3wo0uP52M4KL97Op/HauVa3oETUXgsNhH4n5H/y65/gxZ97MX66tf7LQED1euZef+dXnt97l71x48k34pD1h+hrRh/mp7a+aWsb6dlPVPBFXcyvOD8+PzzhBuKYa1/nnR+DryYAloPSnBEa6kqDYb7J0XLfbfPynINXbjvpvCbatYm1GZcPzZSdlLKs/nGr1Ds/Os+LFO+ILigxvH+0OVbpYOflv/mLb+KVX3wl7t92/7BaXE9pn5Tr73y/+MN3OxzXbb5u4ZeBgBWfb+b6FVuPiQmfN5SBapAa6qUvcb4bPsVeufZ13vlR+cHSiazUGnB2oQXyPAAOTLVBlcRznyBdG3xJ5RL6xbPaTirPbMye6JaXQas8AqidOz86zwsPB0OWfdR7WwYkOzH/33/w3/HGW96IbfPbzOuZe/2d7w9/6gGn4rLjLxv+MlDf5idIr73os3EyFAtKne+GX5IGe1Ukwb7OOz8qH38CwA00RwXoyQHrkMGzI2ybl7pCaSs/P495knmeLFwuqdwVD9R2UELQCqB21HZcnE/jeUdKLlKVBYvtGY4xO+/E/JZ/3oJrbrumMsfltc+5/s73jz/j0WfgvCPP6818qxwhOF7TwlGsBdpnB6p+hH2J8+3zNTHstaRLtK/zzo/KDxMAnp/WeUk6+QKVeTDMlgrLbZp0o/AaJ/UlHbX3mkTemiRBtMWobZ6HJHZG2LlqTtP5fF5jrJ3QOkxH5wEAO8odeN3XXofP/OgztQW/aVfQ+f7zg2KAi598MZ73qOctNqp1o0vX8zMIJwNWXVM3VnDqfHd8ir1y7eu88yPwgyioSQovA/7QhoNDucvBOxxWXVu89lmsi2gxk8hrbZomU9v8oshFV9PLc16wnU/jtSA/7HAmC9/vTU13In7r9q146edfuvTLQEtdLF7f1OvvfD/51TOr8Z4T3oNN+21abIyVn5+S5fZBz+svdH8bkh95TeQutvPt8zUx7JVrX+edH4Uf/idgnp8lvaS+EEdNUoNULTjnJIHr2uBjQSxfSH6PSeY1ewVbWnbuig/NaDdaOtHgSDmodb6Z54VH8upiJO9rqdPWrdL5oP/Z1p/hjz77R/jZ1p8N1ZnX3/n+8nut3gs3nHwDNm7YKBpg5eYnr2cgnfT/Wt9A7fPLYNV6YuJ8e3zUXrn2dd75MfiB2oBhrtOcE5Rz7i8WuGp9dcVbn8mSaeEtJmbn1fpklAAAIABJREFUDnl2kHIhlk5ULsrOp/EyMeB+GhelUpQ1P8DlnZkH8E/3/hPO+sJZ6i8DAWnX3/l+8kVR4LANh+GGk2/AHqsXfxlohefbwiBrH6Eugrc+v5eXv2zKGPZ13vlR+EElcE6YozXnpEksEJSMxclMphTHtviYlKi2bepj0nmrj5S5MCqPoUPUduXCuVyUnR+dD3q+/qwbVupqU5zH/7zzf+Kir12E7fPbs6+/8/3mi6LA5v02410nvAurZ1ajJss93yx/a9zO1n0u9VbZ+e74pHjGeec75AfRnVwOJpsk7FakZCL8ntbuh5VsjMOHcWlBMu/GSHbS+RQ7S64LPqjELpsW3Eq9DHidT+f5aUHQyacGwwo6hrJlQ+cr9fPlPK697Vpc+Z0rs6+/8/3nCxR4/qOej9ce9VoUKFZuvgF2AmHorQQn6K2y893xMXu53vXLpa8+AQCqAV1oVBAjWS5LVvalvQ8fNWcYc4zj8AXVc5k/07TwmjTVd8DHdqDVBdj5bF4+IYj1saBA/b4oSM9+wfmK/uH5h/GGr78Bn7zzkwtNcq6/873nZ4oZnH/U+XjRYS9aufkWytbaxzoMg9NQDsJ6q+x8e/yCQrxi51znvPMt89X/AwDUnZBWZl1JZauNxgdHZ/Hy1Sav6QKrfYZp4Zvsw7q2eXm66BS1hTfoZJ3zo/FhAdI4VcL9KedYSfXOq/z9D9+Pl3/h5fjGPd+o7Cw3Xf9cezm/Mvwus7vgiuOvwMn7n1xfz5ZzvknR/LDQaZ+TP5/lO5xvl19QIm7DTPs67/yovP4VoJhojirmnBBh5FEboNZHm7xWr13Ickp4qUuVDnlrh5sf0Ts/Oq89FTB57b7U6izOeaAAfrr1pzjz5jNx56/vzLv+is75/vF7rt4T12y+BofvdvgihOqRdV3PT9YZYn3emJ9xvj2+JjF75drXeedH4Os/A6rtPvCuctBrnbO+NPSybxbrg3XBW8w08szKc8vGHfJhcbUWXbmD6nw+zzuZFr8kTfZkcd7kb/3FrXjVl16FXz78y+j1175C4Hz/+Ufv9mi898T3Yp9d9sGwA3Q/31KEb+uy+WuFgXO+O96UhsTNeee74us/A8qdFeIV4yQvHVuMLwy9JV3wfRjDcvEaWzTUdcTLRZV32bQA1fk83lp8khcloF9zdwL5T/zwE3jTLW/CQzseWtJpQUSOvZzvD3/y/ifjHce9A+tm1y3AyzHfADsRiMWY4isp8jPx11Wc75avSK4dXe/6lvX1vwHIEeuNpGOTTOoORi7bBl+Ko9bXtPHAimam1qKrOkrns3lOHJjVK3T1Qqeozy3n4zyAq2+7Gtfcdg12lDuG3SQkelKc7y//wkNfiAuOugCzxWy1UZfzjfWloWcskvRreufb5YeVi8e27Ou88yPy+QlAqkPTpMkBjjqOXL40jk3vMel8zyQErbzw8oLLuy3Op/HajpRMFMxEgKXEMKlPaeL8kmyb34aLv34xPnXnpwCgdv2bdhCd7zc/U8zgNUe9Bi889IUogvGXY75xW9YrIj+XVed8d/ywcvGYsm6n2Nd550fkBxWQG5ZKWZvXWnAdpIm3uKYPOQ5fKMcCVUcce49J5Vm0axVLKtrgQxXtkMQcprbT4nyc154exHashg1Rv+8L2LZ0vpF/4OEHcNbNZ+Fb934raqdwjNnL+f7xqwer8ZdP/UuctP9J3c83QF/LMiV359r17eqjkmtf550fkR8mALz7kBJIlko5ODMtMOQyO0KNKTrkc8Y+TXwQza4xm7fBC9F2q0O50o3BOG/zUq8d5U5mtTPUE8tQ1uaT80n8XQ/ehRf+wwvx84d+Xrn+vONsHZ3vN7/76t1x0yk3YeOGjUO7dzHfrPWURdRp/oE3FKQvcL4bPipN8ZLzznfAD1hhijaHNUfG56zX+tIYWeaxtcFLZ8qOtYmZVL5HIhfS4EjDjpumdz6fD9dZ7lZq/aQbLQ93virf+dfv4MWffTG2bt9qJncp9nK+n/xB6w7CB0/9IPZYvUfSfKhJCh98utzs4jqSMD45VrN7wTjfLl+vhB6r5NjXeefH4Ic/A9rkfFIzixyRATsH79p7tMlLYV2sz2ngeyQciFpl50fjJde4eGn3eMqug/PJ/Gd+/Bn82Vf+DCXsr2Ml28v53vHH7XMcrj7xaqwarKqDbcw3ALUNN1AdqvW5ib7zy8gr9sq1r/POj8oPKiA7HOmk+A0sSQ06rf5SPlAbvPxMFh/0nFFNKg/EbaxJxzwvrGG3zRLn03itjXxSoAb/1twC6rZ0fiS+RInrv3c93v2/3w0pufZyvr/8sx75LLz56DcLGO3NtzFEe6Ihy853y7u49E0WvgIUHI8VRBeCAZVZx2ysjVWfkkSMwwNVxyuZpsxp0vmYjWPtWuZlkCp30JaaLpbZsTqfznMiENvFNJNJGHrnR+a3zW/D67/+enzyzk9Gk7vUwNP5fvEzgxm86shX4aWHv3TYsO35Flvzyjoj/YRMajhQDZ/H+fZ5UxR75drXeedH4QeVoDE3cJd1mvPi+lhfVkBptRmX1xIWK9GxmEnk+fo0TZ4u+DAsIyCVeqvsfJwPi1IoA/qiNZLkNnO+Jlu3b8VZN5+Fb/ziGwtNEu0lGef7y6+ZWYPLjrsMpx14WvvzJ+Z7pb9d7CcWmIbxh2SmKZB1vh1+oRFUe+Xa13nnR+UHjY8ZCzpyWXsjyUUCQFOa3mtcnj9risOdFr5I0EvpiOfFE4g7Uefz+FAneW5bkRJ1B6Hdu1zv/Mj8XQ/ehTM/fybufODOZHvJoML5fvO7r94d15x4DY7Y44h25w9gr8uF0PEtLgJR6TMscb5dviYxe+Xa13nnR+AHlQotW+DAXTok7ly2Yz2XY5KTLIzCW2O1uGniuV5r3zUf8LKsLKRasMs659N4azGS7SpJgHQMfC7tWzjfJn/rL27F2V86G798+JfQxLJXrn2dXxn+kPWH4OoTr8YB6w5of/6oAzDaK5+Bkxg5fufb51XR7JVrX+edH5EfVAI0djhaZ5peSwo4mdB4bWDLqQ8XTSY7Baqfh6/PpPPaNdCEbdYyz0GqFtDybrbzo/NafS2IsWyozS3nW+M/deen8MZb3ojf7PhNkr20pND5/vIn7HsCLjvuMqyfW9/O/IHgSioXpANq97m1qRB2sZ3vlm+yV41x3vmO+IHpYIB4JiHfhB1XCExBeslLHQ9eDpLH0Abf1A/rpoXPkSbbj8vLpkrgap07n8bzwhN2q6ydywUooi9EWbuPnR+ZL8sS1952La6+7Wpsn9++oG6wV659nV9Z/jkbn4MLjroAc4M5pTPkzZ8gzHHbxXLwETJIVQPTRcb5bvglabDXsLHzznfLD2qNmsTipRPT6rR+QsBeRPScybTBa+PSyuGoOeRJ5HskYcHUJCykst750XhLF00Eag2onBqYOJ/MPzz/MN50y5vwP+78H2qSZ9kr177Orww/O5jFq498NU4/7HQMxP/fXGhA5ZT5o6232oIvJLZzrYnz7fI1seyVa1/nnR+R1/8PQCnKoHIsmNfKWhCqDVB+iK71/Dm0Mn/maeC1DNGyG8+BNnlUF04OaHlnzfl8vimIrC1Ull2B6twpFMb5Vvj7tt2Hs794Nr5xzzdMe2n2DufO95tfO7sW7zj2HTjlgFMWoUV4lPkDo6ysz5bvYCYcne+Or0LQ46lM+zrv/Kh8dSuiMEB+E3ZE1puwY9P0HDwul94q82ebJp7tyDYJdimgT642+HAqHpnyERguqNLROp/Oa2wQrl9QiqN1X1v3svOt8T/Z+hO89PMvxU+2/mSIKvbKta/z/eD3WL0Hrt18LQ7bcNh48weormssQi99hQxEtYTF+e74qGh2TLSv886Pyg+M6njHhVIXHBjzct5znQweNb3st02eRRtXzsWeFN5qLyVmrzZ4Q6xda+dH42U9L1Z8HDZoKBcJjPNj89+691s48/Nn4tfbfr2gFvbiwAKI29f5/vEbN2zE+099P3ZftftixSKQMn9K4rW1WK6HJCEQ5bGz3vlu+CWx7JVrX+edH4Mf/g2AMU/VDqSwXgvOrfNY0iDHxcH9uLw2DhZOHKaJ74FYuyfarnZst8V5nZdt+LrLY7VBXRUV5zvjP/Pjz+A1//iaqL1y7et8f/jj9j4OV594df3vASoNInprXTOEx8VPLHi8znfDJ0mufZ13fkS+6n04S4h1EALtgs5jCYHkU47cdrn4nUEPNCdHXfGoBrRanfWI3fk0PiQEvCMl22p9D98EVbtqZee74wFce9u12PLPW1R75drX+f7xz974bFz85Ivz5k+Tny9JL8akbRZo43K+G75mT81eufZ13vkx+OF/Ag4NrGBOCgf7itNZ0styqeib3kura4vnMfF4uTzpvCZdXt9InbVTFhyofDk/Oi/byeQgLFBR0RwIl53vjC9R4s/+8c/wqTs/tXC+aC8tcYvZ1/l+8oNigIuedBFecOgL8uZPpj9nPyEDVzlmyTrfDZ9ir+z12nnnR+Trzx+bHFEs2NcC/NhguE5jY4nDqLxMcmKfV0tUJplnncVb9muLR31RbApGnc/jg0620xKG6ptQ2bqPnF82/uH5h/GSz70Et/7i1hqea1/n+8fPFDPYcsIWnLjviTXenD9NnMLLADWMk4NWbazOt8cvSYK9KuK88x3xCwlAQYDVEQsHn4Wh18qxgVu6tnirLXM5ic6k8Cm79YXoqwse9QWSH5Vqj1mdz+N5MdLaR6Xnuxc7C3/3g3fjjM+dgR/9+kcLTYxgw7Kv8/3md1u1G244+QYcuuHQ5vlQiqMUXuSVucZj0MbjfHd8RSx75drXeefH4AeVSnYclp7rYwG/ln0Uygt05KCybT4EzrKex8jlSedlPfPWwtMRL50j74oFxyr1zufx2k6ktis5rKSjNX8K51eC//a938bLv/By/OrhX1USvhT7Ot9//tDdDsW1m6/FI3Z5xGIlqscwH3gtC2VeCwUjA9Rw1ILZcHS+G35YCdteufZ13vkx+OETgJIaBSlFvWRYD6PMAykVDqSX9Vq/bfDhQvBCzJ8PU8RDnMtjaFcuE4+q02SHGnRS73wer+00RnekpGOQogWkzi8/D+DTP/o0Xv/11+OhHQ8l25fnkPP95AsUOGn/k3DpsZdil5ld7PkQhNc7WSb/a/mTWGLifPv8UIFqWVsvM+zrvPOj8oNa8CxFBpDyXHYmddJpaQFqSfV8bHq1xWufUft8mkwyL68/2zTUMdM2L4cjnCXvnmm7K86n80A16Ah9xPpUpSEodX75+PlyHjd89wZc9c9XYfv89iT7Sp3z/eYLFHjhoS/EuUeei9liFlGx/L629on3lEGqHJOWvDjfLj+EqKzZK9e+zjs/Am//CHFIDLhzLWHgoI/LLJF7I9quLT72/juLyIkQzmP2a5sP6siuNQe0zqfzQa/tPGpsVKQvSLnfnO+M/82O3+At33wLPvHDT2Tb1/n+83ODOZz/xPPx3Ec9F4W1UMXmjFEX3kvbSNA2BZxvn1dFs1eufZ13fkR++BUgLUuQwb8M/LW5LAPrnKBc9st9SH3bvDWWICmx0STzTZOE27fJo7r4WYumtVg6n8ZbCxS3XahA3Y4yQNXKzq8I/6uHf4U//fKf4mt3fy3JvrnzwfmV5dfPrcdlx12GTftu0ueD5mu1tbmsvj+X5XtzYOt8N/wCCNteufZ13vkx+PofAcsGJTWWHRbKG0kp6MhlqZOs/BBWH+PyQP0zcX1gSkU/6XxhsAWq16sLXqrEDkk457J0oM6Pzodza+dKtaO0sXaPOb9i/I9+/SOc9YWzcOcDdw5xxb6ynDIfnO8Hv//a/XHliVdi4/qNogF032+txcXwfSpqCmDlOJzvno/aK9e+zjs/Bl//GVCtU+4kHGPBtCYpvHyflH5H4eUxtONgdZp5WVcqZe6jA77mFFFdLEPZWjydT+O1ssYOK9FsV653fkX4W39xK17+xZfjvofvi9o31KXOB+f7wT9+j8fjqhOvwm6rdkMV+P/svXnUJVV57/+t0w00LSAiEiRxQBGHSBKHaJZGl97ritfEZCVqRI0Y5Yd0t4gGIzGACIJI1GW8xNADIWZwQkRvVOByw9Qyg83cNlPTQANN0/Pc/U5n//44vd/znKeevavqvFXvqTrv97vWWfXUsz97V52qPTx71xnQl0KLA6FzIV8un1tF7y958n3yvd8B0MF+nqARBhs6gVgwOt3SQXLWRGcYeL3v1L62q+DlaSfpx6N6H+h2ouT75/2qVFDyHoYwyZCvBX/Vk1fh9F+djrH2WLRueGXVB/L14ZMkwbt+8104//fPT38pODRp1LY6digglX0I+Wr4biKy71fR+0uefB98q2fw0ZBdt9MHsPbLUJUzJRmsIsMeFt66R/qayclfFbx3i87Tr2Trl+f8i3x+Xubzig5KeSbtss6RrwXv4LB4xWIsWrEIbdfuoOr+Fq0P5OvDJ0hw4qtPxILXLOjlZBZtJ73+UNDqbT8ZyQpyyU+dl/dl0k4CfvLkK+Zn9wT9siBrUiALcEYeXY6LpEEx+mR1ObrMKvlhteUWA9oX8h1jdGWafN+8Hqi89ADVcQYKpb/2/jba+Pxtn8fLD3o5/vhFfwwgHZjIrbZDAQv5evAJEnzjzd/Aym0r8X9X/18EJcdb2bSd/W+1OnAlXz3fcaitul9BkSdfMt/9CJAM6mVhiXpZQb3m9b4+iVD5Mj0U85TBy/OKTU6GjU+UrcvQ5VbB+9NyvSvZ0m+lky+PTwX/gH3/aDfGHnfjOO764/Drzb82AxBtx+oD+frx+7T2wX+84z/wyoNf2UnQ47LuawN9rl5MCE1KyJfPdxOQfb+K3l/y5Pvg0/8DEKizQcV4Ky2LTzKYMngph/AFsspvOi/zZU3UquQlagSveoWMfDHe8vt8lj+X9OSTfK34LSNbcOy1x2LNzjWTvlg98el56xX5wfLP3+/5+NH//BEO2/+wVDmdzPa+fqLgyw2tYpOvhk8pFrSRJz8NfPdXgOQKsixEB3KhAiWXiP1QEOjUNmaXzYfeT96ym8pnvX+ZlqAa3uNJEnzl5ciHeT/wxOweWfdR+6WPfC35B7Y8gONvOB7bx7ZP+orWB/L15Y855BgsfttizJ09N10XArZcPNDBqXwCoW3y5fOT9ybnvaNNu0o7/REgCeqJgMVJycBfzzac4vWkA+g9lrbL5Km0rHtTFQ+kOkXZoYa25PPzoUFI290M/kBItxmrTZOvJw/gmqeuwWl3nIbR9miuOkC7WfafvvhP8aXXf6n3l4Fk/2rUCV/GJOJcKt2ahJAvj+9R6H5pP3nyFfKtKOglJwIQdsgnA0Lt1+VaCgXt08kPqy339UQpK3+JvFw10dLBqdwnn4+38ml/D2Pjvfcuq58gXwu+jTYufuhiXLD8gslfBspbH2L1jnw9+FbSwsm/fTI+8cpPdOuGfgG9fTLSfa4OUvVxyZfLdzMar5A/6/6SJz8FPv0RIA1Z0nXaYmP5ZZrVz2lf1sBXlLfyh8q10prMJ2obupfWBK4M3rtVEOttqxP1qy3ki/HWKpQsp7cQdO+VvJfeb9138rXlxybGcN7d5+Gyxy7rJOWsDzqYIV8/PkkSzJk1B19541fwrt98V2/9kFvXzRdaSND7vnzyFfKx+0U//dPo7/0IEFQma98JVheq7VCa9OWZPCSRtH54fQ7ab6UNE6/TM4L1qnhrtdp6lEq+OK9f0m9NGDqFIdwPhNod+dry20e349TbT8Wt624tXB/I15f37Av2fwG+/ZZv49XPe3W3Hujt3nx6oqEnHNY5kS+f78AI3y9rS558RXwr18BiFWAdzLKz+DwKBZpl8fr9WfYw8AnSE4HQvZsGXgegOrjVfvL5eTkwadsM/qXydjbka88/tfMpLLhpAVZtX9VxZdQHvfJMvn68bLtHP/doLPzDhXjBnBcgpb2YnlhoSZ8un3y5fAdIZdkLB/zkyVfEt1KPCqStX1ZaERXlxYmWzntGB6zSlvvDwPuA3Lo+Tm2r4j2eEYhagyL5/LxegQqV0d1B2s5bt8jXmr9/0/046eaTsHl0c676YK06k68fD3Ta/tsOfxv+4U3/gP1n7R/kJC9ta6JBvjp+UlXHTuTJ5+DT/wOgg0arDmufHJBitj5G6E3oAc46t6nwMl2+F20nimk676WDdm1rVcBbg5ruMLMGQfJhXg9MkjfLC9UpnU6+ebwDrn7qapx+x+kYaY/kqg9F6w/56eP1BCFBguNecRxOOeYUtBJjSFe89meVT748HkA4rtKSYyd58hXw3Y8AJcYLKg1qOxU7dLLymKHAfqq8vDBWWbpcbTed19dfXrcE6etTJu+RwKq193mGfH+8ZKxAIzXBiLUdzZFvHO+cw8UPXYxvL/82JtxEDyLrg95m1R/y0897yb5hVjILZ7zuDPzFS/7CZDWvbesY5MvluxlhxyNacnwnT74CPr1cUOQAkrX4UJq1nxh+K8Atg5e2zpd1zsPAS+nJnk4vmw8oNsjRX9xvrSCGJhKdRLOYvQdBuk6RbxzfbrfxxWVfxE8e+0nHFZlYFqk/5KeP96xkvL3/7P2x6G2L8IZD3wCpEG+lxconPzW+e0PQ236zxkfy5CviWz2DRCzQjxWu8+vg3Dq4D1zlycltIpiy+bzvKe/1aBIv02SQoK+N9pfMW6vY3h9aVSHfH+/9cmVK5p2U1T5km8rT8ZCvNT82MYYFNy7A7etvz64PKFh/yFfOS5+e/DvncOicQ/Hdd34XL5z7wsm+N8bHbPLl8l2HeNFP/wD93Y8AOdgDh/SHpAPtkE+m5VWe40+Ft87ZsoeBlxXBujc6TxW8N43AVa+kSJZ8MT7vdU4pVp9CDPlG8ZtHN+Oj130UT+x4IrM+FK0/5KeHD6U55/DK574S3/yDb2LfWfv2cCFeTj7ylE++P757U8WLfvoH6O/+E7BM1LMFp179SOez+7swVyYfmiGFfMPCy0ogA/WQquYNyQA2FNSSz8fLAUnnN1el/NayUydCvsn8qu2rcNz1x2Hb6LaO21hpzlN/yE8v71mZzwpEj33ZsVjwmgWpMkJ80fLJ98fnVkGcPPl++N7vAPhMidqXvtgBYgctGAhWKutcYoHrsPAyQND32Kl0vV8W73czgtLQQEm+OC8HpNwr/9qWbTtWH8k3hr957c34zC2fwcjECCwVqj/kp4WPcXI/SRJ89fe/ive++L25+KLlk++f7xkrY2OoxZEnXyI/G4C9ah4LMvOkuwCTpaxjlMVbExq/gu3EvhtC3vLFrl0FvHxEmjUwapt8Nh9bUTQfS+v6Y9nkh47/3srv4eUHvRynv+50zMIsAHadkbauP+Snjw/5tA0A+8/eH3911F/l5ouWT74433HAVmxMJU++At7+EnCeWYaWLicx/DE5tbXKLZPPm18Omk3ndWBu3UurPpTJ6+zGI1RpWyvd5LN5/9L55QTBXKnSbVffS+kj33i+7dr42j1fw/cf+X5q4pin/pCfXl7mm7ylqh1rrghftHzyxfmOU22l3xpTyZOvgG/1DA6J2MqXTNN2lmKsPFkfpGpeB7tl8fr9yHQ9YOrjNJUPTcp0pZHlVsjrjjHVSSo/+fy8DCS0HSqnAyHdZrSkj3zj+V0Tu3Dq7adi6TNLu1kK1h/y08PH5CcQWRz5AfM6DtHtU4/t5MlXxLcmgzMraJOF6AI1H6rzoZlK6GQtyZMvm9cDYp4ymspb90AzsrwqeCW56qVXwKzOlHw+PjRx8LZfYewmIG4nxov80PDr96zH/Jvm46GtD3XcBesP+enh/X5WXyD3ydeD795A9ErvTxZCnny1vP1HYLIAGex7WxeoGetgMo816QgFj9YxquCLck3mE4QrxzTyftCzBrvQajb5fLwfoEITCGkHlbUwQH6o+Ee2PoJ5N87D+t3rC9UfzZKvlvdtPxVYIj1ZIF8fvutEOF7qKYw8+Wr5VnB1NlEvJ2wIHwx/nhmJ5BzSefQbK5vXrGXHym4ir6+HVUEkVxUfUFagSz4/LycD+qXLmlSsDcn0UOdDvvH8TWtvwudu+xx2T+zOVX9i9Yx8dbyW9kfbOfmB810w4HfiRZ58RfzsnuDY2zJg1MGcPEDowBl1vjBvnWOZfL/n1UTeujaxcivmQyso0m+tdpPPx5cq2TeQH0reOYcfrvwhjjzwSHzp9V/CrGRWNEvR+kZ+6nySxH9ViHZ97Y4D2Soas5An3wc/28yQJ8ArOriEFDpW6HzK4oF4UG2V0XTesp3hl2VXxMvHqNoPwPST75/XecwnB3LCH5J1f8kPFd9GG1+/9+s48sAj8ddH/zWSvRms+qPrUVZ9I18Or22rXyBfT56i6qJWdDDwcmrrZeXNOxjVQXnPJxT0No0PTdhCwXxVPNKDn/RbnSX5YnxsomDZ3YJ8YjrJrEfkh5IfbY/i87d9HkvXLO1FjCdPReob+anxOq9kzfZMvjZ8NyPCYyV58tPIt3ogS3oFaVjkAra1r4PbpvJ5Bn+5XyFvdZqyQ9UdK/livF598vtylTG6KhWb3Oed+JNvNL95dDNOuOEEPLDlgS6i6o9Vl2L1jfzU+Kx2XrRfID+9fAdEr0Kxl/eTJ18R30pBVmF5JwF5AkXpl6+sMsvmrSDaRdKGhQ9dO52nYj60iq1f5PvnQ5MIU/LehWzNkh96/vEdj+P4Xx6PdXvWdZJU/fFBj0yL1TfyU+PlxEGmhSbz5OvFdzKh17ZiL/rpnwZ/78+A+kQ5OOgCLPkBwzqg1S6cSEsCjMxfNq/PV3LWe02GiJfXQ98zK6gvm9enZqxuSdsaIMln86EgQg5EqVUpXZ+c8muW/Izg71h/B06++WTsHNtp1p+i9Y18/7yUFVzGFgXID5bvJqC3LSKHTZ58BXy+7wDkUejgefisCYYepKbKy/RQWdagOAzRPBPMAAAgAElEQVS89rmAHSqzDD6Ei4FP2uT747X0BMJclcqavHuG/IziL3vsMpxz1zlou3bH7VxmHbTqG/mp8aGnB3KiYE0gyA+ep6i6qfcJgJ4lWLOGmPqt67r8PAH+VPg8bN730iTeKb8z+ESxZfP6lAJBqbVCRj4/758E6JdXanXKT9DyTt7Jzzj+W/d/C9956DsdRK1+5q1v5KfO+4mA3LcmDzIIJT94vjdR2dbYSZ58xfzsFBgK2KzV3KITBH0MfYJWeaFBayq8PhcdqMYGzCbz3he7FkC6vLJ5j2asjsSCYfL5JgtWGcGVRquNe7vnQOitY+RnBD/eHsept52KlxzwErzrN98FraL1jf7+/DpNTx6kLRnyg+V7ZI3j3Of+NO+H/wlYZ7SCulB8EpqJxOKZ0DlU7bc4PZsaJj50D5MAUwXvXaqTlLbvYGUa+fy8Tw+tIuoVyG4h6N6rUN+g7zf5GcNvHduKT974SazYsiJVl/LWN/JT43W71f2DXHkmXz8+pVBy3jGcPPk++VaP0+r49WqQNXhEgjzzwLFgNu+EoQzeK1H+BL3vWecZBl7beSdnJfHBlREj3VptIR/nY4OSuaroxNapffMEyM9UfvWO1fj40o9j7a61XbxgfSPfP6/TJacnD+Try3cSlC339bhOnnzJfCtVgC5MF5LHlj4ZAGadfOiky+atNB1nyfdvXYOm8qFrZeWtipdZRceoV0tCwSz5bF5PHORg5LmeQSkxtqHOxZGf6fydG+7Ep276FHaN75oMdqRi9Y18/7zOJ/PL/kA+TSBfPz4Vj3hbxyehffLkS+B7vwSM3kRzEEgyWGvwCNmWzwpmY2X0w8fOzcqvj9F0XkoHAT5flTyQCmStVS4p8sV5K4jw29STBae2WSI/s3kH/OyJn+GLy76ICTeRu77pFVLyxXi5yqzz6nIBkK8Z34U8IHxyEp6oNPLkK+DtXwFCL2QOAnkGkkDwF5U8cf0myuJj5xSbIDSd15KBu7RD17As3mdTq9uWHVsNJx/nQ08DrHIm207oniUGQ35G8w4OC1csxKIVi+DgctU3yZAvzlt5Q30A+XryvYCy9T558hXy3f8BsIJ1PQCECgpNEkInUyRIz2g/ffH6HEIzJ6fsYeCruJ79XH8gtTKibb0KRj4/r58WyCcI1v5kWw/VK82QJ++AsfYYzlx2Jq5cfWXHlVHffL3NWz/J9/LWooBs8zrgJF8fnqLqplZPZ++VqG2oDktO2nl4Lx2k6kFGqwxenrPctwbDxLCbygPha6dtVMhLPDAghkQ+Hy8HJ+mT/uATAN1GoNJ0vSI/o/ltY9tw0s0n4e6Nd3eSIvXNB0l56yd5m9cTBMsvA1Ly9eB7FBtLrfGSPPmS+c5HgHRwqO0k4NcHkQOFJetE5aCSqH3r5MvgrXOQ+TSnr09TeWlb102m6bxl8gh0iMIvV8PIF+dluhyE5Ks3A3qDPu/zStSWPHmxfXLHk5h34zw8ufPJaH3Tq6VZ9ZN8mveyglBrQkG+HnxK1lipt+TJV8jb3wHQAbLeSt4PEqGBQg8aelDJUtakoh/eunChfZ2vybwli4ndnzJ4dAc6uS87UM2RL8ZL6UHIHJxkm7DGLKvtkycv+Ds33InP3vJZbB7Z3Jsk6psVEMXqJ/leXk4KrDYvy9CTCPKD5QuraBby5AvyLRNKxMvyeznllxMBKxCXPideMs06F6AaPlSGC6QNA6/9kQWKynmriNiKCflCvB54oqtSVjuR7VSnkSdv8D974mc4a9lZGG2PmvVN1sc89ZN8L29NHizJ4JN8ffhOorKzYhry5CviWz2ZLTtUmE536J0gJBm8nmRYE4WqeEt6oBtGXk7UdB7NVckD0UepMYZ8Pt4KLvIOXuZTJVmnrLZMnvxee/EDi7FoxSK0Xbu3GLHKnbd+kk+3a51X+vTKNPn68T3tJk+MQp58Rbz9T8DS1gXHmNgkQvMx6bLK5mU+ywbs99F0PpYvmSbe7xqPUkM2+eK8H3D8vvQHA3+g9z6F2lSo3pEnnwDjbhxfXPZFXL768sxV76z6Sb6X977JW+J6vz9gTTDI14fvUWjM1jZ58hXxrZ7gOVRA3uDamkTkDfqtIDKWd6q89X50cO1EmcPA57k+cr9C3gpEY6tj5Pvj9Uv6TYXaeqj9kydv8LvGd+GEG07A/ZvvD9a9PPWTfPiL+7o/kPmsoJP8YPlMFc1CnvwU+fA/AccKzgqipe0MO88xip5TUd4HyHnK9JOLpvMw8lisVNm8xkOBKPnKeP30IAyGDkKefDa/Yc8GfPjaD2Pt7rWFAqLc9XOG8jrA1E8J9JMC8vXic6mGwSL54eN7fwZUZtIBo04rMkgUiWFk2Xny9cNbtvY5xK9BE/kQ6+UnabGJxFR5n2Q8zo7Z5Ivx1qDkX+YkQbYjXW/0NiFPPh//wJYH8PGlH8fOsZ2dpEi9tOon+TgLdFefrScE5OvD9yaqrbdDsQx58hXw6T8C0wXqwnWnrw+iD5yoV4jXef05xd7gVPnQRfTnre2m895GgJf3SG/L4r3b6DStR97W43Dy2bzl9y8fSKQGp9CEUt/bUF0iT97QNU9fg1NuPQXj7fFJX9H6Sb6bbk3iY8Eo+frxmYtmOp08+Qr4Vmr1JqtA2elbAbhWKADXJzWddswHhGdPTectWw/i3g5NLsrgrVPWHWRGGvnstKL+XKsK1j0lTz7CO+fw7w//O7553zfRdu3UJFXLmvSSz86XJfKD5U1lxSjkyVfIz04lxAr0E4Us1sE+mTwnKBUqZ6p8rK3W/IZNibfet79mehIYmhROld97TnLFRO5b8qtk5PPzoTwhNtp2QgEeefI5+XE3jnPvPhdHHngk/vJlf9lx56ifcvWUfFc6j7bJ15Pvke5zrT5YT7DJky+R7/4PgAfkC4YtCwoF0lYbCPGJYcugsQpen4++iJaGgdfXR14/q6wqeI2IjlE+Pg2tqJDPx+tH0t4OytenyL3qYcmTL8jvGtuFv7n1b3DrulsnfVn10wdVeevzTOOl9EdNyNebNxfRLIY8+Yr4VgqWL2v2IANJmaYPaAXlFm/JeiNV8NakJPaems5rW9/TrApUIh8b1EIrZeT752Vg4YOKVDlWe9XtmTz5KfBrd63FgpsWYOW2lV0sb/0kH2znfl8/3SNfT35yoqxvuVNb8uQr5Fs9gAR1QTqwdIE0K2+MDylURpl86AJa12IYeIgt1L5TaVXzEgmsaNM/Nb81CMnAI53R2I/cN/Lk++Hv33Q/Tr7lZKzfvb6DZdTPovV5mHlrEmD1Ab5M8vXhe4G9L2uM9nLkyVfLt1JgluxFit6DyFcsX1ZZ+rzK5r30Bcw616bzIb+/hvrelcl7Uwx4cgDUfp1OPh8fUnBA8vfRakOy85CdCHnyffJXP3U1zlh2BnZP7O7FVf2M1eWZyFv5ZTl6ckG+XrypRL0gtuTJV8i3ejJZhen0PLJmI0XlB4uqeKD3Ysn3qQNpa9tEXtuI+GOTiTJ47w48MtUrYuSL8XIFypo8pJQgPZmTuBXYkSffJ+/Q+WWg/33//8aEm+jgGRPXIvV52Hm5upxn0kB+8HyPYuOlnFCTJ18h3+pJcMZLZobyx+q9T3OGT/tD+eWbKJsPpSfi5dB7XYaBt/Lpe6rvd5m8d6nH3JOnH1gRI1+Mt1airPRJ6fqh+wCgN7AjT36K/PjEOL56z1fx41U/hkO4/uptrD4PO+8Va8tWUEp+8HyPQoGbTrN85MmXxKc/AqRB3aFncdoXCshjkweLqYK3ztkqr8gkpM68ZTvEr1WFfGxFK9Vhki/EA91BxypHpncTkb5nWfeaPPkp8LvGd+Ezt3wGt627reNS9dN60hWrz8POWwsCoUUB8vXjo7LaSt6xljz5PvjejwDJrXzB8HtZMwyr8/d2VntwAbtM3g9QsYujNQy8nsRZwbmrmPd4wU6SfDHe7+tgQ6b3TBj8/ZO2bLO6/ZInXxK/cWQjPnb9x/Dkzic7iKqf2vYK1edh5vW+DjzJ15dPKdatW9nIky+Zb5mAEy9dmA7ydFpIVlmWkoBdJl/0YlpqIi/fu1Nbb+vrWTbvTeOxaegxuO5oyefjQ/k8bz4B8O3bCuis+02efAn8qu2rcOy1x2LX+K6e+ilfQHZ9nil8aMJvlUG+Xvyk8sQr5MlXyHc/AuQioIoTgv5E+WS5Oi2kPMxUeWfY1rkPOy+3oTLK5r0pgtbQqoleISNfjNf5osrbxr2PPPmS+dvX3Y5P3vBJTLQnJn2hOhyqzzOFt/qGWNnk68H3OmGP2ZohT74ifvbkTiKgxNiXsoK7UDkI7OsT1GVqf9m8Pt+QdJDbdB7ovRdZ16ds3rsDwWoo6CXfH587ALEmdrotO4T7A/LkS+AvefQSvOK5r8CXXv8ltJLO+lSeOjzTbC+9+qx95OvFd4CAz8ri2wZ58hXwrZ5E3VFbgZwuxPLpMmMnkhgn7gL+sniZZgXHPm0Y+dBW3jd978vmvTvp/eiKDmJDj8rJZ/PyEbTMH0zX90cHbLqNkSdfAe+cwz/c8w/4wcofpOpq3vo8E3gZYFqTf6tvIF8PfrIdWHGMlmw35MmXzGd/CVgWIhltS59VZoi3lJfrl4+VI9/zsPHyPso8enBOlL9sHt1OUq9whVazyRfjNSt9cr/nPum6E+tkyJOviB9tj+Jvbv0bLH1mKRy6X5DNW5+HnQ+Vodu/3ydfH75HOq6yxu6EPPnq+O4TAGe8kLENBZlWWoiPqSp+qufWVN6qINIPlV4V792J/eU37SffPy8DDLkq1RP863tl3V/ZcZAnXzG/aWQT5t84Hw9sfqBwfR52XgacMi0UbJKvB59OsN300z9d/lYmZHXcVgBtlRMKSmPBqgxmQ29kqrw/N2umpCc/w8Tr949AHn2vy+Qj0itcwY6TfCYvB6nQClTK75C+t1C2Vb/Ik6+Af2TbI1hw0wKs3b02d322guRh4rP2vY98PfmUrPYAsSVPvkJ+thnghyYBVpr0uYCdp4w8aWXyec7TytdkXrJ57k0VvEcjQaz1WJx8f3zo8bSprMm/v7+OPPnp4W9aexNOvf1ULPrDRThg9gHF6rNIGyY+D0O+vnxv5hw2efIV8b1fAvaSswTktGXheiIQ4vOUWRWfJ1+ojKbycvC1ytH3vQpe4knv79GHbPLFeT8A6dUoafcMUFa70LYM0MiTnwbeweHSRy/F1+/9OsbaY7nrc9H63xRe7vsngpZ030F+8HwuDSIWIj9j+fRHgCxZgZ11UL8tOhHIMVGujNeDkXWebkj40FbbuqwqeGrapFem5CSiF0S3PuW95+TJV8yPu3H8433/iO+t/B4cXLQ+WwHZMPH6iZ9uw7I8GaCSrwcflW8P0o5lI09+inzLDNATUZD0Qfm1L5RHl5k3IM+jfnh9DtI37H7rPjik86Ja3q+QyAHPd5jeL1dRyBfj5TbmS903ea+y2il58tPE757Yjb+7/e9w7Zpru0UY9VkGXzptGHjd3kN5ZBr5evCT0pNcvx8aT8mTr4hvmaAOqEMBdp7AWx88j2IDRxm8l7wYofMMXbwm8pbkwKsngVXy6O0wLb8MdMkX4+WKk16VMlejrDrjgzOrPyBPfpp5/8tAD255MFqfi9b/pvGhyb609QSC/OD5LoReOxS4kSdfMd+dAMSCOesAIX9sshAqZ1CSFyN2wYaFt+TEy5enB+gy+QKSgS75YrwcdOQkQbI9EwtZj/w9lVuoffLkB8A/tv0xfGzpx7BpZBOAcH0uWv+bwofy+EmCnCyQrx+fUmjspJ/+afD3fgk4MSBtw7BDaVbZ1gkVUdl87D1lMU3jrXuQoGeA7Rlwq+DlaanHpFa6XGkhX5zXA5MesIJK1Fb7yZMfEH/nhjtxwg0nYGRixKzPRet/k3ifx3oqKF9e5OvJdzMiPm7ST3+F/t6PAFnyfhdhJJcoXyxP7LjTxevz9QpNXprOZ6nq+6EkO8hoQEq+MA/AHJC8v5AG3U7Jkxf62RM/w5nLzkTbtTu4Wj0vUv+bxEvF+oOiK9Hkq+cpqm5KfwlYruh6WYF8nslAExVbLR9GXuYZEF90dZp8Nm/Z1qpVOnOw2MDByJMfDP/N+76J7zz0ncl9K1jOqv9N4/1CgO8PrCcEsmzy9eEpqm7q/RlQH/w746WV52MoRT+qUgdZgXPsfJvGW3ljk4WKeBnQhgJTHfCSz8/7fcvnZQ5KeSaORZ8ukSdfAe/g8LlbP4drnr6ms68CsTz1v2m89vs06ZMBJ/n68aZCYzr99Ffot/8HIDFeukD9hKBfexAqOhmx3n9T+aLXviJeB7F+gJPpVhBMPj/vFVqByhyUQqpJHSJPfsf4Dnzyxk/i/k33p4Iyrzz1vym8nAjIfc9ZZZKvDx9UqI7TT3+F/nx/BJZ3diGfFsTSQunTtW9dlJrO0Er1W/dG3xfLXwUvEbWC7WUFs+Tz8XIbmkSk5JC+XyEfefI14VfvWI0TbjgBT+98GlJF638TeLn1kosB+kW+fnxqrAzZ5MlXzNtfAo51wpLTgXSy9+UiabG807mv+93YTElfi6byicHq++IMf5m8z6ZWUXwnqQdEz5Evxst0actyUsFHgvT9kj7dB5AnXwcewLL1y/Dpmz+N7WPbC9f/JvE6n9wPrUSTrxefGitDNnnyFfO9TwBiHa0la4LgA83QTCRLeZgyeOu9hc41dC2axlv3xNrX/qp4jRkdJ/n+eaAbTPhJhDWpoKimy8Hh8tWX45y7zsHIxMikP6v+W6u5deZT71sHl3vZUN9AfrB8JxPCY7WVRp58RXz3fwCsoM37koDfkg80i0werPxV8ppxhp0gffGazut7YrF65lg2L/HAqrb0WY9Syefj9aqUXnE0FetYkhwMefID4ifcBC5ccSEuevAitF07V/3XK+915yffbmAxwHqKQL5mvF7AC63Wyn3y5Cvg098BCMQFPUrUNpQe84eYUFqZPNB9n/LiWFs9CDWdlwG5ZLXtVREvB77QionsRMkX472tlWsSMFko7P4g1r7Jkx8gPzIxgrOWnYUrVl9RuP43kddPEWQ+a5JBfnA8RdVNrVTnagWP2u9VZLKQl++H7YePvW9dnr4WTeXlqppmY8F8BbzuHPUjbmv1i3x+XnLS9vmCg1KNgjny5Pvht4xuwWdu+Qzu23Rfrvofs+vMa1sy5OvH98hl2C4HQ578FPnWpCPU4WrpwNKyQ4ox+thZ5U2Vz8pjpQ0Tr4Nzq8JUyaMbxMpAdrI4YcsOlXw+Xk8OYvk7DrG12rhuP+TJ15h/YscTOP6G4/HMrmcy63/R9lIHfvLtqz5CcuTrx3czZthJDoY8+SnyrVRHO50KHdvlsKfKO4OJ2cPCh6QrTJZK4K3Vk0lc+MkX50N5gvkTtdUKdSjkydeRB3D3hrsx/8b52Dm+s4ME6n/R9jJoXrd73ZY1R75ePEXVRa1UJ5sVQOu6PJUAfZAq2iaHhdeTh0H4YQSgwg+kV8TIF+P1Y+ck6a5UedtU3gklbdoNsH/xxC9w1p1nYaw9ZtZ/3S68Qu1l0DyQbvu0m2MHFarL5MlXyHc+AqQDfw94vxPpemut0ljlWMygbCi/dcGG2T9oW0g/PtVp5PvjdZCvA4zgqpRcSc17X8mTrzF/wf0X4OKHLoaDS9V/3S68Qu1l0LwlK09skk9+sLypUHxCnnyFfCsVyFtbq9O1DligvueSnHiUyftz93zovWh/03nvl1vtD9ll8t4VCGBDIl+Ml8FF6MlBbwG6QPHSPvLkG8K30cbf3f53+O+n/jta/4u2l0HzeUS+hnyoToeKJk++Ir5lgrpjtQ6i0x16A2srX6gjD0lOPAbB6/NsOi/zWPkSpO9R2bzHXfrz6nplWj/2Jl+Ml5IrU9HV/8kMyL6P5Mk3hN81tgvH//J4rNiyIlX/i7aXQfOx/PIjROTrx3ecsOu0rt/kyVfMp/8HIK/0gf1+6MChvIOQnIxYaV6hCzqMfBJhKuRlx5jnESr5fLwchPQqo3/1BBrWRM7vJwE/efIN4tfuXouPXv/RyV8G8sGbbBNAvL3UgbcmDbqfIF9vPqpQ3ESefMl8dwLgO1L9AsKF6aBOlmEFh3mCxjxB5VT52AUKTViGgdfXyl8LbVfNe5cxwFnSqyjks3k56OgVKu3rOMRWBk+6PulAizz5BvH3brwX82/q/jKQ9eQs1l7qwFsTBL3yTL5+/KR0zESb9oDs7gTAd5Syc3WGTxeU5LD9vuXXyjNJmCqvFTr/kJrOe+VhKuLlIGcNiJLRgyL5bD5rBVH7u0Bk3wdcoQ6FPPkG8FesvgJnLjsTY+2xYEA3iav2MmheyrNy37LJ14PvJtKmXQ+7+0dgIfkMDr2ZLSZmh/h+0qfKA72Tmqz8ehLUVD5BOq9XgnRZVfA+SQxu+qUZ2dGSz8eHVhB1vpQS2G1Y+8mTbyjfdm0sXrEYi1Ys6mkLedpLHXjt0xP60Eo0+XrwmYrFY+TJl8h3fwbUb/PYcjvFE4iqygtlBbByX5c1THyeeyjLq4CXg1tstVsHq+Tz8UDv6qIuK5dCdYk8+YbzI+0RnH3n2bhi9RWF28sgeS+9EBBjydeL7zhgi376p9HfSgWQ0naGbRWqWasMzcfk0/NOmvvhfbAaOkfLHhY+JD2gVsXL09Ido/LLIJd8MT40CFlPE7pQDps8+SHgt4xuwadv/jTu2XgPgPztJfQEbbp4K036rScH5GvGh2IV+umfRn8rCCViP4FdQKK2Vr4s3lLeQH4qvA9W9Xuz7GHjY5O12KShDF4ptKoVYsjn40MBRaiM1KRY+vVEjzz5IeFX71yNE355AtbsWpOrvRRtX2XzWjrYzFo8ID9YvpMQ2Jd1ljz5aeBbPZktOaQPYNmhTjhUThY7HbYeHEIaNj4x0oB0xamYt1ahrX29UkY+m89arTJXpOSEUfqdkU6e/JDwd228C5+66VPYMbajg0Tai/+oR972VRXvJT96ErLJ14cH0K2P1ricCD+Enzz5CvjuR4CsuqoL1bZmY7LKtzpmXV6i7DL4cH86/NLXRN//xGDK5GWyMdDpFRXtI5+fB7qTAr/aaK1UdRxIS7d1J7bkyQ8R//Mnfo4v3fkljEyMZLYXbU8nb60qh/y6LPL14DNVND4hT75PvmV2lLoga0bhFJcoJlaGZkMdts5XFm/lz2qnw8jHrqOVv0Rerlr7bahzJd8fD3QnBTLY8L7UCpUzXolhkyc/bLwDLvz1hfiXB/8FbbSj7cW3J5k2XXzs6YFWaBWa/GD5TqLYOuXTfvLkK+JnAwqSnaKsu0lgq2XlCe07w2eVIU++DN7KqweGUP6m8zqflIswZfE5Zqdyxcvvk++Pl4GE5lKDk9U+Q32BdS/Jk28wP+7GccavzsDLDnwZ3vOi9wTbi7VaH2tfZfOWrduyfGJAvj48gNzjYK5xnDz5KfDpfwIOFSSDaijbobdztRirjDxvQp9HmXzWOQ8zb+VJ0HvNquClS3SK+qMucsXLGhjJZ/NyRdHy90hOICG2CXrbLnnyQ8xvH92OE288Efdtuq/jNtqLtWKv06rkY5MILfL14bvOABwqijz5iviWuVqiAzvvM4K44AF1MBiSDhKdYZfNJ+qFiA9GelN5r1iQLgfKKniPBwY+yw49/iYf5uXqk2Tk4NUjKyCSfhk0WW2NPPkh4dfsWoOPL/041u5eG2wvRdtXVby1ABBaqSY/eL4DqJeUrp/Wizz5kvjePwLTHaJTftlpynzeluUkKt2p/VgZOn8okO2Xl+8pj63fd1N56/qHVDEvV0Us23ei5PvjracCclAyV6V0mwXCbZo8+SHm7910L0684UTsnthttrUi7ats3ttWO7YCVPL14CeVwK6fVl21XuTJl8S3EJOEXcSn7VBZWYx13Cp4GayGbORgmsaHBr2QXRXvT8uFf/LO+/WgRz4fn2cyEZSF+PtrpZEnP4T8FU9egdPvOB1t104jBdtXWTxg9wHaL4NT8vXgc6nq2Ic8eSH7OwDWzCKrYBlsIsOW+zHeBewyeGvfUpFJTt157Q9ds2ngdWALxINT8sV4vy/9oYGrU7jYysPGgify5IeZd8CiBxbhwhUXpgK9Iu2rTF4yPsiUCwCTb8kok/xg+UlVHduQJ5+Tb006koxMVsGW9EQhKeAPTTq0XQYvOSf2Q/aw8EB6UJSy8pXJe2Rvx6gfo2q/Xk0hn4/XL59mDVzpm2O7U/WNPPkh58cmxvClZV/CFauv6An0irSvKvie0w0EouTryfdIxirab2UjT75EvhUNln0hseBP5+uHt2zkYPrl/fvSgWvMHgbeb/UEQttSFfGhR6ehDpN8MT624qjtjkNss+5xiCFPfgj5bWPbMP/G+bh3470dd8H2VSYv275uwz7glH7y9eG7GdGtY075NUeefIV870eAZFDp7URlguK0EmVHJr8mX4Tpl/fvy7oo+nyzLmKTeK1QvtB1LYtHt7PUPgA9Ax75/nj9RECvNMqVxZR0H4DAPnnyM4R/etfT+MQvPzH5y0BF2leZvF5ltiYKXtJHvh58SqGxMyTy5Evkez8CFAucrcAyFnhaysNMh+R7c2Jf2wjYTeZD9zU0WauIl6tZesCbPG3hJ1+M16uFlq0HrElZk0xrnzz5GcTfs/EezLtxHnaM7SjcvsrkJRvqD/QEn3w9+B7FxnTatKfBbpmdYsxOlG2xCPhDzHTLClyBdMAKw246rytBVrkV8nr1RK+ihPbJZ/NWfu+TW+ccXNGZeUGcPPlh4a9YfQXOXHYmRiZGcrWvou0xi8+S7g/I15gvEnfRpl2B3TJnCLpDdMZL81Ynqv2h8q18sf2p8onBhM5Tv+cm86HZYJ5jlMX7XZf+HeXQY1K/Gka+P977rQFprD3WnQBY7dpvpZ1EOPLkh5h3zmHRA4tw0QMXYaI9MekLtS/r6d1UecPPgKAAACAASURBVOvpgEy3nhaQrw9vjpVZdZQ8+Qr4lhkMS1AqUdsiCh1jEJKdfqL82gflazLvX07ZMPxV8RFZHSv5/ngZPPgVROsR9Uh7xL6nkwWp/VAdIE9+hvD+l4GufPJKtF072r4mi8nZHvPyUnoiQb6efNu1Md4e746NkxnEvvbrdPLkS+RbKTC0zXMAa8KQVYYlnV4lLzt/eY4O6Qs3LLxmLLtC3qH31xL0YKclB0Hy+Xj90QHNeHvr6Fa7TXs71u7Jk5+h/Naxrfj0zZ/GPRvv6VkBtj7KI/ez2mMW7229lWmxyQT5wfFt18a4G4e5YmtJMuTJV8C3zAJ0xqwDyiA0j2InPd2S55znvJrM63toDXxWYF8mj87HToBux+hXS6yVFKsjJZ+P14ORDFS8vXHPxr2Z0bvVdiiNPPkZyj+580nMu3EeVu9Y3XEZ7csKDGPtMYuXEwP5km3fb2Mv8tPPT7iJztgXmlhK5ZmIkic/Rb6VCt6gYPkKyUqLBaOhsvLObMrgiyjvxKbuvL6XscGuIt7BTU4A9IpXaOVEMuTz89qWg5W31+9ZvxdC72QOSNczz5AnTx5wwJ0b7sSCmxZg88hms31Je7KYSHvM4rVCkwjdV5AfPD/hJjAyMVI8DiFPviK+leoAsw6QRNI0V1R5ZjZl8UB68uDfmx4IhoXPo7z3t18e6HzuXEh2lHqQCw165OO8NVHQq4kA8MSOJ+z6M5lZFW4FTeTJz2D+qqeuwim3nYI9E3tS7Ss2cbfaYxYv88knBlLaT74e/MjESPcjl0XGZ/LkK+I73wEIBXAu8MoTjE5FRcvo55h5gmQ9IWo6H1PRCcMU+K0jWwH0DnopXK2CkZ8ab2m8PY6ndjy1N7MBxOoMefLkJ+3vP/J9nHf3eb2IsWIcUx5ePiGQTwxCiwTk68PvGt+FHWM7EJWsAnm6cfLkp8D3/g+A3MZelnQZeWX1ebqM2IpMP3wsv3U9hoXPM6DJiUVF/MY9G3s6RiA9+FmrYOTz817Sp9N3jO3A0zufzld/QgsA5MmTRxttfP3er+OHj/6wmyQCROkLtcc8PNBt+/KJQJ6+gvxg+XW718HB9dYl/wLSdUv6yZOvgJ/dA2qFAk6nGCdsfSKWLX2hY4TOoww+dH6xtGHiQ/n1/cl7bwvyG0Y2pDpLP/iFHquSL8Z76UmC5LeObcWTO5/sbc95+gLy5Mmn7LGJMZx080l4+UEvx5sPe3Mnm1odjrXHvHzoyZ/sG+TKNPl68I9tf6yTIRTDhGIj8uQr4ltmIV5ObfMqCdh1Uez8ss696XyISdAbwFfIP73z6V5crXhZNvn++FA+5xzW7FzT/RLwZGJgC8TvNXny5LF1dCuOu/44PLXjqdRkvCeb0R7z8HKCoBcHJk9TBJ3k68M/tPUhdCHYCo3Z5MlXwLd6Vm91sCb3ZQEhPku6U5UTDL2qYk0+yuJhMNoOqem8dZ90PiuAL5FftW0V2q6dWk3Rqyf09+9Pkt7fEZc+b9/67K17E2DfQ30vQ+2dPHnyk9uV21bir5f+NXaMdz7vLdtirD1qv8V7yRVmmaaDU/L14Mfb43hk6yNdh6w/1rgdG2PJky+Jb5kJVsCcKCZ2sCxZZesONdQJl8HrNGfYmhkWPk95UhXwW8e2Yv3u9ebKiexYrVUV8vl4ny4nBTJtvD2OX63/1d7MKCby5MlHtfSZpTjjV2dgrD3W0xZD7dFq5yHeTwxCfYEW+cHzO8Z3dD8ClAJy+siTL5nvfgTIiYRYwFymQsfQbUkGuGXxcrKTBOxh5LU0p30V8CMTI1i1fZWJ51nxJp/Ny5VFHUgAnY8q3LXxrm6GWH2x6g958uSDvHMO//LAv+BfH/xXOKQ/EhJqs94f46381hMEPcEgPzh+055NeHjrwx3Aql9aWfWRPPkS+O4EQK4exzo8azU5tPJsnYguw5JOr4KPPTGIHaPpvPZZk4dYGSXwIxMjuG/TfalVL7+1/CGbfDavAwcAWLV9FR7d+mgH1hN+awEglk6ePPkUP9IewZnLzsTSZ5ZmtkeZJv1ZTwD8ftaiAfnB8ndvvBt7JvbsdSBdf1KZlE2efAV8+kvAIdl1u6NQ8J/FF5k0TAcvFXq/TedrIOcclq1fZqbJ1S+dh3wxPvaE4P899f/QRntvZlmQddAIQ548+SC/cWQjPnvLZ7Fy28pcT/hkO7b42AKAzONt8oPn266Nm5+9GRRVN/VOABKxzRNAaj7UGVq8U3mceFl5pouH2I+9hybz8lpklVMRf/u62zHWHut51C2l/T7wJZ+f94GDXqHaM7EHV66+Mt5e9T3Mat/kyZM3+V9v+jVOufUUbNqzyWyPQP72G8tvBabkB8/vHt+NpWuW7k1Ar1yGTZ58hbz9BMClQTNNb7MmDZKXkwG/DU08quD1ewzll+c8DLxP09fNuocV8qt3rMaKLSuCK916JcyvvJDPx8ut9j22/THcueHObmHWvYq1ZfLkyRfir3ryKpxz9zkYmRhJtUcdPMp9q/1azOSpBGzyg+Mf3/E4lm9avjcjepVk2OTJV8jn/wiQVUgo+M7K1+/xyuT1ZMAKmKHSh4nPowr57WPbceMzN3Zw1WlaQSyAyRUX8vl4vULl9aNVP8JYe2xyPzjZtyZy5MmTL8y30cbiFYtx8YMXo412aqV/EhXtO9R+Pef91lNC6Sc/ON45hytXX4lxNw6KqpvsCYDuyEJ2KG8RhTpT6QsxZfE6kJbvX7+fpvNWkK6vi7yGFfHOOVy++nK0Xe9gGBr0LIZ8nHcu/RGCPRN7cMnKS9ITxdj9szjy5MkX4kfbozjjV2fgmqeumWyPAMz2qve97ScIVjAaWpEmPzh+rD2GSx69ZC+I7taKRbTIk6+Yb5mQC7xCheYN+i0+NrlwKDYZKcprFZ28NI2X119fF2u/Yn7Z+mVYvnl59/SMla+e03cu1RmTD/OW79qnr8Uj2x6JTyilX++TJ0++b37b6DZ88sZP4v5N93dw4+ld6ImA5+RTAz2R0H0D+cHyd2+8G/dsvGdvZnS3ecZ28uQr5lupwE1niG1lpyfjDmu24YNznT4o2yvrQjrFNJ0PMda2Yn7z6Gb81+P/ZWYJBbn05/OHBqV/Wv5P6Tah27tup+TJky+Nf2rnU/jwdR/Gmp1reoJJ31ZjT/30R4SsNPL14b/z0HfgrAEyVFdCIk++Ar73fwAkHAscswI+iw2VZQWzVidbNq+3ed5T0/lEcfp6WdsqeQA/XvVjbNyzMXWqoRUWvcJN3uatx9H3bLwH1665tnuffJuR9UcfTjLkyZMvhX9gywM49tpjsXt8d8ftXOrl/V66ret079dBKvnB8Gt3rcX3Hvlebx3xtqwjMGzy5KeBb00mZkl3dHnUTx4g3/mUwVsdtcVaF7GJvFYN/A9ueRA/e+Jn5kddYsEs+TjvJScF5951Lhyc3XHIuiTrl2TIkydfGn/zszfjQ9d+qPsHUUBqVVkvAsi2HusTNEN++vkLll+A3RO742MwjDTy5KeJb6WcusOS+/IAMk8oPXTgULpxgrlUBS+ZrPNtCi8HJu+X911fl2ng22jjwl9fiE0jm1IDnyU/IFoDJfleXvqWrV+GK1ZfYebpgkgHL+TJk6+M/8XqX2D+TfMxMjHSs3qcp617yaBT9xPkB8Ov3b0WFz94cRfS9x7C1vETefLTxHcmAFYgJ4N1p9J0gVZwZ51YkY6yiKrgJZNnwtAEXt5L7YtVoor5ezfei0sevSS1omJ1vN5vrcCQT/udcxhvj+Psu87GaHs0xU/eH2tybrUT8uTJl8p//5Hv4/O3fx67x3en2rRs9z64jL2KsOSr4Z1zOP+e87FxRH20tQ5xDXnyQt2PAIVmDKHgXx+oyMkVfSNVSr7HPO+36XwoX5Yq5Nto41v3fwuPbX+sg+8dBGMrYXJlhnyal3kuX305rn362nA98T6gN1ghT5585XwbbSx5YAm+cMcXsHNsZzeLavNZHz/R++QHw9+78V7858P/CYqqu3o/AuQ7KTkhCEl3etrOw1uMfGWpXz62bwWuVufdRF5LlxMbwCrmV21fha/d+zWMTIx0sxuDX0zku/L7m/Zswjl3nZNe/bfqhK8/Vhp58uQr4yfcBBatWIRTbjsF28a2pT5WIp8EWhN9zU8ekvy08nsm9uCLy76IbWPb7MmhlE4jT36a+e7/ACSwC5J1XQZ0VnAZ6vRkWigY9WnyJfOXyTvFeV/oGuhym85DMUXuZYX89x75Hq568qrUistkcTVb6ak733ZtXLD8Aty36b4OEJsIyvpjtX3y5MlXyk+4CfzbQ/+Gz9zyGWwc2TjZ3mW71k8BY37rqSH56njnHP71oX/F1U9fvTcD4nGPTiNPfpr5VhAIFSZtHVTmCThDPofezlEezyp3Krx8b/pcrPeq/U3lrWul72doAjEN/O6J3Tj9V6fj6Z1P93zMZbI40QH7fW2T7w5QNz97MxauWIi2a6evt9739SMRNnny5KeVn3AT+P4j38cnln4Cj+94fLJNy7atJ/4++AwtDpCfHv7eTffia/d8DWPtsb0gerfeli+oNPLkp5Fv9UA6gy7Eywomtd8KUC2FJh0WUzafZ5Kjy20yn6csXd408w9seQDn3H0OxtpjqQB4sijD5/3kO/4NezbgtDtO6/7Hgrz2Dun75H2y/ZInT37a+TbauOLJK/DBaz6IuzfcnXoSACDzKanuF8hXy28c2YjP3fo5PL3r6S4UGpv1WEie/ID4llmIhvW+Ffz7SYLmZCcXU2g2UxVvSb/nrMlME3k90dP+kD2N/H88/B/44cofph5968fh2ibf8Y1OjOLcu87Fbc/elr7GgB2cWPvkyZMfDO+AOzfcifdd/T5c+eSV8P8mKz+eItu9tRDg+wPy1fIjEyM4+86zccMzN6TyUFSdlWAx3GSwGAospUKc9+ttVjl6khCyUTKfpSJsk3l9rbw9YP6QOYfg+vdej2MOOSYCU1rOOXz3ke9i/k3zO38wFKsHVhp58uRrxR+wzwE4/XWn4/O/83nMbs0uFLRKhnz5/ISbwLeXfxun3XEaRtoj4TgEwhfaJ09+mvnOBMBnigXLeQN6aRcNWqdTsQmDtiF8TeZlHi1debKC9Wngj3n+Mfjle3+J5+773J4k2THLDtun6ce4M4m/5dlb8P5r3o91u9bF22OozpAnT752/KzWLPzly/4SC9+6cLI/1P2CVJ5+hPzUeAD4waM/wPwb52Pn+M5UWqcgpO91TOTJTyPf/R8AXYi2dUelbd25ZZUb88WOUxYvlSDd8TrhHxZeMkD62uh7OGD+/k3346PXf7Tn+wB6VUbua3sm8QDw2PbHcPwNx2Pd7nUwpetIqJ2SJ0++VvyEm8Alj16Ct/z8LfjV+l9N+uVCgNz6hQLLT37qPABc8eQVOPnmk+3g3xqLYyJPfgD8LLwXZ/dkCgWOQG/B1kwj68Chk7PKBOxzKIPX52Px1rVoOm9xuuJoDZh/ZNsj2LBnA979W+9GK2kFV21CgfFM4AFg7e61+MDVH8Dyzcv3gsie/Oo6Qp48+VrzG/ZswHdXfhezW7PxxkPfiNmt2ebCgbetJ4Xkp8Y7OPziiV/guOuPw7bRbd0xrMj9JU++Bnx3AuAz6CAMEVtvLTZ0YqH9JGO/DF5vLVvybkj4UIUIXZ+a8HdvvBtj7TG8/YVvRytpZa7c6M9vDjMPABtGNuAj130Etzx7i1039AvGljx58o3gJ9wErltzHW5ddytef+jr8YI5LwguJEh/1mID+Wy+jTZ+8thPcPwvj8f20e3p++W31kv2zeTJ14BPTwAkIG0riNQHgNqXAZ0V3OWZaGSV0S8fmj3F3mvTeX0dYpWjRryDw+3rbkeSJHjLb7xlchIwiaqOW6dZAfWw8Ov3rMdHrvsIrn/6+nRbnMywd2tdc6sekSdPvp680GM7HsOlqy7F7NZsvPZ5r8V+s/ZLrVbH+hntIx/nRydG8c+//mecfPPJ2DW+K9zfhkSefM347gTAdz5T6bQ0kwh/onjts9Ji3FR57Zdl6Pet31+TeXl9JKNl3bsB8m20ccuzt6CNNt582JuxT2ufLr539UauiodWcYaJf2rnUzj22mPxyzW/tOuCrudQvlC9IE+efH15kbZ7Yjeuffpa3L7+dhx54JE44jlHoIXep6QAosGt9fl28r381tGtOP1Xp+Mrd38F4268955IJZEXefI143ufAHggz1b7vB1bgY+VYe1bb6IM3gqSgfT5ejt0zKbxsUqR9TSnBvwEJnDLs7dg88hmvPXwt2K/Wft1cKPztva1v8n88k3L8cFrP4g71t0hEky8Ny3W1smTJ19v3kh3cHhs22P48WM/xvo96/Gq570KB+97cBcX/Yj+FTHJWJ+BJw8s37wcx99wPH606kf2OAak454E9nhMnnyN+M4EwCfoDijWIVnSK/CxvLIhaVueqD7pMvhEvaRC5z4MvPVkJ6Sa8m3Xxl0b78IjWx/B7x/2+3jefs9Lo2JFPbbq00TeweHKJ6/Ex67/GB7c+mDq+pjXzdpqJs9knTx58oPlZboc0wCMuTHcsf4O/OKJX6CNNo466Cg8Z5/nBL/c6reyrwkFxjORH22P4tJVl+KEG07AvRvvjccX1j0CefL15rv/A6AL0sGE7pSsmXDMZ6XFuKx8U+VnokKTohBXZx7A657/Olz41gvxpsPehATpYNoKoL0NoHH8rvFdWPTAInz17q9iy+iWzOuTkk4nT558s3gg13iXIMFrD3ktTv2dU/FnL/kzHLTvQcGPGE4Wr9JnMr9q+yp85a6v4EerftT5Q8XJTMgXb5An3wC++wTAKwQnhq3ZrLyxzk4z/uSlXSYfUt6gtIl8yA6xdebR+enLy1dfjjmz5uB3n/+7mN2a3ckaWN0JfemrCfxj2x/DybecjIUrFna+gJZ1fawOINQhhDoM8uTJ14uXttwaWrd7HX7xxC9w9dNXY86sOXjZgS/DfrN7PzapFx/kU0ltzwR+98RufH/l97HgpgW47pnrOp/3lypw/cmTrzufYDEmkKCVO7iMFaqDT3lSecoPlVUFr/Pp/NIP9L6vYeAtG4K1yq0pv09rH/zJi/4EX3vz1/CK576ikyQ+yymDbL2v/XXjRyc6j6HPuescrNy2UgAZ18dqD448efJDx8PwK36f1j445pBjcMIrT8D7j3w/Dp1zqNkfATAXKUL917DwDg63PHsLzrnrHNzwzA0YnRiNXs+i1588+RryowkWYwQJ9p0sIJQpdECdXsRvpWnOenNT5fPu+/y6rCbz8tpLhe5zg/gXzHkBTv3dU/Gp13wK+8/a33wMbH0ZDID55a9B8yu2rMDZd56Ny5+4HCMTI8WuT6xTgEjrHQvJkydfd97iYhL8rGQWXnTAi/DRoz6K415xHI466KjcH1UMFt9g3vez37zvm/jJYz/B9rHt0bI7mdD39SdPvkb8hgRL8CyAw1IZ8wYXsQNlBa3WSWdxZfCxTlRfg6z32mTeunYyHm0g30ILxzz/GJz+e6fjz1/65z0/F2p91j72OdFB8ZtGNuEf7/9HLF6xGJtHN0ffb/D6WPdesuTJk28mHxu/tALjXYIEB+5zIN55xDvxV0f9Ff7kxX+CObPm9J6OEURb311qKn//pvvxrfu/hcseuww7xnYYF89QVvxAnnxz+BUJFuNeAL8D5MhgBSBl8EU7uDJ4nTYTbNk/WtcvpibxSWel6w2HvgF//3t/j/e86D3Yt9V5yJW1MhQbXKrmt41tw8JfL8QFyy/Auj3ryrlfVl0PtRvy5Mk3g8/T52eVudduoYUjnnME3n/k+/Hhl38Yb3jBGyb/SyBP/9Yke6w9hmufvhYLVyzE1U9fjdH2aOnXkzz5RvAJrkywBD8G8AGzc7EKLmrHTjCWnufN9MvbFyN+nrG8TeJDg4q2rfQm8gCOfu7RWPDqBTj25cfi0DmHYlYyK/Mx8nRprD2G1dtX46IHL8LFD17cu+IPTO36WHaRdkCePPl68TDySDm1bx0jg3/FQa/An73kz/CnL/lTvP7Q12P/2fujhVYnObDa7tNiq/CD4sfaY1i1fRV+9OiP8L1HvodHtz+aHhO9rVXC9SRPvqb8PyRYgtMBnGegcVnBRxOVt8MdFnsG66B9DsK7X/RufPjlH8Zbf+OtOHi/gyc/IhT6bH7oC7tT4SfcBDaNbMLSNUvx3ZXfxTVPXYORtvqMfxnKc9+L1hPy5MnXh69YR8w9Au884p14xwvfgbe98G144dwXYu7suZiVzDKDbiAdlMeC9Cp4B4ed4zvx+PbHceXqK3H56stx+7rb07/oQ1EzW3+RYAneAuBmAP2tSkCx0q87L2u2YqWF8pXJO7WNnaNeLRgW3romVt4h5F+w/wvw1t94K979onfjrb/xVrxw7gtx0L4HBb8zYAX8Wb8+MemHw86xnXh297O45dlbcNVTV+G6Nddh3a511b1fq33kqQfkyZOvLx+bEBSdMBTkZyez8aqDX4XXHfo6vPHQN+JNh70JLzngJThgnwMwd/ZctJLOU4KsX9wJ+frlx9vj2D62HRv2bMCy9cuw9JmluPXZW/HAlgcw4Sb6fr/kyQ8t77ALCV6SYBHmooVfA3hpKnjQgWWegCTWWcX4om9gKnyog82bZ9h47wsFmEPOz2rNwssPejl++3m/jWMOOQavfd5rcfTBR+N5+z4Pc2fPxXP2eQ72a+0X/Uys398zsQe7xndh+9h2rNu9DvduvBd3rL8D92+6H8s3L8eusV3T/351m7Q48uTJN4evSWBx+P6H48gDj5zsP1998KvxkgNfgoP3PXhyYrDfrP0mJwdAut/MPJ29iykjEyPYOb4TO8d3YvPIZqzcthLLNy3H/Zvux8NbH8bDWx9Of6a/5PdLnvyQ8P8F4C8TLEELDuchwd8XOATVVMUmZnpiFxpsZgC/T2sfHDrn0M5rv0NxyJxDcMh+nddz933u5ADmV5+2jW7D+j3rsXHPRmzcsxHP7H4GG/dshIMb/PvVigUc5MmTrzcv8yVq3ytrMlEhPyuZhefv93wctv9heP5+z8chcw7B4fsfjsPnHo4D9zkQ+8/eH3Nnz8X+s/bH/rP3R4IE424cbdfG6MQo/Ed4to5uxdbRrVi/ez3W7VmHjXs2YsOeDdiwZwPW71mPifZErvOp+v2SJ98oPkEbDn+B+fh5J3kJjgLwKwAHm5m1LdXvKkdWoGKdfJl83nKGkY8FlV5Z15J8c3jZBrMmE+TJk68/X/X4SJ48+WHl74DD/8R87Nj71X6sAvDPk52PDi60rE7LyhsqJ6t86xhl8/o8ZMeb5/00lY/te8kyyDeXR8a+1YmQJ0++Gbzct8a/WH9Anjz5mcc7jMLhPOyDHb3FLMZhSHAFgDcaReeT7MCszqxoGdPB5znnENNEPkuxCka+ufx0tyvy5MkPjqcoitJy+Hc4LMAC7AGA7jdz5mIdgJPgsHYvKDOlZxaaAcJBaYi3pIPzqngZOFnnKH3JEPFaOm+C+EBDvhm8rAeeC7Vj8uTJN4OnKIrqRw73ADjTB/+AnAB8DIDDMiT4JIBNPUGFDzJ0BxQKVHTeLD59osXUT8donVei7GHls8qJiXwz+FCdCAUS5MmTrz+fJRewyZMnP3N5h9UA/j+M4CnpbvVA89FGgivh8NdwWDe5+mAdJLZ60c/Jyn2rwyuTj51L1orMMPDS5yLp5JvLW+00ZJMnT74ZfBHlmTCQJ09+uHmH1UhwLBzuwmfzZFkMIMEb4fBdAK/qWaXQ9lTkRBnTaRc5/jDxeVU0P/l68k2pl+TJk++PzyPy5MnPVP4eOPwVEqzAvDQaL3YhDkELX0OCj8JhTg8d65yskqcSpFTht9Kd8IfyDCNv3SvvJ998XqdJv04nT558vXkoG8IneZ1Gnjz5mcKPIsElcPhbzMcGBKSzpfVPAPbD+wCcB+Bo6I8NaVknStVHoYoUumfkm89TFEVRFDXsagN4GA5nYQKX4SS0Y3D+UGEJDoLDpwB8FgkO70nLWpnQKhrU5C0jL69XXqRf7ltlNJn3TOjah64R+ebyobYZaj/kyZOvP59nP1YWefLkh4t32ABgIYALMB+bIiVNKnY4W4txFBKcBuADAA4qnL8uyrrYmsWQ8DE7IT9UfEhF6j558uTrxVMURXW1A8DP4XAu5uPBIhn763aWoAWHP0SCMwC8A8C+PelWh1bXTk4HTP48YysyTeapmaVYvdF1hjx58s3gKYqa2XIYB3ALEpyPcVyDkzBetIipdS1LMBcO7wNwKhK8FkW+HxBawUTAVzYvGSd8WSutw8Bb0mVlTSLI15unTZv28NkQPhh+zcgyyJMnPyz8w3D4JoBLMB/bIqVEFTt8fi3B4QCOh8MCAL+VCkaAfG94OuWErc8zQfp8h4G3rn2RQYd8M3kYaeTJkx9Onn766R9Ov8MmABcDuBD7YTU+YbAFZB2qP12IFmbhaACnAvgQEswFUPyNhpgq+JmovAGknEiQbyZPUdTwKTQpIE+e/HDyCUbR+Zz/+QDuwfz4r/vkVfmhwiLsixbeBOAsAP8DDq2+j1I0mOkn+Kn6GHXjZZ46B6/ky+Mt1qo35MmTrzefR27vNm8e8uTJ15m/Cw5noYVrcCL25Cwll4p0K8XU+X7AnwP4MhIclStgCe1rTZWPKXaew8LnCSRpD4dNUdRwqZ8JAXny5JvFO6xDgvMA/Dvm9f85/5iqDRPOBnAEDoHDp+FwChIcXOnxiig0icjaDgufdT2yRL7evLzvEGye+kOePPl68hRFDbtGAXwHwLkA1mBedQeanm5lMYAEL4XDl5HgQ9A/GzoIyQ43yw512k3jZR5EeCuNfPP4InWcNm3azbKt/sESefLk6887tJHgOjicBuCusj7nH1Oe0y1PC9HCLLwFwHkA3gJg9rQeXyp0s9zerU4bDO/k5gAAIABJREFUFl4PJDB4WQb55vIx5eXIkydfLz4PG5o8kCdPvm58Gw4PAzgLCX6KecV/z79fTe8EwGsJ9oXDh9D5I7GjkPX/AYNWnTr/qfK0Z45dl/OgTZt2efagj0+bNu2y7HUAvo0E/4x52IJpVpKNVKglOBTAZwGcCOCwgZ4LYHewMPabyocqoVVGzCZffz7ExHzkyZNvBt8PQ548+brwO+BwGRKch3lYWaDkUjXYCYDXErwGwBkA/hzY+/8B06UiQdMw+ENpbu+2SABJvjk8/fTTP5x+iqKaIYdxADcBOBcJlmJe9Z/zj6k+3ckSzAbwP9D5/4A/gP//gFigA3Q7RbnNw2s7D9d0XtsWr68f+WbyOl+sfYR85MmTrx+fd9TOGgvJkyc/nfzDAL4G4BLMx66cuSpV3lOfPi3BQQA+Aoe/RYKjKjtO/SpH9bweQGgPv41AmiXy5Mk3gy8yESBPnvzgeIcNSHARHC7EfKwpUGrlmjXoE0jpcozgPViGFn6GBAmAowHsn/uGWIFuSEWnP8PCy62jfyj9PniAYnW6xZInT76evM6nFRv3yJMnP328wx4kuAwJ5sHhEsyv5s+8pqLQW6mHFmI2ZuH16Pwu6h8jMf4/oOiqSNGZ3bApz/UKMeSbxVMUNZzSbR6wJxKhfoQ8efJV8W0At6Hzc/fXYT72oKZqRqiwGHPQmQCcAeD1Qa5o8ON5awuEb3JT+TzXIq/I15vXdcL7gHQdIU+efDN49uXkydeXd3gcwDcA/ABrsQVnFyh3ACrytgerSwFswSFwOB4OpyLZ+7OhVd/sYVKe91508kC+WTxFUc2VnBiANm3atbCBXXC4CMA30cZT+BQaoeaFCxehhTZ+CwnOBPBxOMyubALQpJlnP7y1uhSf3ZJvCh9iQT/99DfW37wRm6KGV52P+1yFBGfA4T7MH+zPehZVc7uTJWjB4fVIcAGAP0CefxPutwMddKBeJh+yyZMnT558M3ggPSmI2eTJky+XB1YiwSlwuLJpgb+X1b00S0vQAvBROJwF4KVI0Mp9k/UNB7o3HUb6MPFZA4v2k28W7/2xji1kkydPvt683NciT558dTywAcA30MY/4VP1/YJvHllhRTO1CIciwSkATkSCQyc7zjzBk3XjszrlJvLWVivEkW8WH2O8D4E85MmTrzdPUdT0ymEHElwKh3MxH48P+nTKUPbHZpqiBdiAzq8EvRPApUgy/mktQW9n6jtYBPzDwEP5tSRHvtl8Vl7y5Mk3l6coaro0CodrAPwJWvjksAT/wLB2LUuwLxz+FxKcBuCNAGabwXFMctUlT74m8C6MTyovR77evLXCqG1dl8iTJ19/HoqN2Ql58uT75NtIsALAN5DgMpyYsajcQCXZSIN1EQ6Gw8cAfBYOL0u9W92pZqnpfCyPHnzIN5u3ggkpKx958uTrzcv9xNjqMsiTJ1+M77S1tUhwEYBFmIe1GFJZocXwaQleCuAUAB8DcDAAuyLITnZY/VJ1bYDky+FDeaz85MmTbx6fV+TJk8/D7UGCnwL4GkZwHz5T4BgNVJFL2Gx1fi3ojQDOBPC/AMwGULyDbTLvjPyJkWb5yDePt4IL+umnv9l+mQaD137y5Mln8W0At8Hhy0iwFPMwihkgfcmGX0swBw7vBXAGgN9LdbihoMtimsZbDUQPMjGRbw5vBRO0adNutj3zRmyKqlqr4PANJPgB5mHboE9mOjUzu5MLAczCoQBOQOenQw8LsrrTzRt41ZHXQSECeSVHvrm8NVkIBRQxmzx58vXgLRWdMJAnTx5IsA3AxQC+BeApzDPYIVesWxl+LUQLLbwMnacBH0KCOYM+pcqVd5Dx++SbycstaNOmPRT2zB6xKaoMjcPhcgBfRoL7MK+Z/+JbhtidAMBizAbwFiQ4D8AfTvpjM8gm+p1KTyK+WBr55vBSjn766W+0nyM2RfUvh+UATkML/40TZ8bn/GNid+J1KYCt2BdtfATAl+HwYgDpwCrPCk2deak8K0/km8vLfEB2fSBPnny9eYqi+tEGAOehhYswgV1YMOjTqYc4AbC0GIcgwalw+BQSHNSz8kKbdhNsvfVpCLAgT558I3kE9rWPPPmZxgO7AHwPwJcxD2tSqTNc6ctFdbUYrwFwPhL8EbD3+wGhzhliP9Rp15EP2eSbzecpi3766W+mHyotJJ2fPPmZwY/C4SYk+ALmYVlGqTNWWZeb6vx/wHvhcCaA3wMw27xqVsXUHXZdeIj9UGOSLPnm8VDpkqOffvqb6bc45GTJkx9+vg2HBwGchwlcipMwnrOkGSlOAPJqEQ5Ggo8D+CyAl6YC8JAtVTde57UmCeSbzVv1QMuaSJAnT76efH2DL/LkB8mvAbAEDgsxHxtyljqjxQlAEf0jgLl4GTrfD/gQEhw86FMqJLmqpFeYZEBpMeSbxYdEnjz55vJNOEfy5KeTB7bB4TIA30SCFTPx9/z7FScA/ajzs6FvQoLTAPwRHPYF0BuQhWarTtjTzYfu9uBn7uSr4iWr84UmEeTJk68nnxUY0U//zPGPw+EmAOchwQ2Yx5/1LKq8IQdlaQnmwuGPAZyBBL8Dh5bZQdfF9oqxeQYo8vXns1j66ae/2X6IdPrpnyn+jh4G8A0Al2I+toHqS/oSU/1oEQ5F5/sBpyDBEbnyyABtOvmsIJH88PDIYEPp5MmTrzc/qPGDPPlB8g5bkGAhgAv5s55T16xBn8BQ6ArswntwC2bhpwDmAvhtALMn02MrOKEgrireSnMBX0J+KHhvhyYT5MmTbxZvjQOWrH6BPPnm8eMAfgrgOLTwY8zjqn8ZynubqLzqfD/g9UhwLoA/AtDbuYdWcxBgquBDPvqHx68ZK8ign376m+unqJmhuwCchgRLcSI/51+m2J1UoX8DMIo5cHgvOl9QOTozSNf+KnhqZik0GQzVE/Lkydebt1Q0H3nyTeAd1gI4Fwn+Ewl24MRIHqovMUysUosBOByAFj4N4G/hcGihK140kM/D55k00B4Om6IoiqKaIgcA2IEE/w7gPLSxFgsGekZDLYYK06XFeDGAswB8EAkOGGiA6JV3dYl88/hE2ZrR9YE8efLN4mOTfav/J0++zjwwCodrAJyJ+bgrkJMqUXlCCqosnQ3ghXgLHM5Fgj8E9v5/QKyhWCqLH9RxyU8PnyePTidPnnxzeIpqvtoAlgM4F7PwXzgB44M+oZkidi2D0ELsi1n4AIAzALwKQGvAZ0RRFEU1RXVbbCBPvj9+LRwuQAuLcSK2FDgCVYI4ARikluAQAJ+CwwL4/w/Is1ofsvPyXqGVJvLN59myKWpmqGibJ09+0LzDDgCXIcF5mIeVOUuiShbDhEFrCQCHVwH4AhK8D8BB0/LRkH7ykW8OX5QFefLkG8lTVFPkMIoENwE4D/tgKY5He9CnNJPFLqYuWoLZAN4Oh9MAvB2J8f0AK6jTg0XepwNS1moz/c33JwYjOV0GefLk682HnvQ5wcf6fPLkB8cvB/ANAD/FPOwwclHTLE4A6qbFOADAnyPBF+Dw2sKBfRHeypuHJd9cPq/IkyffDF4GW9rOCs7Ik6+aB9YBuAjAIuyDNTjeZKgBiBOAOupSAJtxOIDjAXwWwGEpxgrwswaJ2KRBp5NvNi855CgL5MmTbxRPUfXWHgCXweEbaGE5TuTHfeomdit11hK04HAUEnwBwEcAzEkF/kA8ILQmCjA4S+Sbz2eVk/cY5MmTrw+vlbe/J0++er4N4A44nIkEN2AeRgOlUANWVrdC1UEXYTYc3gSH85Hg7ZN+2QgRsGN32Gq8eQNM8vXmQ3UjycGQJ0++/jxF1U9rAHwZwA/4Of/6i91Jk7QY+wL4AIDzkeDFk/7QrD1PUGmVkUfk681bwUQehjx58s3gKao+2gNgMdo4Dy1swLxBnw6VR+xWmqZvA9gPB6GNv0WCz8Dh4Gjwb9lAeADyaXkDSPL15a0VRvLkyTeXz9On63zkyVfHj8PhvwF8AQ7LsQBUg2SFFVRTtAQvg8OXAbwPCeYCyD9IIAdTr46G/FT5PCJPnnxzeYqaHrXhsBwJzkQLV+KTGB/0CVHFxa6l6VqEFlp4B4CzAPwBsPf/A4DwZIAafjlhZ00QtMiTJ98MnqKmV204rAFwARJchHnYNugTovoXu5Nh0RLMgcNHkOBUAEfDoRV8EpA1oJAfPp42bdrDYVv7lvL0HeTJ5+e3ALgUDudjPh7PyE01QFlVgGqaluBwOJyEBCcAOBxAtyG7QB7ZyJHBkm8GnxUsFA0uyJMnX18eBkOefDn8KIDrAJwH4BbM4+/5D4s4ARhWLcFr4HAaErwPDnPNOy2DRhlEhmoF+ebwLgejyyVPnny9+Vjgxn3ul7+/HJ1fHfwp5mEPqKESJwDDrAsxG7PwDgBnoPP/Aa0UoweUvIEl+WbynnPkyZNvHM8Rm5oOOaxD5zcHL8J8rBv06VDVaNagT4CqUFeijTdiFQ7A/0GCR+HwSgCH9jBWAJkgPUiRbxavA4UksPV5yJMn3wy+6ESAPPn8/C4A3wdwIhx+ggXYWaBkqmEqUm2oJutCALNwBICTAJyIRE0EpGIryuSbycunBXmCCPLkydeP9zYCvPXEgDz5bL4N4AYA5yLBTTgRo0Zp1JCJE4CZpoVooYVXIcEZcPgAgH0za4FT++Trz+tOX9vkyZMfDj4rjTz5OLsSwPkALsMh2IYPFjgO1WhxAjBTtQT7Ang7HL6MBH8A62dDrdUpGYySrz+fR+TJk28eX5fzIN9MHtgGYCGACwCsxbxCeakhECcAM1lnAzhi7/8HdCYCv9WTXrcOi3x+Ps9qIXny5JvHx1S0DPIzkW8D+DmAM+DwIObzZz1nqjgBoIDFAICDAXwBCT4DYC7c3jRdQ/RgJbfk68XrAcIaMGIDCnny5OvNU1R+teGwAsCpSHAVV/wpdidUr5bgaDicjwTvBbBvakAC0gFnaNAiX19eK8SQJ0++XrxUnrZPnrzDGiT4BsaxECfxC75UR7r6UBRwEVpo44+Q4CwAbwQwOxhwajnBkB8cL/el/v/27jhEjjpR8Pj3187Om5cLIS9ILhdCkCAiD/GWECRvOUQWWYKIiIiIJzlXYrrjrnp5QcIQQhxCGIKXzRN3k+7R9XJBRJZlEVkkiATZdwRZJIRFFhGREMRbJOSFkAvz5sb+3R+dmfTUVHX3ZKa7q7q/n3+sqfp2pyOZqvr9urq63XPZ29vnuyelS5N1Mmg/PH3kGoF3iRyhwndtnlFDxgGAstVYDewkspfAFqC06GA1twzZJ6v2ve/bPa75Me2e297ePr99+5NA++Hrp4GzRA7zA3/mF17nr8XS/jlJC1XZTOAl4DliyvcHJE86kwcz+/71yW1pj8t6Dnt7+/z1yd/zJPth7utE/kLgKIEP2M10xrNImf/EpIVqlICtRPYDjwJjmSeoaT+3OqG1705Poks+V9pvv729ff77LJ2eRNoPXh/5FjgJTFHhcptnkhwAaImqjAI7gHECDwAl4NaOCdJPQNOW7bvXd3JCkTWQsLe3z2cvLXYdeB84xr/zJS/3++WoKNzF6PZUWUfgGeBVIpuBxf+ask5Q59h3r087gUh7zNzj7O3ti9G3+z23H46+cT//s8BhSpzjBWYzSymFAwAtT43NRPYBzxFYk9ktdUbLfnl92kxi8wEmebCxt7fPf5+23An7Qeu/InKEwB8oc30JzyzNcwCg5TvBCCW2AgcJPMLcZUHQfsYjbZbLvjt92klFq+ewt7fPX69hdhX4NfAmJb7nhX6/HBWZuxOtjNeA/8gYgZ8Bhwncv6iJi9a0/hdof/t98mQhebKR9V97e/t893PS9g3JAUMz+yL3s8DviRwm8CVlb+up5Wt1eiEtXRWANcBuAvshcdvQ5IGtHfvl9ckDTNqyvb19MXoyurS+1fPaF6ePnAf2cwefep2/VlKpfSItQQWocI3I/wD+M/A2cGN+++Kd2+KfI9kHO/ul9Vnr2v0Z9vb2+evTZovtB69vrP8OKAP/ROQTT/610nwHQN1XYxtwlMh/AUbb/qubmwXpZMbLvvPf4ubHdfIYe3v7fPcuD9ZyY59+jcA7wCRlvkfqEgcA6o1fM8IITwKHCNxDbHr3qd0Osflk177znqb1ySattbe3z3cfEutasS9WDzNEPgYOUuFC21paJgcA6q0qa4FfEvgFsGHR9nYnvvZL67OeI08HPnt7+6WcKLZu0/YH9nnu68BfgCPM8Ade9gO+6g0HAOq93wKz3EtkP4EnoOn7A5p3nsnlOc3/au3T+7STik5mH+3t7fPfp2n+nbcvSn8JeBN4mzJXM0qpKxwAqH9qjBB5kMA48CCx6fMBaTvTtFkV++x+riOlyTo42dvb57vP+l3Peh77PPZXibxP4Dg/4iuez3g+qYscAKj/aqwGniKyj8A/LtiWnE2Z08kszDD3WY9Jm51qNVNlb2+fvz752OQ6+7z2M0TOEpgEzlH2zj7qHwcAyofXgA1spHHbswqwHli4g03buTY39ot/o5MHIEgekOzt7YvSZ/2ep7HPU18n8ldgEviQCtc7eAapqxwAKF+qlIB7gXECTxE7uG0o5H3n3/u+1axUu8be3j7/fZqltPa96SOXCbwJVL2tp/LEAYDy6SSjlPgJjRmT7fOzZdD6X23zibF9+8d1yt7e3t5+Kf0s8B5whBJf84J391G+OABQvtVYBTwNTBDZBCycGUv+nNw2zH3yMVnL2NvbF6JP+93vhH1v+8hnNN7F/t9e56+8cgCg/KsBcCeR/cCLBFbNb0vbEbc6UA5bL0nqle+IHALeJTLNnn6/HCmbpwoqlir3ApMEHiHr8wFZJ8RZJ8eD2qdtb7XO3t6+GL3y5howBUxS5kq/X4zUCXcrKp63KFHnESITwI8JlDp6qzy5POh9UlEGLvb29un9nE73D/bd7qcJnCFyiAp/QSoQBwAqrpOsJrAL2AtsBhafEEP6Tj3rBHqQ+laDgVbPbW9vn+8+63e8eb9g372+8QHfC0QOE/mIPV7nr+JxAKDiq7KZwH7gGWBtZpe9Mx/MXtJwyds+aBD7yCUCxwm8w26udfhMUu54KqHBUAUC24FDRH4Kic8HtHu7vZNZ90HradPY29vnq6dpHa7v6frINQKniRyjwkWkgnMAoMEyxRh1HqfxjsD9QKnjx6YdaAehTw4S2j2vvb19fnv12gyRs8Bh1nGOp/r9cqSV4e5Eg+d3wFXWE3keeAnY2OdX1D95mDlzvetdv7Lr1SsXiBwFPqDCdL9fjLSS3K1ocNUoAfcA+4CniaxOPcCGjJ+z3novQp/1OJdddrm4y3M/w63fcxI/h4zGfin9d8CbBN5hlO/5OdLAcQCgwTfFKHW2EzgEPAQ3bxuadVBNW1e0PutAF1L6Vsv29vb57Jdy9LbvtL9B5H3gdSJfsYf6Ep5FKhQHABoeVVYDj98cCNw9v77ViXWaIvVZj08bYNjb2xenz+cJdFH7OvAnGjeR+Iw9zCzh0VIhOQDQcDkBlLiTwEvAPwOr57fFpq7V7FsR+uTj0mYOW81A2tvb569PE5s62rT2af1F4BA/8Hte5EabZ5MGhgMADacpSkTuInKUwBOk3S0o6+CcJW+9JCnLDSK/InCMH3GV5/v9cqTe8hRCw60GRB4GJoGtQKmj2bm8L7d6h8D1rnd9Mdd7xF6+yCzwAYFxynzd75cj9Yu7EwmgyhjwPLCfwCaSHxTuZPY9b/3cNsi+9CB5smFvb5//Xrdjlsh54CDwCRU/4Kvh5u5EalZlI/AqsJPAuo5OxvO+npRt9vb2xe2zHtNqkDC8fZ3IJQLHCLzDbq/zl8ABgLTYbyhxB1sJHAB2AGOps3Wt5KHPatrNQtrb2+e3T3tM1nLWnzE8/RXgXSKvU+FbJM1zACBlmWKUyKPAOJGthJsfFF7uyXcv+uR/056rucHe3r4wfdZ+Icvw9dMEPgaOMMrn/NzLfaQkBwBSOzXWEXkO2EtgU8sDd9aMVT96SRoudeACkUkCf6TMdL9fkJRXniZInaqxhcbnA54B1gC3TsSh/Ux9v/p2gwV7e/ti9CTafM2697ePfAccJ/AOZa4s4ZmloeQAQFqKtxihznbgAJGHCYzMb0t7iz7tbf1e9FmXE7jsssvFXfaIvVjkBoH3iByl4m09pU65O5FuR41VwGM0BgL3Ae1n8pLbut1nbUsOErL+DHt7+3z1pGxPtrFpfdrzDU5fB84CE9T5jD3MIqljDgCk21UDYD2RCoFXiKxrexBLnsR3q2/ejssuuzwQyx6xGyJfARMEPuQfuM5T/X5BUvG4O5GW6yQlAncDBwk8BYy2PJEnZf1K950OEOaWsbe3L0w/rCJXgePACeAylT6/HqnAhn13Iq2cKiXgQQJHgW3QdNtQ6O2MYVLzyURWY29vX5y+SAOW5fSNn2cJ/J7IQQLfUPa2ntJyOQCQVlqNEWAnMEFkE7D44DenV+vntqUddO3t7YvRk2iTA4KktJPqYvV1Ap8TGafC2ZRC0m1yACB1S5V1NL5NeBeRNZkHRFj8m5icAbudPu0EI20bic7e3r4YfZpB6SOXCBwBTlFmJqOWdJscAEjd9BZQ534a7wbsAMaA7Jm/lVrfvI3Edte73vXFXt8s+TufXF+0PnIFOAW8ToW/IakrHABIvXCCEe7gUWCcyFYCIz0ZADRrdwB2vetdn+/1g33EvkHkY+Awdc7zYr9fjjTYBnt3IuXNSdZS4jngJWDL/PrmGb/krNly1jcPCJplnVzY29vnt+/kiJ01gMhrH5kFzhOYpM5H7PFyH6kXHABIvdb4/oAtwCs0Piy8NvNAn5zpTy636pM6eQfB3t6+GH2yzdpX5Lu/CLwJnKLClZS/taQucQAg9csUI9TZBhwAdhAYmd+WdkBtllyf7NMe1+ngwN7ePp99qxPuVvLXXwNOA28ww9e83MFjJK0oBwBSv51kFSUeAQ4SuX/RjFnW7GCrRtJg6uR3fKn7hF71gTpwhshhIp+zh9k2j5TUJQ4ApLyosY7IbgJ7gfWLtqfNACaXW7Wt3rZ3vetdn//1RT5iR/4KHKLER+zmRr9fjjTsirw7kQbPbykxyxZgHHiWyGjL/nZm4iD9nQR7e/ti9MVyBTgGVCl7nb+UF8XcnUiDrsoIsB04AjyY+ZuaPPm/nZlCe3v74vVp7xgk3z3oZw8zBN6n8R0oF6lQb/0XktRLDgCkvDoBlBgDngQOE7hrwexgcsY/efLf7hKD5GPs7e3z3+dfHfiMyH7gnCf+Uj4VY3ciDbsaa4F9wC+Zu21o1uUDaScVdLDO3t4+332rI/ZSBwgr39dp3NZzghLvs9v7+Ut55gBAKpIa9wITwKNEVmV27U4o0k4+7O3ti9U3v2PQ/Ji0prv9FWAKeN37+UvF4ABAKpoaJeBnwCFgG2R8fwAsPIAnLylofgz29vaF7tOO5mmz9ivb3yBwBjhImb+mFJJyygGAVFRTrKLOcwReBe5asG0pb++3OsDb29vnu++POpHzBA4xzRle8Tp/qWjyvYuR1Nr/BP4fm6mzl8BOIuvmt6XN5CXf0k9bZ29vn8++WUisDy3aleobr+sikePAKSpcS3mkpAJwACANgilKRLbR+P6AHUTGFl02kDzRgPQTD3t7+/z3aUfvbq6PXCVwCniTH/ENz6c8TlJhOACQBslJxgg8CrxKYBtQymyTJxnQeo9gb2/f/z5t4DDXpg0Ylt/P0LjOf5LI51SYbfG3kFQQDgCkQVTlTmAnsJfAJqA/s4aud73ru7u+eVurZul9ncgFApPAR5S50cEzSyoIBwDSoDpJiRJ3EdkHPAc3bxuaNvPnsssuF2e5U50OCJJ95G/AcQLv8H+4zGtLeA5JheAAQBp0VUYIbAWOEHm47exi1rK9vX3/e1J+nluXtb3THmaInAKOUuciL3p3H2lQOQCQhkWNUeAJ4AiwBWg9Q5i2zd7evn/9nE6P3Et51yDyJxq3FD5P2ev8pUHnAEAaJm8Af8caAv+dyF4Cazu6TKCTWUt7e/ve9Cv550Qu0bh72O/8gK80PBwASMOqyhYCE8CTwFguTmzs7e0775fnCnCCOq+zx/v5S8PGAYA0zGqUgAeBw8B2YGR+W/vrhReyt7fvft9qgHBrVn/hcy/cdoPAh0QmqPBlxp8macA5AJAENcaAZ4H9RLYQmr4/oPmkovm/Wezt7bvXpz2Ojh4zC3xG5AiRj9njB3ylYeYAQNItNTYwd9vQwJ0t26VeomBvb9+9vrWvgWME3mU311fsWSUVlgMASQu9Bvwnfkzjg4GPERnLnJlMXrM8x97efuX7tCN2q3cAIlcIvAO8QZlvUwpJQ8oBgKR0U4wQ2QEcAB4gUso8AUk7SWl1wmJvb7/0Pk369mkiZ4DDzHCel1s8XtJQcgAgKVsNgLVEngX2AXcBnZ+QtJqdtLe3X3rfWp3I58Ak8BEVZm77mSQNNAcAkto7QYkSm4FXgOeBNR1fjtD6EgV7e/ul9KHpvwv7S8BxIqf5v1xhX8rjJekmBwCSOneCEUpsBQ4CO4CRtnuRTi5zsLe3v93+BnCKwDHgImXv7iOpPQcAkpbuJGMEHqHxRWL3Ldqe5+uo7e2L3je21YFPgINEzrPHb/GV1DkHAJJuz2lgmrXU2Q2ME1ib2cam5U72Ovb29ul9Y1DwDZFxSnzIbqY7eEZJWsABgKTlqQKwkcBhYCcwksPLJOzti99HrgGvU+JfGOE6z7d5XknK4ABA0sqp8gCNLxzajgMBe/uV6meAPwD7KXOpzbNIUlsOACStrN8ywizP0Pj+gLvJ+v4AuHWpQ8j42d5+uPtZ4M9EDlDiU3ZnPI8kLZEDAEndUWM98BKwG1gPtLu8Iet6Z3v7YevrRL6hcbnPaa/zl7TSHABI6p7G5wPuA8aBxwmsWnQSFBOPCbS+dMLefrD774F4K7/ZAAAIkklEQVRTwBuU+Q5J6gIHAJK67ySjBH5KYBz4CTCS2jVfAtHpNdP29oPR3yDyR+AogQvez19SNzkAkNQ7U6wh8gywj8jdQPplEs3r506csq6ntrcvdl+ncZ3/JIEzlJlBkrrMAYCk3quxCXgF2AU3vz+gkxnVZvb2Re8jF2l8g++7lLm6hGeXpGVxACCpP35NiRF+DBwg8BiRkUUzqVknUcnG3r5IfeQ6gVNEXqfibT0l9Z4DAEn9dZIxAg8DEwS2LjipajWL2nwphb19EXqoAx8BE9S5wB5mMx4tSV3lAEBS/50EAmtpfJPwOIEN89uyTrwgfQ9mb5/HPvIFcIjAR/wD0zyV8lyS1CMOACTlR5USgY00vkTsOSJjbfdSnc7I2tv3p79C4CiRKeAqlTa9JPWAAwBJ+VMDItuASQIPASMZ11IvlLbN3r4//TTwHpEJApcoI0m54QBAUn69TYkfeJLIBHAPgVJHl2Mk19nb96qHWeAckXEqnEt5lCT1nQMASflXZQ2BXwJ7idyZuefq5JIMe/vu9HUi3xA4zB28xy4/4CspvxwASCqOGncTOUTgcWD1ouuxIfvyDVKW7e1Xpr8MTAHHqHAFSco5BwCSiqXxQeGHiBwk8BNgNLXL92yx/WD014E/EjlC4Auv85dUFA4AJBXTSVZT4hkiewncAzc/H5A2W9us1YyuvX0nPcwSOAdM8gOf8KKX+0gqFgcAkorrNWADmwjsIbKLwPr5E7eYaJOXbtDU2dt32sPXRI4ReJ8yV5GkAnIAIKn4pihR534CrwJPAGOLZnDTZnRbzfja2y/srwCngDcZ5SLPI0mF5QBA0uCoMQo8ROODwtuJlBbM6sKtmd3kepp+tre/1c8yd50/XKDi5T6Sis8BgKTBU2MNkacJHAA2z69vdb33nKxZYvvh6wMXbg4mP6bMNJI0IBwASBpMNQA2EHkVqBBYNb8tf5eX2OervwxMAm9T5hqSNGAcAEgabFVKwL3AJIFHgRLQ+oSQlPX2w9DPEDkNTBD41tt6ShpUDgAkDb5fAX/PCIGfEZgkch9zAwG4df1383LaOvtB7evAp0TGqfM5L1JHkgaYAwBJw6XGKmAXkf0ENjD3QeFmrWaMSdlmX9S+TuRrAoco8QdeYCblWSRp4DgAkDScqmwEDgJPA2szu+Rscjv2Rem/B6oE3qDMlSX8CZJUeA4AJA2v14ANPEDgEJGfAmPz25ovFSFlOcm+GH3gOvAhMEGZr1KeSZIGngMASaoySuAxIgcJ3Ee8+fmAVteVp62zz3NfB87R+IDvWcpe5y9peDkAkKQ5VdYR2AW8BGxasC3rOvOsbfb56SMXCbxO5F0q3tZTkhwASFKzKgD3APsIPE1kDZA9u5x2Vxn7fPRwDThN5BiRi+xBkoQDAElKV2ME2E7kAPAwgZF+vyR1bJbIp8BhIufYw2y/X5Ak5YkDAElqpcpq4FHgAIH75tcnLztJ+wBq1odS7bvXN27reQT4PWWuI0laxAGAJLXzK2AV629+PmAvcCeQfV266/ux/jqNC7jeoM63Xu4jSdkcAEhSp6YoEbmLxvcHPEtkpO2dakhss1/pvk7kDIEDwBeUvdxHktpxACBJS1WjROQBAm8ADwDpJ6+u7+76wDc0vtH5A0/8JalzDgAk6Xb9hhFGeAaYAO5Kna1uPnGd+zlrVtu+sz5yDfgX6hzlP3CD/9ailyQt4gBAkpbrJOsIvArsJrCu3y9ngE0DHxAZ529c5LV+vxxJKiYHAJK0El4DNvCPBA4QeZzAqvltaXesgew9sH2ynyXyOYGDlDjLC36LryQthwMASVpJU4xQ56c3BwLbgdEl7Wmz7ngznH2dyDcEjgGnKXNjCc8sScrgAECSuqHGauBpYB+NbxYu9fcFFUzkMnAaOE6Fb/v9ciRpkDgAkKRuqrER+AWwC1g/v77dve1bfTHWIPeRaeAMgUn+nc952ct9JGmlOQCQpG6rAoH7gXEijwNjqde8z0m/5eUw9H8GJomcYQ/TSJK6wgGAJPXKFKPznw+AnzB3WVDzCXLWcrPB6y8Bx4FTlLma8ghJ0gpyACBJvVQDYA2RJ4FxAnfPb8u6F37aLPog9HCNyCkCx4lcpLJouySpCxwASFI/vAX8wEYCLwEVYG3LvpOZ9aL0MAv8EThM4C/s9lt8JamXHABIUj+9RYk69xKZAB4nMDK/rd0Haou5/jxwEPiEMjNIknrOAYAk5UGVEeAhApPAttQmz7P67fvviBwmcpoSNyi3eW5JUtc4AJCkvPgd8G+MAjtvviOwcdEMevGWrwMniBzlDq7wQpv/B5KkrnMAIEl5VGUtcJDALmBNv1/ObZimcZ3/Qcp82e8XI0m6xQGAJOXVW0Cd+4EJYAcwtmiWHRbvyZN34+ltPwP8mcAEZT7J/stJkvrFAYAk5V3j8wE7gAMEtkHTB4XndHLNfnf7OpG/EjhGifd5wS/ykqS8cgAgSUVRZQ2BncArRLYw90VirWboe7E+chGoEXibMpdb/RUkSf3nAECSiqbGZuAVYCdw56LtyS/hmluXtce//f4ygfeIvMnf8TU/b/vKJUk54ABAkoroLUr8wFZgP/AYMAqk79XT7sefNbvfSR+5AXwIHGOE8+yivqy/iySppxwASFKRVRkj8DCRAwS2d/lPqxP5FDgKfErFL/KSpCJyACBJg6DKGuBZYBzYlHlvfkif3W/ffwFMAh9S4Xo3/gqSpN5wACBJg+LXwI/YCOwiUiawcdFJf/Ny1sBgYfMl8Bsi71HhSrf/CpKk7nMAIEmDZooSP3AngScI/FfgAeY+IwALr/GHhUeCxrYbwFngfxH4hMhVyr156ZKk7nMAIEmD6iRQYgTYROQhAv9E5D4CdxFZR2CUxjf2fg98Q+QLAv9K5E8ErvD3zLKzr38DSVIX/H/oKzCyKOXOYgAAAABJRU5ErkJggg==;" vertex="1" parent="XB9ZX82qE_2Oj1gt79N6-14">
          <mxGeometry x="138.54999999999995" y="345" width="34.87" height="40" as="geometry" />
        </mxCell>
        <mxCell id="XB9ZX82qE_2Oj1gt79N6-29" value="" style="group" parent="1" vertex="1" connectable="0">
          <mxGeometry x="70" y="10" width="60" height="65" as="geometry" />
        </mxCell>
        <mxCell id="XB9ZX82qE_2Oj1gt79N6-27" value="" style="shape=actor;whiteSpace=wrap;html=1;" parent="XB9ZX82qE_2Oj1gt79N6-29" vertex="1">
          <mxGeometry x="15" width="30" height="35" as="geometry" />
        </mxCell>
        <mxCell id="XB9ZX82qE_2Oj1gt79N6-28" value="Clients" style="text;html=1;strokeColor=none;fillColor=none;align=center;verticalAlign=middle;whiteSpace=wrap;rounded=0;" parent="XB9ZX82qE_2Oj1gt79N6-29" vertex="1">
          <mxGeometry y="35" width="60" height="30" as="geometry" />
        </mxCell>
        <mxCell id="XB9ZX82qE_2Oj1gt79N6-30" style="edgeStyle=orthogonalEdgeStyle;rounded=0;orthogonalLoop=1;jettySize=auto;html=1;entryX=0;entryY=0.75;entryDx=0;entryDy=0;" parent="1" source="XB9ZX82qE_2Oj1gt79N6-27" target="jJKlzhtBrw8RwIzrtY0X-12" edge="1">
          <mxGeometry relative="1" as="geometry">
            <Array as="points">
              <mxPoint x="20" y="40" />
              <mxPoint x="20" y="353" />
            </Array>
          </mxGeometry>
        </mxCell>
        <mxCell id="XB9ZX82qE_2Oj1gt79N6-37" value="tfstate" style="sketch=0;points=[[0,0,0],[0.25,0,0],[0.5,0,0],[0.75,0,0],[1,0,0],[0,1,0],[0.25,1,0],[0.5,1,0],[0.75,1,0],[1,1,0],[0,0.25,0],[0,0.5,0],[0,0.75,0],[1,0.25,0],[1,0.5,0],[1,0.75,0]];outlineConnect=0;fontColor=#232F3E;fillColor=#7AA116;strokeColor=#ffffff;dashed=0;verticalLabelPosition=bottom;verticalAlign=top;align=center;html=1;fontSize=12;fontStyle=0;aspect=fixed;shape=mxgraph.aws4.resourceIcon;resIcon=mxgraph.aws4.s3;" parent="1" vertex="1">
          <mxGeometry x="500" y="85" width="40" height="40" as="geometry" />
        </mxCell>
        <mxCell id="_G-yfWp5dFgnprR01KAw-1" value="pocketbase1.aws.domain.com" style="text;html=1;strokeColor=none;fillColor=none;align=center;verticalAlign=middle;whiteSpace=wrap;rounded=0;" vertex="1" parent="1">
          <mxGeometry x="160" y="10" width="100" height="30" as="geometry" />
        </mxCell>
        <mxCell id="_G-yfWp5dFgnprR01KAw-2" value="pocketbase2.aws.domain.com" style="text;html=1;strokeColor=none;fillColor=none;align=center;verticalAlign=middle;whiteSpace=wrap;rounded=0;" vertex="1" parent="1">
          <mxGeometry x="160" y="40" width="100" height="30" as="geometry" />
        </mxCell>
        <mxCell id="_G-yfWp5dFgnprR01KAw-3" value="A" style="text;html=1;strokeColor=none;fillColor=none;align=center;verticalAlign=middle;whiteSpace=wrap;rounded=0;" vertex="1" parent="1">
          <mxGeometry x="56" y="304" width="60" height="30" as="geometry" />
        </mxCell>
        <mxCell id="_G-yfWp5dFgnprR01KAw-4" value="www.pocketbase1" style="text;html=1;strokeColor=none;fillColor=none;align=center;verticalAlign=middle;whiteSpace=wrap;rounded=0;" vertex="1" parent="1">
          <mxGeometry x="161" y="304" width="80" height="30" as="geometry" />
        </mxCell>
        <mxCell id="_G-yfWp5dFgnprR01KAw-5" value="alb-public-dns" style="text;html=1;strokeColor=none;fillColor=none;align=center;verticalAlign=middle;whiteSpace=wrap;rounded=0;" vertex="1" parent="1">
          <mxGeometry x="291" y="304" width="90" height="30" as="geometry" />
        </mxCell>
        <mxCell id="_G-yfWp5dFgnprR01KAw-6" value="A" style="text;html=1;strokeColor=none;fillColor=none;align=center;verticalAlign=middle;whiteSpace=wrap;rounded=0;" vertex="1" parent="1">
          <mxGeometry x="56" y="274" width="60" height="30" as="geometry" />
        </mxCell>
        <mxCell id="_G-yfWp5dFgnprR01KAw-7" value="pocketbase1" style="text;html=1;strokeColor=none;fillColor=none;align=center;verticalAlign=middle;whiteSpace=wrap;rounded=0;" vertex="1" parent="1">
          <mxGeometry x="161" y="274" width="80" height="30" as="geometry" />
        </mxCell>
        <mxCell id="_G-yfWp5dFgnprR01KAw-8" value="alb-public-dns" style="text;html=1;strokeColor=none;fillColor=none;align=center;verticalAlign=middle;whiteSpace=wrap;rounded=0;" vertex="1" parent="1">
          <mxGeometry x="291" y="274" width="90" height="30" as="geometry" />
        </mxCell>
      </root>
    </mxGraphModel>
  </diagram>
</mxfile>
